<svg width="48" height="48" viewBox="0 0 48 48" fill="none" xmlns="http://www.w3.org/2000/svg">
<circle opacity="0.08" cx="24" cy="24" r="24" fill="#E2C761"/>
<path d="M25.9514 22.3313C25.5496 22.9775 25.0412 23.4406 24.3291 23.6343C23.2115 23.9393 22.1211 23.5405 21.4469 22.5681C21.3243 22.3911 21.2267 22.3699 21.0337 22.4395C19.8979 22.8474 18.7561 23.2378 17.6188 23.6411C16.284 24.1148 15.4516 25.2953 15.4426 26.7156C15.4426 26.7814 15.4456 26.848 15.441 26.9138C15.4236 27.1726 15.2277 27.364 14.984 27.361C14.7396 27.358 14.5527 27.1665 14.5368 26.9032C14.4362 25.2415 15.3555 23.6321 16.8878 22.9669C17.9063 22.525 18.9763 22.2012 20.0235 21.8258C20.3429 21.7116 20.6629 21.5981 20.9845 21.4876C21.2305 21.4028 21.3485 21.2311 21.347 20.9738C21.347 20.9647 21.347 20.9549 21.347 20.9458C21.3984 20.398 21.2963 19.9341 20.921 19.4687C20.2672 18.6591 20.0485 17.6504 20.0061 16.6289C19.9698 15.7526 19.9456 14.8628 20.0576 13.9971C20.2755 12.3127 21.829 11.0355 23.5717 11.0006C25.2735 10.9673 26.9253 12.2303 27.1591 13.9109C27.3634 15.3781 27.3755 16.8718 26.9064 18.3171C26.7202 18.8899 26.4274 19.4022 26.0332 19.86C25.9507 19.9553 25.9053 20.1036 25.8917 20.233C25.869 20.4479 25.8841 20.6673 25.8856 20.8853C25.8879 21.2508 25.9711 21.3665 26.3162 21.4891C27.489 21.9053 28.6619 22.32 29.834 22.7384C31.4465 23.3142 32.4 24.4447 32.6648 26.1397C32.7049 26.3993 32.6981 26.6679 32.6905 26.932C32.6837 27.1756 32.4802 27.3572 32.2463 27.3595C32.0034 27.3618 31.8181 27.1688 31.7878 26.9115C31.7394 26.4916 31.731 26.0565 31.61 25.657C31.3421 24.7709 30.7663 24.1004 29.9036 23.7622C28.6059 23.2537 27.2825 22.8088 25.9514 22.3298V22.3313ZM24.9148 20.7483C24.5357 20.8285 24.1271 20.9337 23.7116 20.998C23.4128 21.0442 23.1888 20.855 23.1646 20.5932C23.1396 20.3231 23.3151 20.124 23.6186 20.0824C23.7495 20.065 23.8842 20.0688 24.0113 20.0378C24.9178 19.8176 25.5042 19.2213 25.8818 18.4011C26.3411 17.4015 26.3608 16.3353 26.3343 15.2373C25.5322 15.5029 24.7271 15.5347 23.9152 15.4091C23.0163 15.2691 22.1733 14.9831 21.4643 14.3876C21.2471 14.2052 21.2199 13.9268 21.3765 13.7323C21.5392 13.5303 21.804 13.4947 22.031 13.6778C22.5834 14.1243 23.2243 14.3566 23.9107 14.4822C24.6462 14.6169 25.3756 14.6138 26.0869 14.3399C26.2208 14.2885 26.3109 14.2362 26.2753 14.0562C26.0362 12.8424 24.8679 11.9185 23.5792 11.9359C22.2762 11.9533 21.0799 12.909 20.9626 14.1583C20.8741 15.1027 20.9066 16.0652 20.9709 17.0141C21.0231 17.7919 21.2539 18.563 21.8131 19.1335C22.1854 19.5142 22.3065 19.9076 22.2535 20.4002C22.2444 20.4842 22.2512 20.5705 22.252 20.6552C22.2558 21.0139 22.2709 21.3711 22.0931 21.707C22.059 21.7714 22.109 21.906 22.1574 21.9847C22.8422 23.1069 24.4532 23.0759 25.1108 21.9295C25.1448 21.8705 25.1751 21.7888 25.1615 21.7275C25.085 21.393 24.995 21.0616 24.914 20.7476L24.9148 20.7483Z" fill="url(#paint0_linear_26_576)"/>
<path d="M16.354 19.9538C16.2186 19.9871 16.1195 20.0136 16.0188 20.0348C15.7684 20.087 15.5277 19.95 15.4604 19.7185C15.39 19.4763 15.5232 19.2304 15.8001 19.1555C16.2156 19.0435 16.5636 18.8369 16.8368 18.5047C17.2348 18.0197 17.2939 17.4522 17.25 16.8393C16.4539 16.8347 15.7298 16.6251 15.073 16.1983C14.9625 16.1265 14.852 16.0523 14.7483 15.9706C14.5191 15.7905 14.4691 15.5332 14.6144 15.3221C14.765 15.1034 15.0472 15.0557 15.2879 15.2358C15.7669 15.5945 16.2882 15.8397 16.8868 15.9063C16.9972 15.9184 17.11 15.9176 17.2227 15.9229C17.1781 15.0058 16.4713 14.2574 15.6337 14.2188C14.6129 14.1719 13.7927 14.7652 13.6905 15.7073C13.6209 16.3504 13.6428 17.0072 13.6731 17.6557C13.6935 18.0976 13.9394 18.4593 14.28 18.7386C14.4638 18.8891 14.5463 19.0609 14.5395 19.3008C14.5266 19.7919 14.5304 20.2845 14.5372 20.7763C14.541 21.0298 14.4215 21.1705 14.1922 21.2644C13.521 21.5406 12.8438 21.8077 12.19 22.1217C11.3682 22.5159 10.9543 23.2068 10.9074 24.1103C10.8862 24.5159 10.9051 24.9237 10.9021 25.3301C10.8998 25.5866 11.0148 25.7531 11.2509 25.8575C11.795 26.0974 12.3338 26.3478 12.874 26.596C13.0851 26.6929 13.2289 26.8654 13.157 27.0886C13.1094 27.2362 12.9618 27.3746 12.8233 27.4594C12.7439 27.5078 12.5827 27.4639 12.4768 27.4178C11.9153 27.1719 11.3554 26.9199 10.8022 26.655C10.268 26.3978 9.98196 25.9634 10.0009 25.3656C10.0228 24.6786 9.99331 23.9771 10.128 23.3105C10.3149 22.3828 10.9195 21.7139 11.7783 21.3045C12.3232 21.0449 12.8808 20.8126 13.437 20.5773C13.577 20.5183 13.6602 20.4464 13.6292 20.286C13.6277 20.2769 13.6284 20.2671 13.6292 20.258C13.6739 19.7593 13.611 19.325 13.2297 18.9209C12.8483 18.5161 12.7136 17.9622 12.7234 17.3954C12.7348 16.7356 12.6856 16.0637 12.7931 15.419C13.0004 14.1772 14.1816 13.2609 15.4468 13.2624C16.715 13.2639 17.9136 14.1742 18.0899 15.4235C18.2072 16.2536 18.1466 17.1155 18.0982 17.9599C18.0702 18.4465 17.7902 18.8672 17.4467 19.2175C17.3105 19.3568 17.2401 19.4915 17.2568 19.6874C17.2795 19.9583 17.1894 20.2898 17.3166 20.485C17.4361 20.6696 17.7751 20.7112 18.0172 20.8164C18.2163 20.9034 18.4153 20.9889 18.6128 21.079C18.92 21.2197 19.0357 21.452 18.9283 21.7063C18.8208 21.9605 18.5621 22.0491 18.2624 21.925C17.7221 21.7017 17.1819 21.4778 16.6446 21.247C16.4577 21.1668 16.3465 21.0268 16.3525 20.8066C16.3601 20.5334 16.354 20.2595 16.354 19.9538Z" fill="url(#paint1_linear_26_576)"/>
<path d="M32.6991 19.9553C32.575 19.9833 32.4925 20.0015 32.4108 20.0204C32.1165 20.0877 31.8728 19.9644 31.804 19.7116C31.7351 19.4589 31.8774 19.2243 32.1785 19.1441C32.6166 19.0276 32.9912 18.8066 33.228 18.426C33.387 18.1703 33.5353 17.8676 33.558 17.5755C33.6071 16.9573 33.6344 16.3247 33.5549 15.7125C33.4308 14.7538 32.6386 14.1651 31.6708 14.209C30.7802 14.2491 30.0454 14.9627 29.9849 15.8904C29.9508 16.4178 29.9584 16.9497 29.9849 17.4779C30.0106 17.9902 30.2353 18.4245 30.6387 18.7507C30.8157 18.8944 30.8899 19.0617 30.8846 19.2902C30.8732 19.7911 30.8763 20.2928 30.8831 20.7937C30.8861 21.0253 30.7771 21.1683 30.5766 21.253C30.0991 21.4551 29.6202 21.6541 29.1419 21.8523C28.815 21.9878 28.5631 21.9174 28.445 21.6586C28.3247 21.3945 28.439 21.1637 28.7704 21.0177C29.1154 20.8648 29.4673 20.7264 29.8063 20.5614C29.8835 20.5236 29.9607 20.4063 29.9675 20.32C29.9887 20.0665 29.9849 19.8093 29.9697 19.555C29.9644 19.4627 29.9183 19.3545 29.8547 19.2879C29.3129 18.7189 29.042 18.0484 29.067 17.2607C29.0852 16.6667 29.0375 16.0621 29.1321 15.4802C29.3508 14.1432 30.6553 13.158 31.95 13.2851C33.4308 13.4296 34.5076 14.5465 34.5099 15.9638C34.5114 16.6327 34.5076 17.3046 34.4456 17.9698C34.4017 18.4366 34.1542 18.849 33.8236 19.182C33.6526 19.3537 33.6283 19.5316 33.5958 19.7525C33.5118 20.3185 33.707 20.6378 34.2723 20.7914C34.6506 20.8944 35.007 21.0858 35.3634 21.2576C36.5749 21.841 37.2022 22.8095 37.2362 24.1542C37.2468 24.5696 37.2408 24.9865 37.237 25.402C37.2324 25.9521 36.988 26.3743 36.5007 26.6187C35.9196 26.9108 35.3218 27.1703 34.7271 27.4337C34.4637 27.5502 34.2163 27.4556 34.1051 27.2218C33.9885 26.9781 34.0854 26.7284 34.3676 26.596C34.8965 26.3471 35.4285 26.1019 35.9642 25.8688C36.2238 25.7561 36.3441 25.5767 36.3343 25.2968C36.3161 24.7875 36.3433 24.273 36.2783 23.7698C36.1806 23.0154 35.7501 22.4577 35.0668 22.1331C34.4032 21.8175 33.7191 21.5443 33.0396 21.2629C32.8104 21.1683 32.6916 21.0245 32.6999 20.771C32.7082 20.5069 32.7014 20.2428 32.7014 19.9561L32.6991 19.9553Z" fill="url(#paint2_linear_26_576)"/>
<path d="M26.2157 37.9986C26.1688 37.9804 26.0605 37.9487 25.9614 37.8995C25.2494 37.5506 24.5366 37.2033 23.8306 36.8431C23.68 36.7659 23.5673 36.7629 23.4152 36.8401C22.7092 37.2003 21.9949 37.5431 21.2866 37.898C21.0793 38.0016 20.8765 38.0622 20.679 37.9002C20.4966 37.7512 20.4913 37.5537 20.5269 37.3327C20.6555 36.5314 20.7758 35.7293 20.881 34.9249C20.8939 34.8273 20.8205 34.6926 20.7456 34.6139C20.2098 34.0532 19.6643 33.5031 19.121 32.95C18.9666 32.7926 18.8077 32.6322 18.8788 32.384C18.9522 32.1282 19.1565 32.0571 19.3971 32.0185C20.1236 31.902 20.8462 31.7597 21.5741 31.6545C21.845 31.6159 22.0009 31.507 22.122 31.2595C22.436 30.6148 22.7841 29.9875 23.1102 29.3489C23.223 29.1279 23.3455 28.9297 23.6263 28.9342C23.907 28.9388 24.022 29.1446 24.134 29.3633C24.4654 30.0102 24.8211 30.6443 25.1366 31.2989C25.2524 31.5395 25.4158 31.6121 25.6527 31.65C26.4071 31.7695 27.1577 31.908 27.9122 32.0313C28.1293 32.0669 28.3238 32.1615 28.342 32.3741C28.3556 32.5376 28.2882 32.754 28.1778 32.8735C27.6322 33.463 27.0647 34.032 26.4949 34.5995C26.3663 34.7282 26.3352 34.8477 26.364 35.0256C26.4941 35.8261 26.6114 36.6297 26.7264 37.4326C26.7718 37.7504 26.5736 37.9933 26.2172 37.9986H26.2157ZM21.5492 36.7417C22.1591 36.4406 22.7046 36.1848 23.2358 35.9026C23.5075 35.758 23.7428 35.7656 24.0107 35.9064C24.5426 36.1856 25.0859 36.4428 25.6822 36.738C25.6073 36.2083 25.5816 35.7263 25.465 35.2677C25.3213 34.7017 25.431 34.2757 25.8895 33.8943C26.2694 33.578 26.5902 33.1906 26.9663 32.8054C26.3625 32.6987 25.8116 32.5701 25.2532 32.5134C24.834 32.4702 24.5918 32.2856 24.4193 31.9118C24.1847 31.4025 23.9047 30.9145 23.618 30.3681C23.3062 30.9629 23.0111 31.4979 22.744 32.0465C22.6085 32.3249 22.408 32.4506 22.1121 32.4944C21.5113 32.5837 20.9143 32.6942 20.2772 32.8017C20.3695 32.9031 20.43 32.9727 20.4936 33.0385C20.8765 33.4312 21.2563 33.827 21.6445 34.2144C21.8208 34.3907 21.8912 34.5837 21.8276 34.8303C21.7921 34.9665 21.7807 35.1096 21.761 35.2495C21.6929 35.724 21.6264 36.1992 21.5492 36.7432V36.7417Z" fill="url(#paint3_linear_26_576)"/>
<path d="M17.2153 31.1165C16.6811 31.0204 16.2134 30.9228 15.7413 30.8584C15.4863 30.8236 15.3326 30.7003 15.2214 30.4808C15.005 30.0541 14.7787 29.6326 14.5306 29.1612C14.2877 29.622 14.0629 30.0314 13.8563 30.4491C13.7375 30.6897 13.5741 30.8274 13.2994 30.8652C12.8348 30.9288 12.374 31.0219 11.8428 31.1142C12.0577 31.3351 12.2378 31.519 12.4164 31.7037C13.3312 32.6495 13.1254 32.2432 12.9793 33.5288C12.9529 33.7611 12.912 33.9919 12.8704 34.2711C13.3441 34.038 13.7784 33.8337 14.2029 33.6113C14.4246 33.4955 14.6244 33.4917 14.8476 33.6045C15.5211 33.945 16.2013 34.2734 16.877 34.6109C17.1911 34.7675 17.3046 35.0172 17.188 35.2707C17.0692 35.5287 16.7862 35.5938 16.4571 35.4319C15.8986 35.1564 15.3395 34.8833 14.7871 34.5957C14.613 34.5057 14.4753 34.4913 14.293 34.5874C13.7421 34.878 13.1783 35.1436 12.6222 35.4235C12.4179 35.5265 12.2128 35.593 12.0115 35.4379C11.8156 35.2866 11.8125 35.0815 11.8519 34.8485C11.9608 34.2068 12.0539 33.5621 12.1341 32.9159C12.1462 32.8175 12.0796 32.6836 12.0062 32.6056C11.5583 32.1312 11.102 31.6651 10.6404 31.2042C10.4777 31.0416 10.365 30.8403 10.4815 30.6511C10.57 30.5073 10.7721 30.3847 10.9438 30.3484C11.5893 30.2115 12.2446 30.1207 12.8931 29.9951C12.993 29.9754 13.1072 29.88 13.1579 29.7885C13.4659 29.2255 13.7595 28.655 14.0538 28.0852C14.159 27.8824 14.2816 27.7136 14.5419 27.7189C14.7886 27.7242 14.9021 27.8877 15.0027 28.0806C15.2933 28.6421 15.5937 29.199 15.8805 29.7627C15.9554 29.9103 16.0386 29.986 16.2149 30.0117C16.868 30.1078 17.5202 30.2145 18.1657 30.3537C18.3238 30.3878 18.5281 30.5346 18.5743 30.6746C18.6197 30.813 18.5402 31.0521 18.432 31.1709C17.9016 31.7491 17.3454 32.3037 16.7938 32.8621C16.5555 33.1028 16.2967 33.1209 16.0946 32.9272C15.8918 32.7335 15.9138 32.4558 16.1552 32.2061C16.4942 31.8558 16.8347 31.5084 17.216 31.1172L17.2153 31.1165Z" fill="url(#paint4_linear_26_576)"/>
<path d="M34.4344 34.2681C34.3595 33.7278 34.2997 33.2412 34.221 32.7585C34.1839 32.5299 34.2452 32.3552 34.4064 32.1962C34.6954 31.9102 34.9769 31.6166 35.2607 31.3253C35.3167 31.2678 35.3666 31.205 35.4483 31.1119C34.9262 31.0196 34.448 30.925 33.9667 30.8539C33.7367 30.8198 33.5899 30.7109 33.487 30.5088C33.2645 30.0722 33.033 29.6402 32.7818 29.1604C32.5449 29.6099 32.3194 30.0177 32.1151 30.4362C31.9925 30.6874 31.8238 30.8297 31.537 30.8683C31.0739 30.9303 30.6154 31.0241 30.097 31.1149C30.4232 31.4494 30.7107 31.7437 30.9982 32.0389C31.0709 32.113 31.1466 32.1857 31.2139 32.2643C31.3993 32.483 31.3978 32.7501 31.2139 32.9257C31.0217 33.1096 30.7712 33.1081 30.5586 32.8977C30.1485 32.4921 29.749 32.0752 29.3456 31.6635C29.1799 31.4948 28.9892 31.3435 28.8583 31.1513C28.7683 31.0188 28.6881 30.8009 28.738 30.6738C28.794 30.5323 28.9885 30.3878 29.1459 30.3537C29.7815 30.2167 30.4247 30.1085 31.0686 30.0185C31.2691 29.9905 31.3637 29.8982 31.4462 29.737C31.7292 29.1824 32.022 28.6322 32.3081 28.0791C32.408 27.8861 32.5252 27.7219 32.7704 27.7166C33.0292 27.7106 33.1525 27.8801 33.2577 28.0836C33.543 28.6375 33.8366 29.1869 34.1196 29.7423C34.2028 29.9057 34.3012 29.989 34.5002 30.017C35.1351 30.1055 35.7639 30.2349 36.3972 30.3386C36.6114 30.3734 36.7733 30.4589 36.8452 30.6715C36.9193 30.8902 36.8187 31.0552 36.6719 31.2035C36.2141 31.6688 35.7518 32.1289 35.3053 32.6049C35.2297 32.6851 35.1774 32.8341 35.1903 32.9431C35.2645 33.5613 35.3689 34.1757 35.4476 34.794C35.468 34.9566 35.4733 35.1413 35.4158 35.2881C35.3189 35.5363 35.0518 35.593 34.7643 35.453C34.1869 35.1731 33.6096 34.8916 33.0405 34.5965C32.8658 34.5057 32.7296 34.4928 32.5472 34.5881C31.9623 34.8946 31.3652 35.1776 30.7728 35.4697C30.5866 35.5612 30.3853 35.5741 30.2499 35.4167C30.1568 35.3085 30.0879 35.1269 30.1069 34.9915C30.1243 34.8689 30.2514 34.7198 30.3694 34.6585C31.0898 34.284 31.8147 33.9185 32.5532 33.5817C32.6985 33.5159 32.9286 33.5447 33.0852 33.6105C33.5263 33.7982 33.9486 34.0274 34.4366 34.2696L34.4344 34.2681Z" fill="url(#paint5_linear_26_576)"/>
<defs>
<linearGradient id="paint0_linear_26_576" x1="23.6128" y1="11" x2="23.6128" y2="27.3611" gradientUnits="userSpaceOnUse">
<stop stop-color="#E2C761"/>
<stop offset="1" stop-color="#A3781A"/>
</linearGradient>
<linearGradient id="paint1_linear_26_576" x1="14.4838" y1="13.2624" x2="14.4838" y2="27.4805" gradientUnits="userSpaceOnUse">
<stop stop-color="#E2C761"/>
<stop offset="1" stop-color="#A3781A"/>
</linearGradient>
<linearGradient id="paint2_linear_26_576" x1="32.8203" y1="13.274" x2="32.8203" y2="27.4835" gradientUnits="userSpaceOnUse">
<stop stop-color="#E2C761"/>
<stop offset="1" stop-color="#A3781A"/>
</linearGradient>
<linearGradient id="paint3_linear_26_576" x1="23.6025" y1="28.9341" x2="23.6025" y2="38" gradientUnits="userSpaceOnUse">
<stop stop-color="#E2C761"/>
<stop offset="1" stop-color="#A3781A"/>
</linearGradient>
<linearGradient id="paint4_linear_26_576" x1="14.5105" y1="27.7188" x2="14.5105" y2="35.5298" gradientUnits="userSpaceOnUse">
<stop stop-color="#E2C761"/>
<stop offset="1" stop-color="#A3781A"/>
</linearGradient>
<linearGradient id="paint5_linear_26_576" x1="32.7964" y1="27.7165" x2="32.7964" y2="35.5372" gradientUnits="userSpaceOnUse">
<stop stop-color="#E2C761"/>
<stop offset="1" stop-color="#A3781A"/>
</linearGradient>
</defs>
</svg>
