<svg width="16" height="12" viewBox="0 0 16 12" fill="none" xmlns="http://www.w3.org/2000/svg">
<path d="M1.56923 12C1.13769 12 0.7684 11.8533 0.461354 11.5598C0.153785 11.2657 0 10.9125 0 10.5V1.5C0 1.0875 0.153785 0.7345 0.461354 0.441C0.7684 0.147 1.13769 0 1.56923 0H14.1231C14.5546 0 14.9242 0.147 15.2317 0.441C15.5388 0.7345 15.6923 1.0875 15.6923 1.5V10.5C15.6923 10.9125 15.5388 11.2657 15.2317 11.5598C14.9242 11.8533 14.5546 12 14.1231 12H1.56923ZM7.84615 6.61875C7.91154 6.61875 7.98006 6.60925 8.05172 6.59025C8.12391 6.57175 8.19269 6.54375 8.25808 6.50625L13.8092 3.1875C13.9138 3.125 13.9923 3.047 14.0446 2.9535C14.0969 2.8595 14.1231 2.75625 14.1231 2.64375C14.1231 2.39375 14.0119 2.20625 13.7896 2.08125C13.5673 1.95625 13.3385 1.9625 13.1031 2.1L7.84615 5.25L2.58923 2.1C2.35385 1.9625 2.125 1.95925 1.90269 2.09025C1.68038 2.22175 1.56923 2.40625 1.56923 2.64375C1.56923 2.76875 1.59538 2.878 1.64769 2.9715C1.7 3.0655 1.77846 3.1375 1.88308 3.1875L7.43423 6.50625C7.49962 6.54375 7.5684 6.57175 7.64058 6.59025C7.71225 6.60925 7.78077 6.61875 7.84615 6.61875Z" fill="#FECA3E"/>
</svg>
