<svg width="30" height="30" viewBox="0 0 30 30" fill="none" xmlns="http://www.w3.org/2000/svg">
<path fill-rule="evenodd" clip-rule="evenodd" d="M15 1C7.26801 1 1 7.26801 1 15C1 22.732 7.26801 29 15 29C22.732 29 29 22.732 29 15C29 7.26801 22.732 1 15 1ZM11.9214 7.57815C12.7178 7.54191 12.9723 7.53304 15.0002 7.53304H14.9978C17.0263 7.53304 17.2799 7.54191 18.0763 7.57815C18.8712 7.61455 19.4141 7.7404 19.8901 7.92505C20.3817 8.1156 20.797 8.37072 21.2123 8.78605C21.6277 9.20108 21.8828 9.61766 22.0741 10.1088C22.2577 10.5835 22.3837 11.1261 22.421 11.921C22.4568 12.7174 22.4661 12.9719 22.4661 14.9998C22.4661 17.0276 22.4568 17.2815 22.421 18.0779C22.3837 18.8725 22.2577 19.4153 22.0741 19.8902C21.8828 20.3811 21.6277 20.7977 21.2123 21.2127C20.7975 21.6281 20.3815 21.8838 19.8906 22.0745C19.4155 22.2592 18.8723 22.385 18.0774 22.4214C17.2809 22.4577 17.0272 22.4665 14.9992 22.4665C12.9715 22.4665 12.7172 22.4577 11.9208 22.4214C11.126 22.385 10.5833 22.2592 10.1082 22.0745C9.61742 21.8838 9.20084 21.6281 8.78597 21.2127C8.37079 20.7977 8.11567 20.3811 7.9248 19.89C7.74031 19.4153 7.61447 18.8727 7.57791 18.0778C7.54182 17.2813 7.5328 17.0276 7.5328 14.9998C7.5328 12.9719 7.54213 12.7173 7.57776 11.9208C7.61353 11.1263 7.73953 10.5835 7.92465 10.1086C8.11598 9.61766 8.3711 9.20108 8.78643 8.78605C9.20146 8.37087 9.61804 8.11576 10.1091 7.92505C10.5839 7.7404 11.1265 7.61455 11.9214 7.57815Z" fill="#FECA3E"/>
<path fill-rule="evenodd" clip-rule="evenodd" d="M14.3305 8.87855C14.4606 8.87834 14.6005 8.8784 14.7515 8.87847L15.0004 8.87855C16.994 8.87855 17.2303 8.8857 18.0176 8.92148C18.7456 8.95477 19.1407 9.07641 19.4039 9.17862C19.7523 9.31395 20.0008 9.47573 20.2619 9.73707C20.5233 9.9984 20.6851 10.2473 20.8207 10.5957C20.9229 10.8586 21.0447 11.2537 21.0778 11.9818C21.1136 12.7689 21.1214 13.0053 21.1214 14.998C21.1214 16.9907 21.1136 17.2271 21.0778 18.0143C21.0445 18.7423 20.9229 19.1374 20.8207 19.4003C20.6854 19.7487 20.5233 19.9968 20.2619 20.258C20.0006 20.5194 19.7525 20.6811 19.4039 20.8165C19.141 20.9191 18.7456 21.0405 18.0176 21.0738C17.2304 21.1095 16.994 21.1173 15.0004 21.1173C13.0066 21.1173 12.7703 21.1095 11.9832 21.0738C11.2552 21.0402 10.8601 20.9185 10.5967 20.8163C10.2483 20.681 9.99937 20.5192 9.73803 20.2579C9.47669 19.9965 9.31491 19.7483 9.17927 19.3997C9.07707 19.1368 8.95527 18.7416 8.92213 18.0136C8.88635 17.2265 8.8792 16.9901 8.8792 14.9961C8.8792 13.0022 8.88635 12.767 8.92213 11.9799C8.95542 11.2519 9.07707 10.8568 9.17927 10.5936C9.3146 10.2451 9.47669 9.99622 9.73803 9.73489C9.99937 9.47355 10.2483 9.31177 10.5967 9.17613C10.8599 9.07346 11.2552 8.95212 11.9832 8.91868C12.672 8.88757 12.9389 8.87823 14.3305 8.87668V8.87855ZM18.9867 10.119C18.492 10.119 18.0907 10.5199 18.0907 11.0147C18.0907 11.5094 18.492 11.9107 18.9867 11.9107C19.4813 11.9107 19.8827 11.5094 19.8827 11.0147C19.8827 10.52 19.4813 10.119 18.9867 10.119ZM11.1661 14.9999C11.1661 12.8824 12.8829 11.1655 15.0004 11.1654C17.118 11.1654 18.8345 12.8823 18.8345 14.9999C18.8345 17.1175 17.1182 18.8336 15.0006 18.8336C12.883 18.8336 11.1661 17.1175 11.1661 14.9999Z" fill="#FECA3E"/>
<path fill-rule="evenodd" clip-rule="evenodd" d="M15.0004 12.5112C16.3749 12.5112 17.4893 13.6255 17.4893 15.0001C17.4893 16.3746 16.3749 17.4891 15.0004 17.4891C13.6257 17.4891 12.5115 16.3746 12.5115 15.0001C12.5115 13.6255 13.6257 12.5112 15.0004 12.5112Z" fill="#FECA3E"/>
<path fill-rule="evenodd" clip-rule="evenodd" d="M15 1C7.26801 1 1 7.26801 1 15C1 22.732 7.26801 29 15 29C22.732 29 29 22.732 29 15C29 7.26801 22.732 1 15 1ZM11.9214 7.57815C12.7178 7.54191 12.9723 7.53304 15.0002 7.53304H14.9978C17.0263 7.53304 17.2799 7.54191 18.0763 7.57815C18.8712 7.61455 19.4141 7.7404 19.8901 7.92505C20.3817 8.1156 20.797 8.37072 21.2123 8.78605C21.6277 9.20108 21.8828 9.61766 22.0741 10.1088C22.2577 10.5835 22.3837 11.1261 22.421 11.921C22.4568 12.7174 22.4661 12.9719 22.4661 14.9998C22.4661 17.0276 22.4568 17.2815 22.421 18.0779C22.3837 18.8725 22.2577 19.4153 22.0741 19.8902C21.8828 20.3811 21.6277 20.7977 21.2123 21.2127C20.7975 21.6281 20.3815 21.8838 19.8906 22.0745C19.4155 22.2592 18.8723 22.385 18.0774 22.4214C17.2809 22.4577 17.0272 22.4665 14.9992 22.4665C12.9715 22.4665 12.7172 22.4577 11.9208 22.4214C11.126 22.385 10.5833 22.2592 10.1082 22.0745C9.61742 21.8838 9.20084 21.6281 8.78597 21.2127C8.37079 20.7977 8.11567 20.3811 7.9248 19.89C7.74031 19.4153 7.61447 18.8727 7.57791 18.0778C7.54182 17.2813 7.5328 17.0276 7.5328 14.9998C7.5328 12.9719 7.54213 12.7173 7.57776 11.9208C7.61353 11.1263 7.73953 10.5835 7.92465 10.1086C8.11598 9.61766 8.3711 9.20108 8.78643 8.78605C9.20146 8.37087 9.61804 8.11576 10.1091 7.92505C10.5839 7.7404 11.1265 7.61455 11.9214 7.57815Z" stroke="#331C00" stroke-width="0.2625"/>
<path fill-rule="evenodd" clip-rule="evenodd" d="M14.3305 8.87855C14.4606 8.87834 14.6005 8.8784 14.7515 8.87847L15.0004 8.87855C16.994 8.87855 17.2303 8.8857 18.0176 8.92148C18.7456 8.95477 19.1407 9.07641 19.4039 9.17862C19.7523 9.31395 20.0008 9.47573 20.2619 9.73707C20.5233 9.9984 20.6851 10.2473 20.8207 10.5957C20.9229 10.8586 21.0447 11.2537 21.0778 11.9818C21.1136 12.7689 21.1214 13.0053 21.1214 14.998C21.1214 16.9907 21.1136 17.2271 21.0778 18.0143C21.0445 18.7423 20.9229 19.1374 20.8207 19.4003C20.6854 19.7487 20.5233 19.9968 20.2619 20.258C20.0006 20.5194 19.7525 20.6811 19.4039 20.8165C19.141 20.9191 18.7456 21.0405 18.0176 21.0738C17.2304 21.1095 16.994 21.1173 15.0004 21.1173C13.0066 21.1173 12.7703 21.1095 11.9832 21.0738C11.2552 21.0402 10.8601 20.9185 10.5967 20.8163C10.2483 20.681 9.99937 20.5192 9.73803 20.2579C9.47669 19.9965 9.31491 19.7483 9.17927 19.3997C9.07707 19.1368 8.95527 18.7416 8.92213 18.0136C8.88635 17.2265 8.8792 16.9901 8.8792 14.9961C8.8792 13.0022 8.88635 12.767 8.92213 11.9799C8.95542 11.2519 9.07707 10.8568 9.17927 10.5936C9.3146 10.2451 9.47669 9.99622 9.73803 9.73489C9.99937 9.47355 10.2483 9.31177 10.5967 9.17613C10.8599 9.07346 11.2552 8.95212 11.9832 8.91868C12.672 8.88757 12.9389 8.87823 14.3305 8.87668V8.87855ZM18.9867 10.119C18.492 10.119 18.0907 10.5199 18.0907 11.0147C18.0907 11.5094 18.492 11.9107 18.9867 11.9107C19.4813 11.9107 19.8827 11.5094 19.8827 11.0147C19.8827 10.52 19.4813 10.119 18.9867 10.119ZM11.1661 14.9999C11.1661 12.8824 12.8829 11.1655 15.0004 11.1654C17.118 11.1654 18.8345 12.8823 18.8345 14.9999C18.8345 17.1175 17.1182 18.8336 15.0006 18.8336C12.883 18.8336 11.1661 17.1175 11.1661 14.9999Z" stroke="#331C00" stroke-width="0.2625"/>
<path fill-rule="evenodd" clip-rule="evenodd" d="M15.0004 12.5112C16.3749 12.5112 17.4893 13.6255 17.4893 15.0001C17.4893 16.3746 16.3749 17.4891 15.0004 17.4891C13.6257 17.4891 12.5115 16.3746 12.5115 15.0001C12.5115 13.6255 13.6257 12.5112 15.0004 12.5112Z" stroke="#331C00" stroke-width="0.2625"/>
</svg>
