<svg width="48" height="48" viewBox="0 0 48 48" fill="none" xmlns="http://www.w3.org/2000/svg">
<circle opacity="0.08" cx="24" cy="24" r="24" fill="#E2C761"/>
<path d="M24.4056 32.6877C20.571 32.6693 17.2142 29.9258 16.4563 26.1571C15.6148 21.9757 18.2507 17.3399 22.8552 16.4655C25.626 15.9388 28.086 16.663 30.1614 18.61C30.3405 18.7778 30.4649 18.9593 30.3694 19.2186C30.2409 19.5679 29.8371 19.6449 29.5392 19.3591C28.9635 18.8067 28.3269 18.3435 27.6075 17.9998C23.4261 16.0007 18.4225 18.3322 17.4069 23.054C16.5831 26.8845 19.1845 30.8227 23.027 31.5846C27.2189 32.4156 30.6416 29.7042 31.5079 26.0503C31.8965 24.41 31.6966 22.8292 30.9491 21.3173C30.7331 20.8798 30.9579 20.4695 31.3834 20.5418C31.5328 20.5675 31.7222 20.7056 31.7849 20.8428C33.1723 23.8769 33.0109 26.7866 30.9507 29.469C29.5183 31.3341 27.581 32.381 25.2462 32.6781C25.1964 32.6845 25.1467 32.6877 25.0961 32.6877C24.8656 32.6886 24.636 32.6877 24.4056 32.6877Z" fill="url(#paint0_linear_26_622)"/>
<path d="M32.4133 14.8553C31.38 13.9914 30.3202 13.3299 29.1448 12.8915C24.7755 11.26 20.6439 11.6695 16.9025 14.5502C14.1767 16.6498 12.5733 19.4671 12.0635 22.8842C11.7287 25.1298 12.0354 27.2944 12.9411 29.3779C13.0077 29.5312 13.051 29.756 12.986 29.8877C12.917 30.0282 12.7146 30.1567 12.5525 30.1848C12.3244 30.2241 12.1582 30.0499 12.0868 29.8347C11.817 29.0198 11.471 28.2177 11.308 27.3803C10.3205 22.3029 11.7062 17.9585 15.487 14.4322C17.3778 12.6699 19.6499 11.6005 22.2007 11.1918C26.2119 10.5495 29.8136 11.5242 32.9922 14.0597C33.0227 14.0838 33.0572 14.1022 33.148 14.1608C33.148 14.0236 33.148 13.9312 33.148 13.8381C33.148 13.0954 33.1456 12.3528 33.1496 11.6109C33.1512 11.2263 33.3262 11.0103 33.6241 11.0063C33.9292 11.0015 34.1203 11.2368 34.1203 11.627C34.1219 12.8208 34.1227 14.0147 34.1203 15.2086C34.1195 15.6406 33.9468 15.8156 33.5253 15.8164C32.3138 15.818 31.1022 15.818 29.8907 15.8164C29.5238 15.8164 29.3246 15.651 29.3174 15.3507C29.3102 15.0328 29.5101 14.8569 29.8923 14.8569C30.7024 14.8553 31.5125 14.8569 32.4133 14.8569V14.8553Z" fill="url(#paint1_linear_26_622)"/>
<path d="M15.7567 34.8414C15.7567 35.6162 15.7567 36.3556 15.7567 37.0959C15.7567 37.226 15.7615 37.3576 15.7518 37.4869C15.7302 37.7767 15.5407 37.9678 15.2806 37.9718C15.014 37.9759 14.7996 37.7679 14.7876 37.4708C14.7755 37.1802 14.7844 36.8888 14.7844 36.5981C14.7844 35.6652 14.7836 34.7314 14.7844 33.7985C14.7844 33.3264 14.9466 33.1626 15.4098 33.1618C16.6318 33.161 17.8538 33.1626 19.0758 33.1602C19.3287 33.1602 19.5061 33.271 19.572 33.511C19.6322 33.7334 19.5695 33.9398 19.3552 34.0514C19.2548 34.1036 19.1264 34.1188 19.0099 34.1196C18.2006 34.1252 17.3913 34.1228 16.4977 34.1228C16.6479 34.2489 16.7386 34.3316 16.8357 34.4054C18.8221 35.9173 21.0533 36.7635 23.5454 36.9715C30.4309 37.5463 35.7902 32.3541 36.7857 26.4641C37.1856 24.0973 36.9198 21.8155 35.9684 19.6116C35.9042 19.463 35.8431 19.2559 35.8993 19.1282C35.9644 18.9813 36.1458 18.8352 36.3048 18.7926C36.5272 18.7332 36.7151 18.8833 36.7954 19.1001C37.0491 19.7842 37.3413 20.4594 37.5276 21.1619C39.4079 28.2754 34.687 36.0851 27.5028 37.6507C23.2957 38.5676 19.4451 37.6764 16.0304 35.01C15.975 34.9667 15.9213 34.9225 15.8642 34.8807C15.849 34.8695 15.8281 34.8663 15.7559 34.8406L15.7567 34.8414Z" fill="url(#paint2_linear_26_622)"/>
<path d="M22.2091 26.5444C22.0161 26.5444 21.8597 26.388 21.8597 26.195C21.8597 26.002 22.0161 25.8456 22.2091 25.8456H23.6067C24.4002 25.8456 24.9862 25.6782 25.3647 25.3433C25.7505 25.0084 25.9435 24.5717 25.9435 24.033C25.9435 23.4288 25.7396 22.952 25.332 22.6026C24.9316 22.2459 24.3383 22.0712 23.5522 22.0785L21.1231 22.0884C20.9873 22.0889 20.877 21.979 20.877 21.8432C20.877 21.7078 20.9867 21.598 21.1221 21.598H27.6687C27.8014 21.598 27.9089 21.7056 27.9089 21.8382C27.9089 21.9709 27.8014 22.0785 27.6687 22.0785H25.2158C25.1237 22.0785 25.0787 21.9661 25.1454 21.9026C25.1728 21.8764 25.2126 21.8676 25.2483 21.8804C25.7571 22.0631 26.1308 22.3439 26.3693 22.7227C26.6168 23.1085 26.7406 23.5489 26.7406 24.0439C26.7406 24.5608 26.6168 25.0084 26.3693 25.387C26.1218 25.7582 25.7651 26.0458 25.2992 26.2496C24.8333 26.4461 24.2765 26.5444 23.6286 26.5444H22.2091ZM26.1856 29.2415C26.0617 29.2415 25.946 29.1793 25.8777 29.0759L24.3671 26.7892C24.205 26.5439 24.3809 26.2168 24.6749 26.2168C24.7988 26.2168 24.9145 26.279 24.9828 26.3824L26.4935 28.6691C26.6555 28.9144 26.4796 29.2415 26.1856 29.2415ZM21.1226 23.6072C20.9869 23.6072 20.877 23.4972 20.877 23.3615C20.877 23.2258 20.9869 23.1158 21.1226 23.1158H27.6632C27.7989 23.1158 27.9089 23.2258 27.9089 23.3615C27.9089 23.4972 27.7989 23.6072 27.6632 23.6072H21.1226Z" fill="url(#paint3_linear_26_622)"/>
<defs>
<linearGradient id="paint0_linear_26_622" x1="24.4942" y1="16.299" x2="24.4942" y2="32.6881" gradientUnits="userSpaceOnUse">
<stop stop-color="#E2C761"/>
<stop offset="1" stop-color="#A3781A"/>
</linearGradient>
<linearGradient id="paint1_linear_26_622" x1="22.5609" y1="11" x2="22.5609" y2="30.1903" gradientUnits="userSpaceOnUse">
<stop stop-color="#E2C761"/>
<stop offset="1" stop-color="#A3781A"/>
</linearGradient>
<linearGradient id="paint2_linear_26_622" x1="26.3617" y1="18.7795" x2="26.3617" y2="37.9999" gradientUnits="userSpaceOnUse">
<stop stop-color="#E2C761"/>
<stop offset="1" stop-color="#A3781A"/>
</linearGradient>
<linearGradient id="paint3_linear_26_622" x1="24.3929" y1="21.598" x2="24.3929" y2="29.2415" gradientUnits="userSpaceOnUse">
<stop stop-color="#E2C761"/>
<stop offset="1" stop-color="#A3781A"/>
</linearGradient>
</defs>
</svg>
