<svg width="48" height="48" viewBox="0 0 48 48" fill="none" xmlns="http://www.w3.org/2000/svg">
<circle opacity="0.08" cx="24" cy="24" r="24" fill="#E2C761"/>
<path d="M21.7366 11C22.0699 11 22.4032 11 22.7365 11C22.7927 11.0183 22.8476 11.0436 22.9052 11.0541C23.5092 11.1596 24.057 11.3959 24.5661 11.739C24.6997 11.829 24.8818 11.8909 25.0414 11.8916C28.7323 11.9 32.4239 11.8972 36.1148 11.8986C36.9853 11.8986 37.659 12.4176 37.8952 13.2564C37.9065 13.2972 37.9304 13.3345 37.948 13.3732V32.0421C37.936 32.0548 37.9184 32.0653 37.9135 32.0801C37.5809 33.0863 36.998 33.511 35.9482 33.511C33.5131 33.511 31.0774 33.511 28.6423 33.511H28.2929C28.4665 33.9484 28.6219 34.3555 28.7949 34.7535C28.8174 34.8048 28.9362 34.8365 29.0115 34.8379C29.4496 34.8456 29.8876 34.8351 30.3257 34.8442C30.9972 34.8583 31.5358 35.3188 31.6357 35.9826C31.6772 36.2583 31.6533 36.5423 31.6737 36.8215C31.713 37.3686 31.5211 37.7771 31.0007 38H17.9465C17.5556 37.8172 17.2863 37.5429 17.2771 37.0831C17.2708 36.7842 17.2652 36.4847 17.2785 36.1865C17.3151 35.3983 17.8903 34.8484 18.6785 34.8414C19.0997 34.8379 19.5209 34.8435 19.9414 34.8372C20.0117 34.8365 20.1249 34.814 20.1446 34.7697C20.3197 34.3632 20.4779 33.9498 20.653 33.5089C20.5039 33.5089 20.3999 33.5089 20.2951 33.5089C17.8389 33.5089 15.3828 33.5096 12.9267 33.5089C11.758 33.5103 11 32.7516 11 31.5851C11 25.6616 11 19.7382 11 13.8148C11 12.6531 11.7482 11.8993 12.9021 11.8986C15.0333 11.8979 17.1653 11.8951 19.2966 11.9022C19.5511 11.9029 19.7558 11.8417 19.9752 11.7011C20.2958 11.495 20.6537 11.341 21.0081 11.1962C21.2394 11.102 21.4933 11.0633 21.7366 11ZM25.6651 12.7987C25.836 13.2473 26.0793 13.658 26.1384 14.0939C26.2417 14.8547 26.2445 15.631 26.2635 16.401C26.2769 16.9516 25.9998 17.3453 25.5252 17.6175C25.4345 17.6695 25.3445 17.7848 25.3241 17.8847C25.1842 18.5702 24.879 19.17 24.3446 19.6144C24.0865 19.8282 24.0071 20.0462 24.031 20.3542C24.0422 20.4983 24.0746 20.5693 24.2265 20.6073C24.7946 20.7507 25.3593 20.9075 25.9232 21.0651C26.9723 21.3583 27.7008 22.0171 28.1086 23.0262C28.2957 23.4889 28.4609 23.9607 28.6374 24.4276C28.6662 24.5035 28.7014 24.5766 28.7415 24.6681C29.0818 24.3854 29.3877 24.1224 29.7048 23.8735C29.8194 23.7842 29.9593 23.6752 30.0908 23.6717C30.3735 23.6639 30.5458 23.5057 30.6998 23.3152C30.8974 23.0698 31.0928 22.8201 31.2553 22.5515C31.4212 22.2766 31.6287 22.0593 31.9261 21.9503C32.0836 21.8927 32.1117 21.8048 32.111 21.6571C32.1061 20.7254 32.1082 19.7937 32.1082 18.8628C32.1082 18.4148 32.2566 18.1947 32.5589 18.1955C32.8599 18.1955 33.0068 18.4141 33.0068 18.8649C33.0068 19.857 33.0068 20.8499 33.0068 21.7422C33.3387 21.9974 33.6594 22.1669 33.8767 22.425C34.532 23.2027 34.1699 24.3671 33.1988 24.763C32.8212 24.917 32.464 25.1251 32.1054 25.3227C32.033 25.3628 31.995 25.4661 31.9423 25.5414C31.8192 25.7165 31.7306 25.9359 31.5696 26.0603C30.6034 26.8036 29.6239 27.5299 28.6423 28.2528C27.8618 28.828 26.7825 28.5678 26.3247 27.705C26.1784 27.4294 26.0329 27.1537 25.8501 26.8092V29.8715H37.0514V29.567C37.0514 24.3467 37.0514 19.1264 37.0514 13.9069C37.0514 13.1341 36.7181 12.8008 35.9454 12.8008C32.6039 12.8008 29.2618 12.8008 25.9204 12.8008C25.8332 12.8008 25.7467 12.8008 25.6658 12.8008L25.6651 12.7987ZM16.3778 29.8778C16.3778 29.7428 16.3778 29.638 16.3778 29.5339C16.3778 27.7324 16.3729 25.9316 16.3792 24.1301C16.3855 22.4897 17.4149 21.2134 18.9992 20.8597C19.4731 20.7536 19.9463 20.6425 20.4238 20.5328C20.4238 20.3387 20.4329 20.1713 20.4196 20.0061C20.4139 19.9379 20.3767 19.8521 20.3246 19.8113C19.6728 19.3036 19.2839 18.6399 19.1145 17.8347C19.0969 17.7518 19.0118 17.661 18.9338 17.6175C18.5133 17.3847 18.2264 17.0444 18.2025 16.562C18.1722 15.9404 18.1849 15.316 18.2067 14.6937C18.2285 14.0869 18.4359 13.5286 18.7355 13.0033C18.7685 12.9456 18.7945 12.8845 18.8367 12.798C18.72 12.798 18.6342 12.798 18.5484 12.798C16.6893 12.798 14.8301 12.798 12.971 12.798C12.2383 12.798 11.8951 13.1439 11.8951 13.8809C11.8951 19.1173 11.8951 24.3544 11.8951 29.5909V29.8764H16.3771L16.3778 29.8778ZM18.9099 21.842C18.8388 21.861 18.796 21.8681 18.7566 21.8842C17.8586 22.2386 17.3031 23.0803 17.2996 24.1182C17.294 25.9541 17.2975 27.7908 17.2982 29.6275C17.2982 29.7104 17.3067 29.7941 17.3102 29.8693H18.6321C18.6321 29.7533 18.6321 29.6577 18.6321 29.5621C18.6321 28.0861 18.6321 26.6102 18.6321 25.1335C18.6321 25.0548 18.6272 24.9746 18.6363 24.8966C18.6645 24.6652 18.855 24.5007 19.0857 24.5021C19.3219 24.5035 19.4998 24.6624 19.5244 24.9029C19.5336 24.9901 19.5308 25.0787 19.5308 25.1659C19.5308 26.6334 19.5308 28.1002 19.5308 29.5677C19.5308 29.6696 19.5308 29.7709 19.5308 29.8679H24.9106C24.9106 29.7414 24.9106 29.6366 24.9106 29.5318C24.9106 28.0559 24.9113 26.58 24.9106 25.1033C24.9106 24.8938 24.9339 24.6969 25.1272 24.5689C25.3663 24.4107 25.6419 24.4993 25.8023 24.7974C26.2389 25.6082 26.6693 26.4217 27.1024 27.2339C27.333 27.6663 27.7648 27.7655 28.1614 27.4758C28.2886 27.383 28.4152 27.288 28.5418 27.1938C29.3553 26.5877 30.1682 25.9816 30.9979 25.3628C30.7469 25.0921 30.5106 24.8382 30.2687 24.5773C29.9418 24.8396 29.6429 25.0836 29.3399 25.3206C28.7513 25.7819 28.1114 25.604 27.847 24.9071C27.6516 24.391 27.468 23.8707 27.2627 23.3581C26.9779 22.6472 26.4632 22.181 25.7305 21.951C25.5723 21.9011 25.5147 21.9391 25.4261 22.0769C25.1673 22.4805 24.9008 22.8841 24.5907 23.247C24.4219 23.4446 24.1723 23.5901 23.9325 23.704C23.6703 23.8285 23.5753 23.9234 23.6182 24.2265C23.7462 25.1293 23.8784 26.0315 24.0113 26.9336C24.064 27.2923 23.9375 27.5728 23.645 27.7753C23.3278 27.9947 23.0065 28.2078 22.6816 28.4159C22.3793 28.61 22.0692 28.6086 21.7675 28.4124C21.437 28.1972 21.1065 27.9806 20.7838 27.7549C20.5089 27.5623 20.3928 27.2859 20.4329 26.954C20.4667 26.6756 20.5201 26.3999 20.5616 26.1222C20.6551 25.5069 20.75 24.8917 20.8379 24.275C20.8865 23.9354 20.7993 23.8144 20.4864 23.6977C20.3577 23.6499 20.2332 23.576 20.1249 23.4903C19.5772 23.0571 19.1911 22.4988 18.9085 21.8406L18.9099 21.842ZM11.9036 30.827C11.9036 31.1618 11.8804 31.4782 11.9092 31.7897C11.945 32.1722 12.1665 32.4422 12.5371 32.5533C12.6841 32.5976 12.8493 32.5906 13.0068 32.5906C20.653 32.592 28.2992 32.592 35.9447 32.592C36.0326 32.592 36.1204 32.592 36.2076 32.5857C36.6267 32.554 36.9523 32.303 37.0099 31.8846C37.0564 31.5429 37.0191 31.1899 37.0191 30.827H11.9036ZM22.2126 19.5455C23.4066 19.549 24.3713 18.6391 24.4684 17.4171C24.5021 16.9945 24.557 16.9305 24.9648 16.8454C25.2088 16.7941 25.3705 16.6126 25.3677 16.3947C25.3649 16.1725 25.1989 15.9967 24.9542 15.9566C24.6097 15.8996 24.519 15.8096 24.4733 15.4784C24.417 15.0706 24.083 14.8948 23.7251 15.0945C22.7231 15.6535 21.7267 15.6542 20.7247 15.0924C20.3746 14.8962 20.056 15.0622 19.992 15.4595C19.9407 15.7773 19.8254 15.8961 19.5068 15.9559C19.2396 16.0065 19.1018 16.1521 19.0969 16.389C19.092 16.6344 19.2389 16.7983 19.5111 16.8489C19.8739 16.9171 19.9794 17.0395 19.9941 17.4128C20.042 18.5892 21.0327 19.542 22.2119 19.5455H22.2126ZM30.7497 37.0901C30.7497 36.8538 30.7497 36.6436 30.7497 36.4334C30.7497 35.8575 30.6499 35.7555 30.0782 35.7555C26.343 35.7555 22.6078 35.7555 18.8733 35.7562C18.7601 35.7562 18.6237 35.7316 18.5379 35.7843C18.4085 35.8631 18.2383 35.989 18.2208 36.1141C18.1758 36.4291 18.206 36.7554 18.206 37.0894H30.7504L30.7497 37.0901ZM25.3283 15.0713C25.3164 13.8316 24.796 12.8711 23.7103 12.2882C22.5965 11.6898 21.4764 11.7615 20.435 12.4809C19.5519 13.0905 19.1187 13.9596 19.1152 15.0361C19.1574 15.0031 19.1806 14.9602 19.2024 14.9159C19.5666 14.1656 20.4062 13.8752 21.129 14.2788C21.8786 14.6965 22.6022 14.6853 23.3475 14.2697C24.0141 13.8984 24.8417 14.1565 25.2053 14.821C25.2496 14.9025 25.2875 14.9876 25.3283 15.0713ZM27.8379 34.8344C27.6691 34.409 27.5201 34.0166 27.3541 33.632C27.3288 33.5743 27.2248 33.5166 27.1565 33.5166C25.3677 33.5103 23.5782 33.511 21.7893 33.5159C21.7246 33.5159 21.6234 33.5588 21.6023 33.6081C21.4321 34.0067 21.2767 34.4125 21.1094 34.8351H27.8379V34.8344ZM22.7315 24.5162H21.7183C21.5988 25.3255 21.4771 26.1201 21.3688 26.9175C21.3604 26.9815 21.4202 27.0792 21.4778 27.1235C21.9508 27.4835 22.4348 27.4969 22.9298 27.1636C22.9587 27.1439 22.9995 27.1305 23.0142 27.1031C23.0487 27.0405 23.1021 26.9667 23.093 26.9048C22.9784 26.1095 22.8539 25.315 22.7315 24.5169V24.5162ZM31.1878 24.2138C31.2876 24.32 31.4163 24.4564 31.4993 24.5443C31.9767 24.3228 32.4155 24.114 32.8599 23.9157C33.1278 23.7961 33.2895 23.5789 33.2818 23.311C33.274 23.0459 33.1053 22.8412 32.8142 22.7456C32.5505 22.6584 32.2355 22.7301 32.0977 22.9228C31.7939 23.3468 31.4965 23.775 31.1871 24.2138H31.1878ZM21.3449 20.3956C21.2296 20.7669 21.456 20.9863 21.7584 21.1769C22.1395 21.4159 22.4798 21.3301 22.8258 21.0911C23.1042 20.8984 23.1703 20.6558 23.1 20.3963H21.3442L21.3449 20.3956ZM21.321 22.0059C21.1283 21.8371 20.949 21.6726 20.7599 21.52C20.7057 21.4764 20.6207 21.4342 20.5588 21.4448C20.312 21.4877 20.0694 21.5509 19.8106 21.6107C20.0089 22.0973 20.312 22.4742 20.6945 22.7899C20.8372 22.908 20.9448 22.868 21.0165 22.695C21.1129 22.4622 21.2205 22.2337 21.321 22.0066V22.0059ZM24.6188 21.6606C24.3594 21.5875 24.1104 21.5116 23.858 21.4504C23.8123 21.4391 23.742 21.4743 23.6998 21.5087C23.5057 21.6705 23.318 21.8399 23.1295 22.0052C23.2224 22.214 23.325 22.4348 23.4185 22.6598C23.5128 22.8855 23.5992 22.9172 23.7891 22.7625C24.1484 22.4693 24.4205 22.1085 24.6181 21.6606H24.6188ZM22.2583 22.3322C22.1775 22.4229 22.1339 22.4559 22.1107 22.5002C21.9496 22.8082 21.7879 23.1162 21.6438 23.4319C21.6304 23.46 21.7345 23.5908 21.7886 23.5936C22.0762 23.6105 22.3659 23.6049 22.6542 23.6007C22.8525 23.5978 22.8785 23.5142 22.7716 23.3503C22.6872 23.2202 22.6296 23.0726 22.5593 22.9327C22.4665 22.7477 22.3736 22.5628 22.2576 22.3322H22.2583Z" fill="url(#paint0_linear_26_599)"/>
<defs>
<linearGradient id="paint0_linear_26_599" x1="24.474" y1="11" x2="24.474" y2="38" gradientUnits="userSpaceOnUse">
<stop stop-color="#E2C761"/>
<stop offset="1" stop-color="#A3781A"/>
</linearGradient>
</defs>
</svg>
