<svg width="48" height="48" viewBox="0 0 48 48" fill="none" xmlns="http://www.w3.org/2000/svg">
<circle opacity="0.08" cx="24" cy="24" r="24" fill="#E2C761"/>
<path d="M35.7012 38C35.3071 37.8698 35.0144 37.6025 34.7274 37.314C33.3426 35.9187 31.9495 34.5319 30.5598 33.1408C30.4923 33.0733 30.4374 32.9931 30.4114 32.9607C29.648 33.3878 28.9514 33.8318 28.2105 34.1815C26.208 35.1264 24.0901 35.4635 21.8878 35.2482C16.6402 34.7345 12.244 30.7549 11.2146 25.591C11.1365 25.1998 11.0711 24.8051 11 24.4118C11 23.5864 11 22.7618 11 21.9364C11.0795 21.491 11.1337 21.0393 11.242 20.6003C12.3925 15.9275 15.2407 12.7789 19.8726 11.4694C26.7519 9.52533 33.4728 13.8329 34.9603 20.456C35.7476 23.9621 35.0742 27.203 33.0457 30.1645C33.0014 30.2293 32.9564 30.2933 32.9015 30.3728C32.9683 30.4446 33.0309 30.5149 33.0971 30.5811C34.5486 32.034 36.0009 33.4856 37.4518 34.9386C38.1561 35.6436 38.154 36.3936 37.4497 37.098C37.0986 37.4484 36.7763 37.8361 36.281 38H35.7019H35.7012ZM34.365 23.1931C34.3931 17.0259 29.3658 11.9605 23.1873 11.931C17.0019 11.9014 11.9344 16.921 11.8985 23.1136C11.8619 29.3124 16.8815 34.3841 23.136 34.394C29.3574 34.4038 34.3312 29.3997 34.3657 23.1931H34.365ZM31.0932 32.4055C31.3613 32.6687 31.6575 32.9537 31.9481 33.2443C33.1583 34.4531 34.3664 35.6633 35.5766 36.8721C35.8799 37.1747 36.079 37.1733 36.3802 36.8763C36.5174 36.7412 36.6539 36.604 36.7897 36.4675C37.152 36.1045 37.1541 35.9278 36.7967 35.5697C35.3712 34.1428 33.9449 32.7158 32.518 31.2896C32.4533 31.2249 32.3843 31.1651 32.3625 31.1447C31.9347 31.5689 31.5308 31.9707 31.0932 32.4048V32.4055Z" fill="url(#paint0_linear_26_552)"/>
<path d="M23.1366 33.5468C18.2704 33.5313 13.9347 29.9787 13.0067 25.2089C12.0167 20.1197 14.8143 15.1753 19.6868 13.4191C20.7331 13.042 21.8174 12.8513 22.9305 12.8302C23.3646 12.8217 23.5736 12.9632 23.5855 13.2615C23.5982 13.5662 23.4033 13.7231 22.9692 13.735C21.4086 13.7773 19.9317 14.1424 18.5751 14.9192C15.9612 16.4151 14.3449 18.6442 13.844 21.6191C13.0953 26.0631 15.5003 30.3116 19.7199 31.9594C25.2552 34.1216 31.2627 30.7126 32.3934 25.0056C33.3637 20.1091 30.3557 15.3456 25.6084 14.065C25.5156 14.0397 25.422 14.0172 25.3298 13.9905C25.0223 13.9018 24.8711 13.69 24.9351 13.4402C25.0054 13.1651 25.2503 13.0131 25.5507 13.118C26.3254 13.3875 27.1353 13.6007 27.8537 13.982C31.02 15.6615 32.9014 18.2952 33.3806 21.8534C34.1109 27.2769 30.4613 32.2789 25.0653 33.3111C24.4306 33.4321 23.7804 33.4708 23.1373 33.5475L23.1366 33.5468Z" fill="url(#paint1_linear_26_552)"/>
<path d="M23.1225 27.6716C21.1573 27.6716 19.1921 27.6738 17.2269 27.6681C17.0453 27.6681 16.8546 27.6505 16.6851 27.5921C15.9793 27.3501 15.7394 26.5972 16.156 25.9407C17.4464 23.9052 18.7403 21.8724 20.0329 19.839C20.7147 18.7667 21.3944 17.6929 22.0783 16.622C22.6363 15.7482 23.6354 15.7453 24.1927 16.6206C26.16 19.7109 28.1231 22.8047 30.0925 25.8936C30.338 26.2785 30.4288 26.6669 30.1959 27.0792C29.9574 27.5014 29.5732 27.6723 29.0983 27.6716C27.1063 27.6702 25.1151 27.6716 23.1232 27.6716H23.1225ZM23.1408 26.7591C25.1067 26.7591 27.0726 26.7612 29.0385 26.7541C29.1567 26.7541 29.2749 26.6817 29.3931 26.643C29.3551 26.5346 29.3354 26.4136 29.2756 26.3186C27.3421 23.2677 25.405 20.2196 23.4679 17.1716C23.2174 16.7768 23.0542 16.7747 22.8065 17.1638C21.7856 18.7695 20.7653 20.3751 19.7451 21.9808C18.8142 23.4457 17.8826 24.9107 16.9517 26.3763C16.7829 26.6415 16.842 26.7464 17.1628 26.7591C17.2332 26.7619 17.3035 26.7598 17.3732 26.7598C19.2955 26.7598 21.2178 26.7598 23.1393 26.7598L23.1408 26.7591Z" fill="url(#paint2_linear_26_552)"/>
<path d="M22.687 21.3742C22.687 20.8043 22.6848 20.2337 22.687 19.6638C22.6884 19.326 22.8516 19.1283 23.1253 19.1227C23.4096 19.117 23.5848 19.3225 23.5855 19.6701C23.5869 20.8191 23.5841 21.9681 23.5869 23.1171C23.5869 23.3704 23.4757 23.5442 23.2351 23.6061C23.0275 23.6589 22.8453 23.5822 22.7489 23.3866C22.701 23.2902 22.6905 23.1685 22.6891 23.058C22.6834 22.4965 22.6863 21.935 22.6863 21.3742H22.687Z" fill="url(#paint3_linear_26_552)"/>
<path d="M22.6895 24.9542C22.6853 24.6784 22.8682 24.475 23.1258 24.4694C23.3791 24.4638 23.5824 24.6678 23.5866 24.9338C23.5916 25.2068 23.4065 25.408 23.1469 25.413C22.8795 25.4179 22.6937 25.2314 22.6902 24.9542H22.6895Z" fill="url(#paint4_linear_26_552)"/>
<defs>
<linearGradient id="paint0_linear_26_552" x1="24.4895" y1="11" x2="24.4895" y2="38" gradientUnits="userSpaceOnUse">
<stop stop-color="#E2C761"/>
<stop offset="1" stop-color="#A3781A"/>
</linearGradient>
<linearGradient id="paint1_linear_26_552" x1="23.1411" y1="12.8298" x2="23.1411" y2="33.5475" gradientUnits="userSpaceOnUse">
<stop stop-color="#E2C761"/>
<stop offset="1" stop-color="#A3781A"/>
</linearGradient>
<linearGradient id="paint2_linear_26_552" x1="23.141" y1="15.9654" x2="23.141" y2="27.672" gradientUnits="userSpaceOnUse">
<stop stop-color="#E2C761"/>
<stop offset="1" stop-color="#A3781A"/>
</linearGradient>
<linearGradient id="paint3_linear_26_552" x1="23.1362" y1="19.1226" x2="23.1362" y2="23.6223" gradientUnits="userSpaceOnUse">
<stop stop-color="#E2C761"/>
<stop offset="1" stop-color="#A3781A"/>
</linearGradient>
<linearGradient id="paint4_linear_26_552" x1="23.1381" y1="24.4693" x2="23.1381" y2="25.4131" gradientUnits="userSpaceOnUse">
<stop stop-color="#E2C761"/>
<stop offset="1" stop-color="#A3781A"/>
</linearGradient>
</defs>
</svg>
