<svg width="48" height="48" viewBox="0 0 48 48" fill="none" xmlns="http://www.w3.org/2000/svg">
<circle opacity="0.08" cx="24" cy="24" r="24" fill="#E2C761"/>
<path d="M16.1793 37.7143C15.8566 37.6013 15.6663 37.3594 15.501 37.0703C14.2867 34.9516 13.0624 32.8378 11.8424 30.7219C11.4753 30.0851 11.5891 29.6744 12.2309 29.3037C13.1576 28.7692 14.0828 28.2325 15.0094 27.6987C15.594 27.3617 16.0384 27.4819 16.3768 28.0644C16.4434 28.1796 16.5106 28.2948 16.5901 28.4315C16.6781 28.3907 16.7582 28.3563 16.8348 28.317C17.77 27.8368 18.7052 27.3567 19.639 26.8744C20.6816 26.3356 21.7685 26.2161 22.907 26.5038C24.5112 26.9095 26.1184 27.3052 27.7241 27.7059C28.5978 27.9234 28.9935 28.3105 29.2983 29.2708C29.3777 29.1957 29.4464 29.1334 29.5122 29.0676C30.68 27.8998 31.8457 26.7299 33.0163 25.565C33.568 25.0161 34.232 24.8222 34.9798 25.049C35.7354 25.2787 36.1941 25.809 36.3386 26.5868C36.456 27.2165 36.2864 27.7882 35.8413 28.2383C34.197 29.9019 32.549 31.562 30.8768 33.197C30.0804 33.9756 29.0786 34.3555 27.9695 34.3756C26.4969 34.402 25.0243 34.3849 23.551 34.3827C23.2311 34.3827 23.0086 34.2196 22.9442 33.9591C22.8884 33.7337 22.9957 33.4668 23.2154 33.3752C23.3499 33.3194 23.508 33.3015 23.6562 33.3008C24.9327 33.2951 26.21 33.2715 27.4851 33.3051C28.7051 33.3373 29.6904 32.9151 30.5391 32.0371C31.9909 30.5352 33.4843 29.0747 34.9626 27.5986C35.2123 27.3488 35.3504 27.0712 35.261 26.7091C35.1107 26.1016 34.4038 25.8433 33.9057 26.2197C33.8134 26.2891 33.7333 26.3742 33.651 26.4565C32.2428 27.864 30.8303 29.2665 29.4314 30.6826C28.9505 31.1692 28.3996 31.4046 27.7119 31.3953C26.3194 31.376 24.927 31.3881 23.5345 31.391C23.2776 31.391 23.0816 31.3015 22.9742 31.0611C22.8862 30.8636 22.8977 30.6497 23.058 30.5173C23.1889 30.4092 23.3857 30.3284 23.5538 30.3255C24.7316 30.3098 25.9101 30.3169 27.0887 30.3169C27.1602 30.3169 27.2318 30.3169 27.3026 30.3169C27.8214 30.3134 28.1484 30.0636 28.2035 29.6286C28.2564 29.2121 27.9981 28.8894 27.5051 28.7656C26.0032 28.3885 24.4919 28.0458 23.0014 27.6272C21.8387 27.3009 20.7796 27.434 19.7371 28.0279C18.8942 28.5073 18.0162 28.9245 17.1353 29.3781C17.5825 30.1524 18.0226 30.9151 18.4627 31.6786C19.0108 32.6282 19.5589 33.5777 20.1063 34.528C20.4462 35.1183 20.3303 35.5541 19.7442 35.8947C18.6995 36.5015 17.6534 37.1068 16.608 37.7129H16.1793V37.7143ZM17.3393 36.0364C17.2956 35.9526 17.2691 35.8961 17.2384 35.8424C16.8419 35.1555 16.4427 34.47 16.0498 33.7809C15.8709 33.4661 15.9475 33.1484 16.2251 32.9924C16.4906 32.8428 16.7962 32.9387 16.9758 33.2314C17.0781 33.3988 17.1725 33.5706 17.2706 33.7401C17.6047 34.3176 17.9389 34.895 18.2838 35.4911C18.5757 35.3215 18.8476 35.1641 19.1303 35.0002C17.9053 32.8786 16.6953 30.7828 15.4781 28.6755C14.5679 29.2014 13.6907 29.7087 12.8005 30.2225C14.0241 32.342 15.2377 34.4428 16.4541 36.5501C16.7661 36.3691 17.0423 36.2081 17.3385 36.0356L17.3393 36.0364Z" fill="url(#paint0_linear_29_858)"/>
<path d="M37.7121 13.1229C37.574 13.4184 37.34 13.5286 37.0202 13.5029C36.817 13.4864 36.6116 13.5057 36.4077 13.4964C36.12 13.4828 35.9054 13.2617 35.8968 12.9834C35.8875 12.7014 36.1093 12.4481 36.4019 12.4331C36.6681 12.4195 36.935 12.4267 37.2012 12.431C37.456 12.4345 37.5926 12.6084 37.7128 12.8016V13.1229H37.7121Z" fill="url(#paint1_linear_29_858)"/>
<path d="M23.998 25.5005C19.7934 25.4998 16.3945 22.0995 16.3945 17.8942C16.3938 13.6932 19.8006 10.2857 24.0001 10.2857C28.2105 10.2857 31.6108 13.7011 31.6043 17.9235C31.5979 22.1074 28.1904 25.502 23.998 25.5005ZM24.0087 24.4286C27.5894 24.4265 30.526 21.492 30.5346 17.9057C30.5432 14.3172 27.5958 11.3626 24.003 11.3591C20.4138 11.3562 17.4621 14.3079 17.4643 17.8978C17.4664 21.492 20.4109 24.4308 24.0087 24.4286Z" fill="url(#paint2_linear_29_858)"/>
<path d="M34.4999 14.7515C34.4999 14.6091 34.492 14.466 34.5014 14.3243C34.5207 14.0474 34.7625 13.827 35.0337 13.8277C35.3078 13.8284 35.5504 14.0467 35.5632 14.3272C35.5754 14.6027 35.5761 14.8796 35.5632 15.1551C35.5496 15.442 35.3199 15.6424 35.0316 15.6417C34.7439 15.6417 34.5207 15.4399 34.5006 15.1529C34.4913 15.0198 34.4992 14.886 34.4992 14.7522L34.4999 14.7515Z" fill="url(#paint3_linear_29_858)"/>
<path d="M13.4988 25.7768C13.4988 25.9106 13.5052 26.0444 13.4973 26.1775C13.4794 26.4787 13.2519 26.6841 12.9506 26.6784C12.6651 26.6726 12.444 26.4673 12.4333 26.1768C12.4233 25.9098 12.4233 25.6422 12.4333 25.3753C12.444 25.0948 12.6794 24.8723 12.9521 24.8644C13.2347 24.8566 13.4794 25.0827 13.4973 25.376C13.5052 25.5091 13.4988 25.6429 13.4988 25.7768Z" fill="url(#paint4_linear_29_858)"/>
<path d="M33.2439 13.4986C33.1194 13.4986 32.9942 13.5036 32.8704 13.4979C32.5748 13.4835 32.3666 13.276 32.3559 12.9912C32.3452 12.7086 32.5412 12.456 32.8217 12.4367C33.1144 12.4167 33.4099 12.4167 33.7018 12.4367C33.9773 12.456 34.1848 12.7243 34.1691 12.9948C34.1534 13.2639 33.9444 13.4778 33.6711 13.4957C33.5294 13.505 33.3863 13.4971 33.2439 13.4971C33.2439 13.4971 33.2439 13.4971 33.2439 13.4979V13.4986Z" fill="url(#paint5_linear_29_858)"/>
<path d="M11.1807 24.5338C11.0469 24.5338 10.9131 24.541 10.78 24.5324C10.5024 24.5145 10.2999 24.3048 10.2877 24.0315C10.2748 23.7481 10.4687 23.4934 10.7492 23.4734C11.0412 23.4526 11.3374 23.4533 11.6294 23.4734C11.9063 23.492 12.1145 23.756 12.1009 24.0272C12.0873 24.2955 11.8791 24.5138 11.6072 24.5317C11.4655 24.541 11.3224 24.5331 11.18 24.5338H11.1807Z" fill="url(#paint6_linear_29_858)"/>
<path d="M14.7388 24.5345C14.6049 24.5345 14.4711 24.541 14.338 24.5331C14.0497 24.5174 13.835 24.2977 13.8264 24.0186C13.8178 23.7482 14.0304 23.4891 14.3073 23.472C14.5906 23.4541 14.8776 23.4548 15.1609 23.472C15.445 23.4891 15.6454 23.7317 15.6403 24.0143C15.6353 24.3006 15.43 24.5167 15.1387 24.5331C15.0057 24.541 14.8718 24.5345 14.738 24.5345H14.7388Z" fill="url(#paint7_linear_29_858)"/>
<path d="M34.4994 11.1902C34.4994 11.0564 34.4929 10.9226 34.5008 10.7895C34.518 10.504 34.7427 10.2915 35.0232 10.2865C35.3037 10.2815 35.5484 10.489 35.5627 10.7702C35.577 11.0543 35.5777 11.3405 35.562 11.6245C35.5462 11.9043 35.2965 12.1097 35.016 12.1018C34.7491 12.094 34.5223 11.8857 34.5015 11.6181C34.4908 11.4764 34.4994 11.3333 34.4987 11.1909L34.4994 11.1902Z" fill="url(#paint8_linear_29_858)"/>
<path d="M12.4301 22.2319C12.4301 22.0895 12.4208 21.9464 12.4322 21.8047C12.4537 21.5364 12.6805 21.3303 12.9481 21.3231C13.2286 21.316 13.4769 21.5214 13.4919 21.8019C13.5077 22.0859 13.507 22.3721 13.4919 22.6562C13.4776 22.9367 13.23 23.1442 12.9503 23.1378C12.6841 23.1321 12.4537 22.9253 12.4315 22.6584C12.42 22.5167 12.4293 22.3736 12.4293 22.2312L12.4301 22.2319Z" fill="url(#paint9_linear_29_858)"/>
<path d="M21.8596 33.8367C21.8603 34.138 21.6177 34.3848 21.3237 34.382C21.036 34.3791 20.7841 34.1179 20.7891 33.8288C20.7941 33.5412 21.0267 33.3115 21.3179 33.3058C21.6235 33.3 21.8589 33.5305 21.8596 33.8367Z" fill="url(#paint10_linear_29_858)"/>
<path d="M15.4096 31.0718C15.7101 31.0697 15.9577 31.3108 15.9562 31.6049C15.9555 31.8969 15.7022 32.143 15.4074 32.1394C15.1155 32.1359 14.8886 31.9097 14.8829 31.6164C14.8772 31.308 15.1033 31.074 15.4096 31.0718Z" fill="url(#paint11_linear_29_858)"/>
<path d="M24.0074 17.1236C25.09 16.0402 26.1483 14.9783 27.2123 13.9229C27.3168 13.8191 27.4463 13.7161 27.5823 13.6753C27.8034 13.6102 28.0094 13.6875 28.1433 13.8871C28.2749 14.0832 28.2728 14.2914 28.1476 14.4903C28.1003 14.5648 28.0331 14.627 27.9708 14.69C26.8166 15.8456 25.6617 17.0012 24.5061 18.1554C24.1254 18.5361 23.8793 18.5382 23.5058 18.1647C22.7859 17.4456 22.0654 16.7272 21.3484 16.0052C21.1401 15.7955 21.0972 15.5408 21.2224 15.324C21.3484 15.1064 21.5487 15.0048 21.7863 15.0642C21.9237 15.0986 22.0589 15.1952 22.1634 15.2968C22.7129 15.8327 23.2517 16.3794 23.7948 16.9218C23.8571 16.9833 23.9222 17.042 24.0081 17.1229L24.0074 17.1236Z" fill="url(#paint12_linear_29_858)"/>
<path d="M24.5374 12.8947C24.5396 13.3784 24.3607 13.6338 24.0151 13.6424C23.6652 13.651 23.4662 13.3784 23.4662 12.889C23.4662 12.8002 23.462 12.7108 23.4684 12.6228C23.4899 12.3251 23.721 12.1069 24.0079 12.1083C24.3034 12.1097 24.5181 12.3194 24.536 12.6285C24.541 12.7172 24.5367 12.8059 24.5367 12.8947H24.5374Z" fill="url(#paint13_linear_29_858)"/>
<path d="M29.021 18.4337C28.9409 18.4337 28.8607 18.438 28.7813 18.433C28.4793 18.413 28.2561 18.1883 28.2539 17.9057C28.2518 17.6237 28.4736 17.3855 28.7713 17.3626C28.9122 17.3518 29.0553 17.3561 29.197 17.3597C29.5548 17.3683 29.7866 17.5872 29.7831 17.9092C29.7788 18.2234 29.562 18.423 29.207 18.4359C29.1448 18.438 29.0825 18.4359 29.0203 18.4359C29.0203 18.4352 29.0203 18.4345 29.0203 18.433L29.021 18.4337Z" fill="url(#paint14_linear_29_858)"/>
<path d="M18.9709 18.4223C18.8736 18.4223 18.7748 18.4316 18.6782 18.4209C18.3992 18.3887 18.2045 18.1511 18.2153 17.8656C18.2253 17.5937 18.4271 17.3769 18.7004 17.3597C18.8686 17.349 19.0382 17.3525 19.2063 17.3583C19.5068 17.3676 19.7337 17.5894 19.743 17.8749C19.753 18.1668 19.519 18.4094 19.2106 18.4252C19.1312 18.4294 19.051 18.4252 18.9709 18.4252C18.9709 18.4244 18.9709 18.423 18.9709 18.4223Z" fill="url(#paint15_linear_29_858)"/>
<path d="M23.461 22.9124C23.461 22.8322 23.4567 22.7521 23.4617 22.6727C23.4803 22.3685 23.7007 22.156 23.9941 22.1567C24.2853 22.1567 24.5114 22.3714 24.5293 22.6741C24.5386 22.8244 24.5357 22.976 24.5307 23.1263C24.5193 23.4633 24.296 23.6837 23.979 23.6773C23.6735 23.6716 23.4724 23.4576 23.4603 23.1242C23.4574 23.0533 23.4603 22.9825 23.4603 22.9109H23.4617L23.461 22.9124Z" fill="url(#paint16_linear_29_858)"/>
<defs>
<linearGradient id="paint0_linear_29_858" x1="24.0047" y1="24.956" x2="24.0047" y2="37.7143" gradientUnits="userSpaceOnUse">
<stop stop-color="#E2C761"/>
<stop offset="1" stop-color="#A3781A"/>
</linearGradient>
<linearGradient id="paint1_linear_29_858" x1="36.8047" y1="12.4252" x2="36.8047" y2="13.5065" gradientUnits="userSpaceOnUse">
<stop stop-color="#E2C761"/>
<stop offset="1" stop-color="#A3781A"/>
</linearGradient>
<linearGradient id="paint2_linear_29_858" x1="23.9994" y1="10.2857" x2="23.9994" y2="25.5005" gradientUnits="userSpaceOnUse">
<stop stop-color="#E2C761"/>
<stop offset="1" stop-color="#A3781A"/>
</linearGradient>
<linearGradient id="paint3_linear_29_858" x1="35.0344" y1="13.8277" x2="35.0344" y2="15.6417" gradientUnits="userSpaceOnUse">
<stop stop-color="#E2C761"/>
<stop offset="1" stop-color="#A3781A"/>
</linearGradient>
<linearGradient id="paint4_linear_29_858" x1="12.9635" y1="24.8642" x2="12.9635" y2="26.6785" gradientUnits="userSpaceOnUse">
<stop stop-color="#E2C761"/>
<stop offset="1" stop-color="#A3781A"/>
</linearGradient>
<linearGradient id="paint5_linear_29_858" x1="33.2627" y1="12.4217" x2="33.2627" y2="13.5006" gradientUnits="userSpaceOnUse">
<stop stop-color="#E2C761"/>
<stop offset="1" stop-color="#A3781A"/>
</linearGradient>
<linearGradient id="paint6_linear_29_858" x1="11.1943" y1="23.4581" x2="11.1943" y2="24.5366" gradientUnits="userSpaceOnUse">
<stop stop-color="#E2C761"/>
<stop offset="1" stop-color="#A3781A"/>
</linearGradient>
<linearGradient id="paint7_linear_29_858" x1="14.7333" y1="23.4588" x2="14.7333" y2="24.537" gradientUnits="userSpaceOnUse">
<stop stop-color="#E2C761"/>
<stop offset="1" stop-color="#A3781A"/>
</linearGradient>
<linearGradient id="paint8_linear_29_858" x1="35.0349" y1="10.2864" x2="35.0349" y2="12.102" gradientUnits="userSpaceOnUse">
<stop stop-color="#E2C761"/>
<stop offset="1" stop-color="#A3781A"/>
</linearGradient>
<linearGradient id="paint9_linear_29_858" x1="12.9646" y1="21.323" x2="12.9646" y2="23.1379" gradientUnits="userSpaceOnUse">
<stop stop-color="#E2C761"/>
<stop offset="1" stop-color="#A3781A"/>
</linearGradient>
<linearGradient id="paint10_linear_29_858" x1="21.3243" y1="33.3057" x2="21.3243" y2="34.382" gradientUnits="userSpaceOnUse">
<stop stop-color="#E2C761"/>
<stop offset="1" stop-color="#A3781A"/>
</linearGradient>
<linearGradient id="paint11_linear_29_858" x1="15.4195" y1="31.0718" x2="15.4195" y2="32.1395" gradientUnits="userSpaceOnUse">
<stop stop-color="#E2C761"/>
<stop offset="1" stop-color="#A3781A"/>
</linearGradient>
<linearGradient id="paint12_linear_29_858" x1="24.697" y1="13.6527" x2="24.697" y2="18.4429" gradientUnits="userSpaceOnUse">
<stop stop-color="#E2C761"/>
<stop offset="1" stop-color="#A3781A"/>
</linearGradient>
<linearGradient id="paint13_linear_29_858" x1="24.0016" y1="12.1083" x2="24.0016" y2="13.6426" gradientUnits="userSpaceOnUse">
<stop stop-color="#E2C761"/>
<stop offset="1" stop-color="#A3781A"/>
</linearGradient>
<linearGradient id="paint14_linear_29_858" x1="29.0185" y1="17.3557" x2="29.0185" y2="18.4368" gradientUnits="userSpaceOnUse">
<stop stop-color="#E2C761"/>
<stop offset="1" stop-color="#A3781A"/>
</linearGradient>
<linearGradient id="paint15_linear_29_858" x1="18.9791" y1="17.3528" x2="18.9791" y2="18.4271" gradientUnits="userSpaceOnUse">
<stop stop-color="#E2C761"/>
<stop offset="1" stop-color="#A3781A"/>
</linearGradient>
<linearGradient id="paint16_linear_29_858" x1="23.9972" y1="22.1567" x2="23.9972" y2="23.6774" gradientUnits="userSpaceOnUse">
<stop stop-color="#E2C761"/>
<stop offset="1" stop-color="#A3781A"/>
</linearGradient>
</defs>
</svg>
