<svg width="429" height="349" viewBox="0 0 429 349" fill="none" xmlns="http://www.w3.org/2000/svg">
<g opacity="0.12" clip-path="url(#clip0_77_318)" filter="url(#filter0_f_77_318)">
<path d="M426.717 255.876H426.128V255.311H426.717V255.876ZM424.425 255.859C423.859 255.854 423.293 255.837 422.722 255.825L422.739 255.261C423.304 255.278 423.87 255.289 424.436 255.295L424.425 255.859ZM421.018 255.775C420.452 255.752 419.886 255.729 419.32 255.701L419.349 255.136C419.915 255.165 420.481 255.187 421.041 255.204L421.018 255.769V255.775ZM417.623 255.616C417.057 255.583 416.491 255.549 415.925 255.509L415.965 254.944C416.53 254.984 417.091 255.018 417.657 255.052L417.623 255.616ZM414.227 255.391C413.661 255.345 413.101 255.3 412.535 255.249L412.586 254.685C413.152 254.735 413.712 254.781 414.278 254.826L414.233 255.391H414.227ZM410.837 255.097C410.277 255.04 409.711 254.984 409.145 254.922L409.208 254.363C409.773 254.425 410.334 254.481 410.894 254.532L410.837 255.097ZM407.459 254.735C406.899 254.668 406.333 254.6 405.772 254.532L405.84 253.973C406.401 254.041 406.961 254.114 407.521 254.176L407.453 254.735H407.459ZM404.086 254.312C403.526 254.238 402.966 254.159 402.4 254.08L402.479 253.521C403.039 253.6 403.599 253.679 404.16 253.753L404.086 254.312ZM400.719 253.832C400.159 253.747 399.598 253.657 399.038 253.566L399.129 253.007C399.689 253.098 400.249 253.182 400.804 253.267L400.719 253.826V253.832ZM397.363 253.29C396.803 253.194 396.248 253.098 395.688 253.002L395.79 252.448C396.344 252.55 396.905 252.646 397.459 252.736L397.363 253.295V253.29ZM394.018 252.697C393.464 252.595 392.904 252.488 392.349 252.381L392.457 251.827C393.011 251.934 393.566 252.042 394.12 252.143L394.018 252.697ZM390.68 252.047C390.125 251.934 389.57 251.821 389.016 251.703L389.135 251.149C389.689 251.268 390.244 251.381 390.793 251.494L390.68 252.047ZM387.352 251.347C386.797 251.229 386.249 251.104 385.694 250.98L385.818 250.432C386.373 250.557 386.922 250.681 387.471 250.799L387.352 251.353V251.347ZM384.036 250.596C383.487 250.466 382.932 250.336 382.383 250.206L382.513 249.659C383.062 249.794 383.611 249.924 384.166 250.048L384.036 250.596ZM380.731 249.8C380.182 249.664 379.633 249.523 379.084 249.382L379.226 248.834C379.774 248.975 380.323 249.111 380.867 249.246L380.731 249.794V249.8ZM377.437 248.958C376.888 248.817 376.345 248.67 375.796 248.518L375.943 247.976C376.492 248.123 377.035 248.269 377.579 248.411L377.432 248.958H377.437ZM374.155 248.072C373.612 247.919 373.063 247.767 372.519 247.614L372.672 247.072C373.216 247.225 373.759 247.377 374.302 247.53L374.149 248.072H374.155ZM370.884 247.146C370.341 246.987 369.797 246.829 369.254 246.666L369.418 246.123C369.962 246.287 370.505 246.445 371.042 246.603L370.884 247.146ZM367.624 246.174C367.087 246.01 366.543 245.847 366 245.677L366.17 245.135C366.713 245.305 367.251 245.468 367.788 245.632L367.624 246.174ZM364.382 245.169C363.844 245 363.301 244.825 362.763 244.65L362.939 244.113C363.476 244.288 364.014 244.458 364.551 244.633L364.382 245.169ZM361.15 244.124C360.613 243.949 360.075 243.769 359.537 243.588L359.719 243.051C360.256 243.232 360.794 243.407 361.326 243.588L361.15 244.124ZM357.93 243.046C357.393 242.865 356.861 242.679 356.323 242.492L356.51 241.956C357.047 242.142 357.579 242.328 358.111 242.509L357.93 243.046ZM354.722 241.933C354.19 241.741 353.658 241.555 353.12 241.363L353.312 240.832C353.844 241.024 354.376 241.21 354.908 241.402L354.722 241.933ZM351.524 240.787C350.992 240.595 350.46 240.397 349.928 240.199L350.126 239.669C350.658 239.866 351.19 240.058 351.717 240.256L351.524 240.787ZM348.338 239.607C347.806 239.409 347.28 239.206 346.748 239.008L346.952 238.483C347.478 238.686 348.01 238.884 348.536 239.081L348.338 239.612V239.607ZM345.163 238.398C344.637 238.195 344.111 237.991 343.579 237.782L343.788 237.257C344.314 237.466 344.841 237.67 345.367 237.873L345.163 238.398ZM342 237.161C341.474 236.952 340.947 236.743 340.421 236.529L340.636 236.004C341.162 236.218 341.689 236.427 342.209 236.636L342 237.161ZM338.848 235.891C338.327 235.676 337.801 235.461 337.274 235.247L337.49 234.727C338.01 234.942 338.536 235.157 339.057 235.371L338.842 235.896L338.848 235.891ZM335.707 234.597C335.186 234.377 334.666 234.163 334.139 233.942L334.36 233.423C334.881 233.643 335.401 233.863 335.922 234.078L335.701 234.597H335.707ZM332.577 233.276C332.057 233.056 331.536 232.83 331.016 232.604L331.242 232.084C331.762 232.31 332.283 232.531 332.798 232.756L332.577 233.276ZM329.459 231.932C328.939 231.706 328.424 231.48 327.903 231.249L328.129 230.735C328.65 230.966 329.165 231.192 329.68 231.418L329.454 231.938L329.459 231.932ZM326.352 230.56L324.802 229.865L325.034 229.351L326.584 230.046L326.352 230.56ZM323.257 229.165C322.742 228.933 322.227 228.696 321.712 228.459L321.95 227.945C322.465 228.182 322.98 228.414 323.495 228.651L323.262 229.165H323.257ZM320.173 227.747L318.633 227.03L318.871 226.516L320.41 227.233L320.173 227.747ZM317.1 226.307C316.59 226.064 316.075 225.822 315.566 225.579L315.809 225.071C316.319 225.313 316.834 225.556 317.343 225.799L317.1 226.307ZM314.032 224.845C313.523 224.602 313.014 224.353 312.504 224.105L312.753 223.597C313.263 223.845 313.772 224.088 314.281 224.336L314.038 224.845H314.032ZM310.977 223.365C310.467 223.117 309.964 222.868 309.454 222.62L309.703 222.111C310.213 222.36 310.716 222.608 311.226 222.857L310.977 223.365ZM307.932 221.863L306.41 221.106L306.664 220.604L308.181 221.36L307.926 221.863H307.932ZM304.893 220.344L303.376 219.576L303.631 219.073L305.142 219.841L304.887 220.344H304.893ZM301.865 218.808L300.354 218.034L300.615 217.531L302.126 218.305L301.865 218.808ZM298.849 217.255C298.345 216.995 297.847 216.735 297.344 216.47L297.604 215.967C298.108 216.227 298.606 216.492 299.109 216.752L298.849 217.255ZM295.838 215.685C295.34 215.425 294.837 215.16 294.339 214.894L294.605 214.397C295.103 214.663 295.606 214.928 296.104 215.188L295.844 215.685H295.838ZM292.839 214.098L291.339 213.296L291.605 212.799L293.099 213.595L292.833 214.092L292.839 214.098ZM289.845 212.494L288.351 211.687L288.623 211.19L290.117 211.997L289.845 212.494ZM286.863 210.873L285.375 210.055L285.646 209.558L287.135 210.371L286.863 210.868V210.873ZM283.886 209.236L282.404 208.411L282.681 207.92L284.164 208.744L283.892 209.241L283.886 209.236ZM280.921 207.587L279.438 206.757L279.716 206.265L281.193 207.095L280.915 207.587H280.921ZM277.961 205.921L276.484 205.085L276.761 204.594L278.239 205.429L277.961 205.921ZM275.007 204.244L273.536 203.402L273.819 202.911L275.29 203.752L275.007 204.244ZM272.064 202.555L270.593 201.708L270.876 201.222L272.342 202.069L272.059 202.561L272.064 202.555ZM269.127 200.85L267.662 199.991L267.95 199.506L269.416 200.358L269.133 200.844L269.127 200.85ZM266.196 199.133L264.736 198.269L265.024 197.783L266.484 198.641L266.196 199.127V199.133ZM263.276 197.405L261.816 196.535L262.104 196.049L263.564 196.919L263.276 197.405ZM260.361 195.665L258.907 194.79L259.201 194.304L260.656 195.174L260.367 195.66L260.361 195.665ZM257.453 193.915L255.998 193.034L256.292 192.554L257.741 193.429L257.447 193.915H257.453ZM254.549 192.153L253.101 191.272L253.395 190.792L254.844 191.673L254.549 192.153ZM251.652 190.385L250.209 189.499L250.509 189.019L251.952 189.905L251.658 190.385H251.652ZM248.76 188.606L247.317 187.714L247.617 187.234L249.06 188.126L248.76 188.606ZM245.874 186.816L244.437 185.918L244.737 185.438L246.174 186.336L245.874 186.816ZM242.999 185.015L241.562 184.111L241.862 183.631L243.299 184.535L242.999 185.015ZM240.124 183.208L238.687 182.298L238.992 181.824L240.424 182.733L240.119 183.208H240.124ZM237.255 181.389L235.823 180.474L236.129 180L237.561 180.909L237.255 181.384V181.389ZM234.397 179.565L232.966 178.65L233.271 178.176L234.697 179.091L234.392 179.565H234.397ZM231.539 177.73L230.113 176.809L230.419 176.335L231.845 177.255L231.539 177.73ZM228.687 175.889L227.267 174.963L227.572 174.488L228.993 175.414L228.687 175.889ZM225.841 174.036L224.42 173.11L224.732 172.636L226.152 173.562L225.841 174.036ZM223 172.179L221.579 171.247L221.891 170.778L223.305 171.71L222.994 172.184L223 172.179ZM220.165 170.315L218.75 169.389L219.061 168.914L220.476 169.846L220.165 170.315ZM217.329 168.457L215.909 167.531L216.22 167.057L217.641 167.983L217.329 168.457ZM214.489 166.605L213.068 165.684L213.374 165.21L214.8 166.136L214.489 166.61V166.605ZM211.642 164.764L210.216 163.843L210.521 163.369L211.948 164.289L211.642 164.764ZM208.79 162.928L207.364 162.014L207.669 161.539L209.101 162.454L208.795 162.928H208.79ZM205.932 161.104L204.5 160.195L204.806 159.721L206.238 160.63L205.932 161.104ZM203.068 159.292L201.631 158.388L201.931 157.908L203.368 158.812L203.068 159.292ZM200.194 157.49L198.756 156.592L199.056 156.112L200.499 157.01L200.199 157.49H200.194ZM197.313 155.7L195.87 154.808L196.164 154.328L197.607 155.22L197.307 155.7H197.313ZM194.427 153.921L192.978 153.04L193.272 152.56L194.721 153.447L194.427 153.927V153.921ZM191.529 152.159L190.075 151.284L190.369 150.798L191.824 151.673L191.529 152.159ZM188.621 150.414L187.166 149.544L187.455 149.059L188.915 149.928L188.626 150.414H188.621ZM185.706 148.686L184.246 147.828L184.535 147.342L186 148.2L185.712 148.686H185.706ZM182.78 146.975C182.288 146.693 181.801 146.41 181.315 146.128L181.598 145.637C182.084 145.919 182.577 146.201 183.069 146.484L182.786 146.969L182.78 146.975ZM179.843 145.281C179.351 144.998 178.859 144.722 178.372 144.445L178.649 143.954C179.142 144.23 179.634 144.513 180.126 144.795L179.843 145.286V145.281ZM176.895 143.609C176.403 143.332 175.91 143.056 175.412 142.779L175.69 142.288C176.182 142.564 176.674 142.841 177.172 143.118L176.895 143.609ZM173.93 141.96C173.432 141.689 172.939 141.412 172.441 141.141L172.713 140.644C173.211 140.915 173.703 141.187 174.201 141.463L173.93 141.96ZM170.953 140.334C170.455 140.063 169.957 139.797 169.459 139.532L169.725 139.035C170.223 139.3 170.721 139.571 171.219 139.842L170.947 140.339L170.953 140.334ZM167.965 138.73C167.467 138.465 166.963 138.199 166.465 137.939L166.726 137.442C167.224 137.702 167.727 137.968 168.225 138.233L167.959 138.73H167.965ZM164.96 137.154C164.456 136.895 163.953 136.635 163.455 136.375L163.715 135.872C164.219 136.132 164.722 136.392 165.226 136.652L164.966 137.154H164.96ZM161.944 135.607C161.44 135.353 160.931 135.099 160.427 134.845L160.682 134.342C161.185 134.596 161.695 134.85 162.198 135.104L161.944 135.607ZM158.91 134.088C158.401 133.839 157.897 133.585 157.388 133.343L157.637 132.834C158.146 133.083 158.656 133.331 159.159 133.585L158.91 134.094V134.088ZM155.866 132.603C155.356 132.36 154.847 132.111 154.338 131.874L154.581 131.366C155.09 131.609 155.6 131.852 156.115 132.1L155.871 132.608L155.866 132.603ZM152.804 131.151C152.289 130.914 151.78 130.671 151.265 130.44L151.502 129.926C152.017 130.163 152.527 130.4 153.042 130.643L152.804 131.157V131.151ZM149.726 129.734C149.211 129.502 148.696 129.271 148.181 129.039L148.413 128.525C148.928 128.757 149.443 128.988 149.963 129.22L149.731 129.734H149.726ZM146.63 128.35C146.109 128.124 145.594 127.899 145.074 127.673L145.3 127.153C145.821 127.379 146.336 127.605 146.856 127.831L146.63 128.35ZM143.517 127.006C142.997 126.786 142.476 126.566 141.956 126.351L142.171 125.832C142.691 126.046 143.212 126.267 143.738 126.492L143.517 127.012V127.006ZM140.388 125.702C139.862 125.487 139.341 125.278 138.815 125.064L139.024 124.538C139.55 124.747 140.071 124.962 140.597 125.177L140.382 125.702H140.388ZM137.241 124.442C136.715 124.234 136.189 124.03 135.663 123.827L135.866 123.302C136.393 123.505 136.925 123.708 137.451 123.917L137.241 124.442ZM134.078 123.223C133.552 123.025 133.02 122.827 132.488 122.63L132.686 122.099C133.218 122.297 133.75 122.494 134.276 122.692L134.078 123.223ZM130.898 122.054C130.366 121.862 129.834 121.675 129.302 121.483L129.488 120.952C130.02 121.139 130.558 121.331 131.09 121.523L130.898 122.054ZM127.7 120.93C127.163 120.744 126.631 120.563 126.093 120.388L126.274 119.851C126.812 120.032 127.349 120.213 127.881 120.399L127.695 120.936L127.7 120.93ZM124.486 119.851C123.948 119.676 123.416 119.507 122.879 119.332L123.048 118.795C123.586 118.965 124.124 119.14 124.661 119.315L124.486 119.851ZM121.266 118.829C120.728 118.665 120.191 118.502 119.647 118.338L119.811 117.796C120.355 117.959 120.892 118.123 121.43 118.287L121.26 118.829H121.266ZM118.029 117.858C117.485 117.7 116.948 117.547 116.405 117.389L116.557 116.847C117.101 116.999 117.644 117.158 118.187 117.316L118.029 117.858ZM2.345 117.542L2.21484 116.994C2.76944 116.864 3.31837 116.74 3.87297 116.615L3.99747 117.169C3.44853 117.293 2.89394 117.417 2.345 117.547V117.542ZM114.752 116.932C114.209 116.785 113.666 116.638 113.117 116.491L113.264 115.943C113.813 116.09 114.356 116.237 114.905 116.384L114.758 116.926L114.752 116.932ZM5.65559 116.796L5.53109 116.243C6.08568 116.118 6.64028 116 7.18921 115.881L7.30805 116.435C6.75912 116.553 6.20452 116.672 5.64993 116.796H5.65559ZM8.97184 116.079L8.85299 115.525C9.40759 115.407 9.96218 115.294 10.5168 115.181L10.63 115.734C10.0754 115.847 9.52643 115.96 8.97184 116.079ZM111.481 116.068C110.932 115.926 110.389 115.791 109.84 115.655L109.976 115.108C110.525 115.243 111.074 115.379 111.623 115.52L111.481 116.068ZM12.2937 115.396L12.1806 114.842C12.7352 114.729 13.2954 114.622 13.85 114.515L13.9575 115.068C13.4029 115.175 12.8483 115.283 12.2937 115.396ZM108.193 115.254C107.644 115.125 107.095 114.995 106.541 114.87L106.665 114.323C107.22 114.447 107.769 114.577 108.323 114.707L108.193 115.254ZM15.6213 114.746L15.5138 114.193C16.074 114.085 16.6286 113.984 17.1832 113.882L17.2851 114.436C16.7305 114.537 16.1759 114.639 15.6156 114.746H15.6213ZM104.883 114.503C104.328 114.385 103.779 114.266 103.225 114.148L103.343 113.594C103.898 113.713 104.453 113.831 105.007 113.95L104.888 114.503H104.883ZM18.9545 114.136L18.8527 113.583C19.4129 113.481 19.9675 113.385 20.5278 113.289L20.624 113.848C20.0694 113.944 19.5091 114.04 18.9545 114.142V114.136ZM101.561 113.809C101.006 113.696 100.452 113.588 99.8969 113.481L100.004 112.928C100.565 113.035 101.119 113.142 101.674 113.255L101.561 113.809ZM22.2934 113.56L22.2029 113.001C22.7631 112.905 23.3234 112.815 23.878 112.724L23.9685 113.284C23.4139 113.374 22.8537 113.464 22.2934 113.555V113.56ZM98.2218 113.171C97.6673 113.069 97.107 112.967 96.5467 112.871L96.643 112.312C97.2032 112.408 97.7635 112.51 98.318 112.612L98.2162 113.165L98.2218 113.171ZM25.6436 113.024L25.5587 112.465C26.119 112.38 26.6792 112.295 27.2395 112.211L27.3244 112.77C26.7698 112.854 26.2095 112.939 25.6493 113.024H25.6436ZM94.8773 112.589C94.317 112.499 93.7568 112.408 93.1965 112.324L93.2814 111.764C93.8417 111.849 94.4076 111.939 94.9678 112.035L94.8773 112.595V112.589ZM28.9995 112.521L28.9202 111.962C29.4805 111.883 30.0407 111.804 30.601 111.725L30.6802 112.284C30.12 112.357 29.5597 112.436 28.9995 112.516V112.521ZM91.5158 112.064C90.9555 111.985 90.4009 111.906 89.8407 111.827L89.9199 111.267C90.4802 111.347 91.0404 111.426 91.6007 111.505L91.5214 112.064H91.5158ZM32.361 112.064L32.2874 111.505C32.8533 111.431 33.4136 111.358 33.9738 111.29L34.0417 111.849C33.4815 111.917 32.9212 111.99 32.361 112.064ZM35.7282 111.646L35.6603 111.087C36.2262 111.019 36.7864 110.957 37.3467 110.895L37.4089 111.454C36.8487 111.516 36.2884 111.578 35.7225 111.646H35.7282ZM88.1599 111.606C87.5997 111.533 87.0394 111.465 86.4792 111.397L86.5471 110.838C87.113 110.906 87.6732 110.974 88.2335 111.047L88.1599 111.606ZM39.101 111.279L39.0444 110.72C39.6103 110.663 40.1762 110.607 40.7365 110.55L40.7931 111.115C40.2328 111.171 39.6669 111.228 39.1067 111.284L39.101 111.279ZM84.7927 111.205C84.2325 111.143 83.6722 111.081 83.1063 111.025L83.1629 110.46C83.7288 110.516 84.2891 110.579 84.855 110.641L84.7927 111.2V111.205ZM42.4738 110.951L42.4229 110.387C42.9888 110.336 43.5547 110.285 44.115 110.24L44.1603 110.804C43.6 110.85 43.0341 110.9 42.4738 110.951ZM81.4199 110.867C80.8597 110.816 80.2937 110.765 79.7335 110.72L79.7788 110.155C80.3447 110.2 80.9106 110.251 81.4708 110.302L81.4199 110.867ZM45.8523 110.675L45.8071 110.11C46.373 110.065 46.9389 110.025 47.5048 109.986L47.5444 110.55C46.9842 110.59 46.4182 110.629 45.8523 110.675ZM78.0414 110.584C77.4812 110.539 76.9153 110.499 76.3493 110.466L76.3889 109.901C76.9549 109.94 77.5208 109.98 78.0867 110.019L78.0414 110.584ZM49.2365 110.443L49.2025 109.878C49.7684 109.844 50.3344 109.81 50.9003 109.782L50.9286 110.347C50.3683 110.375 49.8024 110.409 49.2365 110.443ZM74.6573 110.358C74.097 110.324 73.5311 110.296 72.9652 110.268L72.9935 109.703C73.5594 109.731 74.1253 109.76 74.6912 109.794L74.6573 110.358ZM52.6206 110.257L52.5924 109.692C53.1583 109.664 53.7242 109.641 54.2901 109.618L54.3127 110.183C53.7468 110.206 53.1866 110.228 52.6206 110.257ZM71.2731 110.189C70.7072 110.166 70.1469 110.144 69.581 110.127L69.598 109.562C70.1639 109.579 70.7298 109.602 71.2957 109.624L71.2731 110.189ZM56.0105 110.127L55.9935 109.562C56.5594 109.545 57.1253 109.528 57.6912 109.517L57.7025 110.082C57.1366 110.093 56.5764 110.11 56.0105 110.127ZM67.8833 110.082C67.3174 110.07 66.7571 110.059 66.1912 110.048L66.2025 109.483C66.7684 109.494 67.3344 109.506 67.9003 109.517L67.889 110.082H67.8833ZM59.4059 110.048L59.3946 109.483C59.9662 109.472 60.5321 109.466 61.098 109.46V110.025C60.5378 110.025 59.9718 110.036 59.4003 110.048H59.4059ZM64.4935 110.025C63.9332 110.025 63.3673 110.019 62.8014 110.019V109.455H62.8467C63.3673 109.455 63.9332 109.455 64.4935 109.455V110.019V110.025Z" fill="#CBE3FE"/>
<path d="M2.2832 161.33L23.1371 141.452L58.6311 196.608L87.9 172.738L150.728 256.006L189.521 227.245L242.626 144.27L289.976 108.466L339.595 130.508L386.758 93.1568L426.717 133.179V347H2.2832V161.33Z" fill="url(#paint0_linear_77_318)"/>
<path d="M23.1369 143.044C24.0183 143.044 24.7328 142.331 24.7328 141.452C24.7328 140.572 24.0183 139.859 23.1369 139.859C22.2555 139.859 21.541 140.572 21.541 141.452C21.541 142.331 22.2555 143.044 23.1369 143.044Z" fill="#B7D4FB"/>
<path d="M23.1367 144.592C21.3994 144.592 19.9902 143.18 19.9902 141.452C19.9902 139.724 21.405 138.312 23.1367 138.312C24.8684 138.312 26.2832 139.724 26.2832 141.452C26.2832 143.18 24.8684 144.592 23.1367 144.592ZM23.1367 138.781C21.6653 138.781 20.4656 139.978 20.4656 141.446C20.4656 142.915 21.6653 144.112 23.1367 144.112C24.6081 144.112 25.8078 142.915 25.8078 141.446C25.8078 139.978 24.6081 138.781 23.1367 138.781Z" fill="#B7D4FB"/>
<path d="M60.2269 196.609C60.2269 197.489 59.5139 198.201 58.631 198.201C57.7482 198.201 57.0352 197.489 57.0352 196.609C57.0352 195.728 57.7482 195.016 58.631 195.016C59.5139 195.016 60.2269 195.728 60.2269 196.609Z" fill="#B7D4FB"/>
<path d="M58.6308 199.748C56.8935 199.748 55.4844 198.337 55.4844 196.608C55.4844 194.88 56.8992 193.469 58.6308 193.469C60.3625 193.469 61.7773 194.88 61.7773 196.608C61.7773 198.337 60.3625 199.748 58.6308 199.748ZM58.6308 193.937C57.1595 193.937 55.9597 195.135 55.9597 196.603C55.9597 198.071 57.1595 199.268 58.6308 199.268C60.1022 199.268 61.302 198.071 61.302 196.603C61.302 195.135 60.1022 193.937 58.6308 193.937Z" fill="#B7D4FB"/>
<path d="M87.9006 174.33C88.7819 174.33 89.4964 173.617 89.4964 172.738C89.4964 171.858 88.7819 171.145 87.9006 171.145C87.0192 171.145 86.3047 171.858 86.3047 172.738C86.3047 173.617 87.0192 174.33 87.9006 174.33Z" fill="#B7D4FB"/>
<path d="M87.9004 175.878C86.163 175.878 84.7539 174.466 84.7539 172.738C84.7539 171.01 86.1687 169.598 87.9004 169.598C89.6321 169.598 91.0469 171.01 91.0469 172.738C91.0469 174.466 89.6321 175.878 87.9004 175.878ZM87.9004 170.066C86.429 170.066 85.2293 171.264 85.2293 172.732C85.2293 174.2 86.429 175.397 87.9004 175.397C89.3717 175.397 90.5715 174.2 90.5715 172.732C90.5715 171.264 89.3717 170.066 87.9004 170.066Z" fill="#B7D4FB"/>
<path d="M150.727 257.593C151.608 257.593 152.323 256.88 152.323 256C152.323 255.121 151.608 254.408 150.727 254.408C149.845 254.408 149.131 255.121 149.131 256C149.131 256.88 149.845 257.593 150.727 257.593Z" fill="#B7D4FB"/>
<path d="M150.727 259.14C148.989 259.14 147.58 257.729 147.58 256C147.58 254.272 148.995 252.861 150.727 252.861C152.458 252.861 153.873 254.272 153.873 256C153.873 257.729 152.458 259.14 150.727 259.14ZM150.727 253.329C149.255 253.329 148.055 254.527 148.055 255.995C148.055 257.463 149.255 258.66 150.727 258.66C152.198 258.66 153.398 257.463 153.398 255.995C153.398 254.527 152.198 253.329 150.727 253.329Z" fill="#B7D4FB"/>
<path d="M189.522 228.809C190.403 228.809 191.118 228.096 191.118 227.217C191.118 226.337 190.403 225.624 189.522 225.624C188.64 225.624 187.926 226.337 187.926 227.217C187.926 228.096 188.64 228.809 189.522 228.809Z" fill="#B7D4FB"/>
<path d="M189.521 230.356C187.784 230.356 186.375 228.945 186.375 227.217C186.375 225.488 187.79 224.077 189.521 224.077C191.253 224.077 192.668 225.488 192.668 227.217C192.668 228.945 191.253 230.356 189.521 230.356ZM189.521 224.545C188.05 224.545 186.85 225.743 186.85 227.211C186.85 228.679 188.05 229.876 189.521 229.876C190.993 229.876 192.193 228.679 192.193 227.211C192.193 225.743 190.993 224.545 189.521 224.545Z" fill="#B7D4FB"/>
<path d="M242.631 145.857C243.512 145.857 244.227 145.144 244.227 144.264C244.227 143.385 243.512 142.672 242.631 142.672C241.75 142.672 241.035 143.385 241.035 144.264C241.035 145.144 241.75 145.857 242.631 145.857Z" fill="#B7D4FB"/>
<path d="M242.631 147.41C240.893 147.41 239.484 145.998 239.484 144.27C239.484 142.542 240.899 141.13 242.631 141.13C244.363 141.13 245.777 142.542 245.777 144.27C245.777 145.998 244.363 147.41 242.631 147.41ZM242.631 141.599C241.159 141.599 239.96 142.796 239.96 144.264C239.96 145.733 241.159 146.93 242.631 146.93C244.102 146.93 245.302 145.733 245.302 144.264C245.302 142.796 244.102 141.599 242.631 141.599Z" fill="#B7D4FB"/>
<path d="M289.965 110.059C290.846 110.059 291.561 109.346 291.561 108.466C291.561 107.587 290.846 106.874 289.965 106.874C289.084 106.874 288.369 107.587 288.369 108.466C288.369 109.346 289.084 110.059 289.965 110.059Z" fill="#B7D4FB"/>
<path d="M289.965 111.606C288.227 111.606 286.818 110.195 286.818 108.466C286.818 106.738 288.233 105.327 289.965 105.327C291.697 105.327 293.111 106.738 293.111 108.466C293.111 110.195 291.697 111.606 289.965 111.606ZM289.965 105.795C288.493 105.795 287.294 106.993 287.294 108.461C287.294 109.929 288.493 111.126 289.965 111.126C291.436 111.126 292.636 109.929 292.636 108.461C292.636 106.993 291.436 105.795 289.965 105.795Z" fill="#B7D4FB"/>
<path d="M341.18 130.513C341.18 131.394 340.467 132.106 339.584 132.106C338.701 132.106 337.988 131.394 337.988 130.513C337.988 129.632 338.701 128.921 339.584 128.921C340.467 128.921 341.18 129.632 341.18 130.513Z" fill="#B7D4FB"/>
<path d="M339.584 133.653C337.847 133.653 336.438 132.241 336.438 130.513C336.438 128.785 337.852 127.373 339.584 127.373C341.316 127.373 342.73 128.785 342.73 130.513C342.73 132.241 341.316 133.653 339.584 133.653ZM339.584 127.842C338.113 127.842 336.913 129.039 336.913 130.508C336.913 131.976 338.113 133.173 339.584 133.173C341.055 133.173 342.255 131.976 342.255 130.508C342.255 129.039 341.055 127.842 339.584 127.842Z" fill="#B7D4FB"/>
<path d="M386.77 94.7324C387.651 94.7324 388.366 94.0194 388.366 93.1399C388.366 92.2603 387.651 91.5473 386.77 91.5473C385.888 91.5473 385.174 92.2603 385.174 93.1399C385.174 94.0194 385.888 94.7324 386.77 94.7324Z" fill="#B7D4FB"/>
<path d="M386.77 96.2854C385.032 96.2854 383.623 94.8736 383.623 93.1455C383.623 91.4175 385.038 90.0056 386.77 90.0056C388.501 90.0056 389.916 91.4175 389.916 93.1455C389.916 94.8736 388.501 96.2854 386.77 96.2854ZM386.77 90.4744C385.298 90.4744 384.098 91.6716 384.098 93.1399C384.098 94.6081 385.298 95.8054 386.77 95.8054C388.241 95.8054 389.441 94.6081 389.441 93.1399C389.441 91.6716 388.241 90.4744 386.77 90.4744Z" fill="#B7D4FB"/>
<path d="M2.2832 161.33L23.1371 141.452L58.6311 196.608L87.9 172.738L150.728 256.006L189.521 227.245L242.626 144.27L289.976 108.466L339.595 130.508L386.758 93.1568L426.717 133.179" stroke="#B7D4FB" stroke-linecap="round" stroke-linejoin="round"/>
</g>
<g clip-path="url(#clip1_77_318)">
<g opacity="0.24">
<path d="M-47.3043 268.567C-47.8431 268.567 -48.3818 268.551 -48.9206 268.528L-48.881 267.741C-48.1045 267.78 -47.3202 267.788 -46.5358 267.764L-46.512 268.551C-46.7735 268.551 -47.0349 268.559 -47.3043 268.559V268.567ZM-44.1273 268.402L-44.2144 267.623C-43.4459 267.544 -42.6695 267.426 -41.9168 267.284L-41.7663 268.056C-42.5427 268.205 -43.335 268.323 -44.1273 268.41V268.402ZM-51.3132 268.331C-52.1055 268.237 -52.9057 268.111 -53.6821 267.961L-53.5316 267.19C-52.771 267.339 -51.9946 267.457 -51.2182 267.552L-51.3132 268.331ZM-39.437 267.505L-39.6509 266.749C-38.9062 266.544 -38.1614 266.3 -37.4325 266.041L-37.1632 266.781C-37.9079 267.056 -38.6764 267.3 -39.4449 267.513L-39.437 267.505ZM-56.0194 267.426C-56.7879 267.221 -57.5564 266.985 -58.3091 266.725L-58.0476 265.978C-57.3108 266.23 -56.5581 266.458 -55.8055 266.662L-56.0114 267.418L-56.0194 267.426ZM-60.5433 265.883C-61.2722 265.576 -62.009 265.246 -62.722 264.891L-62.3734 264.183C-61.6683 264.529 -60.9553 264.86 -60.2343 265.159L-60.5433 265.883ZM-34.9369 265.875L-35.2617 265.159C-34.5566 264.844 -33.8594 264.49 -33.1701 264.12L-32.7898 264.813C-33.4949 265.191 -34.2159 265.553 -34.9369 265.875ZM-64.8374 263.774C-65.5188 263.388 -66.208 262.971 -66.8815 262.538L-66.4537 261.877C-65.7881 262.302 -65.1147 262.711 -64.4413 263.089L-64.8374 263.774ZM-30.7299 263.608L-31.1577 262.939C-30.508 262.53 -29.8505 262.089 -29.2166 261.633L-28.7492 262.27C-29.3989 262.735 -30.0723 263.191 -30.7299 263.608ZM-68.8543 261.2C-69.496 260.743 -70.1377 260.263 -70.7636 259.767L-70.2724 259.146C-69.6545 259.634 -69.0206 260.098 -68.3868 260.555L-68.8463 261.192L-68.8543 261.2ZM-26.8477 260.822L-27.3469 260.208C-26.7527 259.736 -26.1505 259.224 -25.5563 258.689L-25.0255 259.279C-25.6355 259.823 -26.2456 260.334 -26.8477 260.822ZM-72.6176 258.264C-73.2197 257.752 -73.8139 257.225 -74.4002 256.69L-73.8614 256.115C-73.2752 256.651 -72.6889 257.17 -72.0947 257.674L-72.6096 258.272L-72.6176 258.264ZM-23.2825 257.658L-23.8371 257.099C-23.2825 256.556 -22.7358 255.997 -22.1891 255.423L-21.6108 255.966C-22.1654 256.548 -22.72 257.115 -23.2825 257.666V257.658ZM-76.1353 255.045C-76.6978 254.494 -77.2603 253.927 -77.807 253.353L-77.2365 252.809C-76.6899 253.376 -76.1353 253.935 -75.5807 254.486L-76.1353 255.045ZM-20.0104 254.195L-20.6046 253.675C-20.0896 253.093 -19.5826 252.495 -19.0834 251.881L-18.4734 252.377C-18.9804 252.998 -19.4954 253.604 -20.0104 254.195ZM-79.4312 251.613C-79.962 251.031 -80.4849 250.44 -81.0078 249.834L-80.4057 249.323C-79.8907 249.921 -79.3678 250.511 -78.8369 251.086L-79.4232 251.613H-79.4312ZM-16.9839 250.519L-17.6098 250.039C-17.1344 249.425 -16.667 248.795 -16.1995 248.158L-15.5578 248.622C-16.0331 249.268 -16.5085 249.905 -16.9839 250.527V250.519ZM-82.5448 248.016C-83.0439 247.41 -83.5431 246.796 -84.0422 246.174L-83.4163 245.686C-82.9251 246.308 -82.426 246.914 -81.9268 247.52L-82.5369 248.016H-82.5448ZM-14.1792 246.678L-14.8289 246.229C-14.3852 245.592 -13.9494 244.938 -13.5058 244.277L-12.8403 244.71C-13.284 245.379 -13.7197 246.033 -14.1713 246.678H-14.1792ZM-85.5 244.301C-85.9754 243.679 -86.4586 243.042 -86.9261 242.404L-86.2843 241.94C-85.8169 242.577 -85.3415 243.207 -84.8662 243.829L-85.5 244.309V244.301ZM-11.5647 242.711L-12.2381 242.294C-11.8261 241.633 -11.4062 240.964 -11.0022 240.287L-10.3208 240.688C-10.7328 241.373 -11.1527 242.042 -11.5647 242.711ZM-88.3284 240.483C-88.7879 239.846 -89.2475 239.201 -89.6991 238.547L-89.0494 238.099C-88.5978 238.744 -88.1383 239.389 -87.6788 240.027L-88.3205 240.483H-88.3284ZM-9.10864 238.65L-9.79793 238.256C-9.40971 237.579 -9.01357 236.894 -8.62535 236.202L-7.93607 236.587C-8.3243 237.28 -8.72043 237.973 -9.10864 238.65ZM-91.0539 236.595C-91.4975 235.942 -91.9412 235.289 -92.3849 234.627L-91.7273 234.195C-91.2915 234.848 -90.8479 235.501 -90.4042 236.154L-91.0618 236.595H-91.0539ZM-6.78728 234.509L-7.48447 234.139C-7.11209 233.455 -6.73973 232.762 -6.37529 232.054L-5.67017 232.416C-6.04253 233.124 -6.4149 233.817 -6.78728 234.509ZM-93.6921 232.652C-94.1279 231.991 -94.5557 231.33 -94.9836 230.668L-94.318 230.243C-93.8902 230.904 -93.4545 231.566 -93.0266 232.227L-93.6921 232.66V232.652ZM-4.58475 230.306L-5.28987 229.952C-4.93335 229.252 -4.58475 228.551 -4.22823 227.843L-3.51517 228.189C-3.86377 228.905 -4.22029 229.606 -4.57681 230.306H-4.58475ZM-96.267 228.677C-96.6949 228.016 -97.1148 227.347 -97.5426 226.678L-96.8692 226.261C-96.4493 226.93 -96.0214 227.591 -95.6015 228.26L-96.267 228.685V228.677ZM-2.4852 226.056L-3.19826 225.717C-2.85757 225.009 -2.52483 224.301 -2.18414 223.584L-1.46317 223.915C-1.80385 224.631 -2.13661 225.348 -2.47728 226.056H-2.4852ZM-98.8102 224.663L-100.07 222.656L-99.3965 222.239L-98.1368 224.246L-98.8102 224.663ZM-0.472824 221.766L-1.1938 221.444C-0.868973 220.727 -0.544128 220.011 -0.219284 219.295L0.501678 219.617C0.176834 220.342 -0.14798 221.058 -0.480743 221.774L-0.472824 221.766ZM-101.322 220.649L-102.574 218.641L-101.9 218.224L-100.648 220.231L-101.322 220.649ZM1.46825 217.445L0.739365 217.13C1.05627 216.414 1.37318 215.69 1.68217 214.966L2.41106 215.273C2.09415 216.005 1.78516 216.729 1.46825 217.445ZM-103.817 216.634L-105.069 214.627L-104.396 214.21L-103.136 216.217L-103.81 216.634H-103.817ZM3.34596 213.1L2.61707 212.793C2.92606 212.069 3.22711 211.345 3.5361 210.613L4.26498 210.912C3.96393 211.644 3.65494 212.368 3.34596 213.092V213.1ZM-106.337 212.628C-106.757 211.959 -107.185 211.29 -107.605 210.629L-106.939 210.204C-106.519 210.865 -106.091 211.534 -105.671 212.203L-106.345 212.62L-106.337 212.628ZM200.037 209.999C199.53 209.999 199.023 209.999 198.515 209.975L198.539 209.188C199.316 209.212 200.116 209.22 200.892 209.204L200.908 209.991C200.615 209.991 200.322 209.999 200.029 209.999H200.037ZM203.301 209.881L203.245 209.094C204.03 209.039 204.814 208.96 205.575 208.858L205.678 209.637C204.901 209.739 204.101 209.818 203.301 209.881ZM196.131 209.85C195.331 209.787 194.53 209.708 193.754 209.606L193.857 208.826C194.625 208.921 195.41 209.007 196.202 209.07L196.139 209.857L196.131 209.85ZM208.031 209.259L207.88 208.488C208.649 208.338 209.417 208.173 210.17 207.984L210.368 208.748C209.607 208.944 208.815 209.11 208.039 209.259H208.031ZM191.385 209.243C190.609 209.102 189.824 208.944 189.048 208.755L189.23 207.992C189.991 208.173 190.767 208.33 191.528 208.464L191.385 209.236V209.243ZM5.16818 208.732L4.43137 208.433C4.73244 207.709 5.02559 206.977 5.32664 206.245L6.06346 206.536C5.77032 207.268 5.46925 208 5.16818 208.732ZM-108.88 208.645C-109.308 207.976 -109.744 207.323 -110.172 206.662L-109.506 206.229C-109.07 206.882 -108.642 207.543 -108.207 208.212L-108.872 208.637L-108.88 208.645ZM186.734 208.157C185.974 207.937 185.205 207.693 184.46 207.433L184.722 206.693C185.451 206.945 186.203 207.189 186.956 207.41L186.734 208.165V208.157ZM212.658 208.102L212.42 207.354C213.165 207.118 213.902 206.859 214.63 206.583L214.916 207.315C214.179 207.598 213.418 207.858 212.658 208.102ZM182.226 206.583C181.489 206.284 180.761 205.961 180.04 205.623L180.38 204.914C181.085 205.245 181.806 205.568 182.527 205.859L182.226 206.583ZM217.118 206.402L216.793 205.686C217.506 205.363 218.211 205.025 218.901 204.67L219.265 205.371C218.56 205.733 217.839 206.087 217.118 206.41V206.402ZM-111.487 204.694C-111.93 204.033 -112.374 203.387 -112.818 202.742L-112.16 202.301C-111.716 202.947 -111.273 203.6 -110.829 204.261L-111.487 204.694ZM177.908 204.544C177.219 204.175 176.522 203.781 175.833 203.364L176.245 202.687C176.918 203.088 177.607 203.482 178.289 203.844L177.916 204.537L177.908 204.544ZM6.94289 204.348L6.20607 204.056C6.49922 203.324 6.78444 202.592 7.07758 201.86L7.81439 202.152C7.52126 202.884 7.23604 203.624 6.94289 204.348ZM221.365 204.214L220.961 203.537C221.626 203.143 222.3 202.726 222.949 202.293L223.385 202.947C222.72 203.387 222.038 203.812 221.357 204.214H221.365ZM173.828 202.097C173.171 201.656 172.513 201.199 171.871 200.727L172.339 200.097C172.972 200.562 173.614 201.01 174.272 201.443L173.828 202.097ZM225.35 201.585L224.882 200.955C225.508 200.499 226.134 200.019 226.744 199.523L227.243 200.137C226.618 200.64 225.984 201.128 225.35 201.585ZM-114.157 200.806C-114.616 200.16 -115.076 199.515 -115.535 198.885L-114.893 198.421C-114.434 199.058 -113.967 199.696 -113.507 200.349L-114.157 200.806ZM8.6859 199.948L7.94908 199.664C8.2343 198.932 8.51953 198.2 8.80475 197.461L9.54155 197.744C9.25633 198.484 8.97112 199.216 8.6859 199.948ZM169.978 199.287C169.36 198.791 168.75 198.287 168.147 197.76L168.67 197.169C169.265 197.681 169.867 198.185 170.477 198.673L169.978 199.287ZM229.066 198.602L228.543 198.012C229.129 197.5 229.707 196.965 230.278 196.422L230.825 196.988C230.246 197.539 229.66 198.075 229.066 198.594V198.602ZM-116.945 196.988C-117.429 196.359 -117.904 195.729 -118.387 195.123L-117.762 194.635C-117.278 195.249 -116.787 195.878 -116.312 196.516L-116.945 196.988ZM166.373 196.162C165.794 195.627 165.224 195.068 164.661 194.509L165.224 193.95C165.779 194.509 166.349 195.052 166.919 195.587L166.373 196.162ZM10.3893 195.532L9.65248 195.249L10.4923 193.037L11.237 193.313L10.3972 195.524L10.3893 195.532ZM232.512 195.312L231.942 194.761C232.488 194.202 233.019 193.635 233.55 193.045L234.136 193.572C233.598 194.163 233.059 194.745 232.504 195.304L232.512 195.312ZM-119.877 193.281C-120.384 192.667 -120.891 192.069 -121.406 191.486L-120.812 190.967C-120.297 191.557 -119.782 192.163 -119.267 192.777L-119.877 193.281ZM163.006 192.793C162.467 192.219 161.936 191.628 161.405 191.03L161.999 190.51C162.522 191.101 163.053 191.683 163.584 192.25L163.006 192.785V192.793ZM235.713 191.786L235.111 191.274C235.618 190.684 236.117 190.078 236.608 189.456L237.226 189.944C236.727 190.566 236.22 191.18 235.713 191.778V191.786ZM12.0689 191.101L11.3242 190.825L12.1482 188.621L12.8929 188.897L12.061 191.101H12.0689ZM-122.983 189.739C-123.521 189.157 -124.068 188.59 -124.623 188.047L-124.06 187.488C-123.506 188.039 -122.951 188.614 -122.404 189.204L-122.983 189.739ZM159.86 189.228C159.353 188.621 158.854 188.008 158.363 187.386L158.989 186.898C159.48 187.52 159.971 188.126 160.47 188.724L159.86 189.228ZM238.692 188.07L238.058 187.598C238.525 186.976 238.993 186.347 239.452 185.701L240.102 186.158C239.635 186.811 239.167 187.449 238.692 188.07ZM13.7248 186.685L12.98 186.41L13.804 184.198L14.5488 184.473L13.7248 186.685ZM-126.326 186.418C-126.92 185.874 -127.514 185.355 -128.101 184.875L-127.594 184.269C-126.999 184.757 -126.397 185.284 -125.795 185.835L-126.334 186.418H-126.326ZM156.905 185.497C156.43 184.867 155.962 184.229 155.495 183.584L156.137 183.127C156.596 183.765 157.064 184.403 157.531 185.024L156.897 185.497H156.905ZM241.449 184.206L240.791 183.765C241.227 183.12 241.663 182.466 242.091 181.797L242.756 182.222C242.32 182.891 241.885 183.553 241.441 184.206H241.449ZM-129.947 183.427C-130.588 182.954 -131.238 182.506 -131.872 182.096L-131.444 181.435C-130.787 181.852 -130.129 182.309 -129.471 182.789L-129.947 183.419V183.427ZM15.3648 182.246L14.6201 181.978L15.444 179.759L16.1888 180.026L15.3648 182.246ZM154.132 181.64C153.688 180.987 153.245 180.333 152.809 179.672L153.475 179.239C153.91 179.9 154.346 180.554 154.79 181.199L154.132 181.64ZM-133.892 180.916C-134.589 180.538 -135.295 180.199 -135.992 179.893L-135.675 179.168C-134.962 179.475 -134.233 179.83 -133.52 180.215L-133.9 180.908L-133.892 180.916ZM244.032 180.223L243.358 179.814C243.77 179.153 244.174 178.476 244.578 177.799L245.26 178.2C244.856 178.885 244.444 179.562 244.032 180.231V180.223ZM-138.163 179.074C-138.907 178.83 -139.66 178.625 -140.405 178.468L-140.238 177.696C-139.47 177.862 -138.686 178.074 -137.917 178.326L-138.163 179.074ZM-142.687 178.098C-143.455 178.011 -144.231 177.972 -145 177.972V177.185C-144.2 177.185 -143.392 177.232 -142.599 177.311L-142.687 178.09V178.098ZM17.0048 177.807L16.2601 177.539L17.084 175.312L17.8288 175.579L17.0048 177.807ZM151.518 177.681C151.098 177.02 150.678 176.343 150.258 175.666L150.931 175.256C151.343 175.933 151.763 176.595 152.183 177.256L151.51 177.681H151.518ZM246.456 176.138L245.767 175.752C246.155 175.075 246.535 174.383 246.916 173.69L247.613 174.068C247.233 174.768 246.844 175.461 246.456 176.138ZM149.038 173.635C148.634 172.958 148.238 172.273 147.841 171.589L148.531 171.195C148.927 171.88 149.323 172.557 149.719 173.234L149.038 173.635ZM18.6448 173.352L17.9001 173.084L18.7161 170.864L19.4609 171.132L18.6448 173.352ZM248.73 171.974L248.025 171.612C248.389 170.92 248.754 170.219 249.11 169.519L249.815 169.873C249.451 170.581 249.094 171.282 248.73 171.982V171.974ZM146.669 169.526C146.281 168.842 145.9 168.149 145.52 167.448L146.217 167.071C146.598 167.763 146.978 168.456 147.358 169.141L146.669 169.526ZM20.2848 168.92L19.5401 168.653L20.3641 166.433L21.1088 166.709L20.2848 168.928V168.92ZM250.885 167.748L250.172 167.401C250.521 166.701 250.861 165.992 251.202 165.276L251.915 165.615C251.574 166.331 251.234 167.047 250.885 167.748ZM144.403 165.363C144.031 164.67 143.666 163.969 143.302 163.269L144.007 162.907C144.371 163.607 144.736 164.3 145.108 165.001L144.411 165.37L144.403 165.363ZM21.9328 164.481L21.188 164.206L22.012 161.986L22.7567 162.261L21.9328 164.473V164.481ZM252.929 163.466L252.208 163.135C252.533 162.427 252.866 161.71 253.183 160.986L253.904 161.309C253.579 162.033 253.254 162.749 252.921 163.466H252.929ZM142.216 161.16C141.86 160.459 141.503 159.751 141.147 159.042L141.86 158.688C142.216 159.396 142.565 160.097 142.929 160.797L142.224 161.152L142.216 161.16ZM23.5886 160.05L22.8439 159.774L23.6758 157.562L24.4205 157.838L23.5886 160.05ZM254.862 159.137L254.133 158.822C254.442 158.106 254.759 157.381 255.068 156.649L255.797 156.956C255.488 157.688 255.179 158.413 254.862 159.137ZM140.093 156.925C139.744 156.217 139.396 155.508 139.055 154.8L139.768 154.453C140.117 155.162 140.457 155.87 140.806 156.579L140.093 156.925ZM25.2603 155.626L24.5156 155.351L25.3633 153.139L26.1002 153.422L25.2524 155.626H25.2603ZM256.716 154.776L255.979 154.477C256.28 153.753 256.574 153.021 256.875 152.289L257.611 152.58C257.318 153.312 257.017 154.044 256.716 154.776ZM138.017 152.667C137.677 151.958 137.336 151.242 136.995 150.534L137.708 150.195C138.049 150.911 138.39 151.62 138.73 152.328L138.017 152.667ZM26.9558 151.218L26.219 150.935L27.0826 148.731L27.8194 149.015L26.9558 151.218ZM258.491 150.392L257.754 150.101C258.039 149.369 258.332 148.637 258.61 147.905L259.346 148.188C259.061 148.928 258.776 149.66 258.483 150.392H258.491ZM135.981 148.385L134.975 146.236L135.696 145.906L136.702 148.046L135.981 148.377V148.385ZM28.6909 146.819L27.9541 146.527C28.2472 145.795 28.5404 145.055 28.8335 144.331L29.5703 144.623C29.2772 145.355 28.984 146.079 28.6909 146.819ZM260.202 145.968L259.457 145.693C259.735 144.961 260.012 144.221 260.289 143.481L261.034 143.757C260.757 144.497 260.479 145.236 260.202 145.976V145.968ZM133.977 144.095L132.978 141.954L133.699 141.624L134.698 143.765L133.977 144.095ZM30.4577 142.434L29.7209 142.135C30.0219 141.403 30.323 140.671 30.6241 139.947L31.3529 140.246C31.0519 140.97 30.7508 141.702 30.4577 142.434ZM261.85 141.537L261.105 141.269C261.375 140.53 261.644 139.79 261.906 139.05L262.65 139.317C262.381 140.065 262.119 140.805 261.842 141.545L261.85 141.537ZM131.98 139.821L130.982 137.68L131.703 137.35L132.701 139.491L131.98 139.821ZM32.272 138.074L31.5431 137.767C31.8521 137.035 32.1611 136.311 32.4701 135.587L33.1989 135.894C32.89 136.618 32.581 137.342 32.272 138.066V138.074ZM263.451 137.082L262.706 136.822C262.967 136.083 263.229 135.335 263.482 134.595L264.235 134.855C263.973 135.602 263.712 136.342 263.451 137.09V137.082ZM129.976 135.532L128.969 133.391L129.69 133.06L130.697 135.201L129.976 135.532ZM34.1259 133.729L33.397 133.414C33.7139 132.69 34.0309 131.966 34.3557 131.25L35.0846 131.565C34.7677 132.281 34.4508 133.005 34.1339 133.729H34.1259ZM264.995 132.611L264.243 132.36C264.496 131.612 264.75 130.872 265.003 130.124L265.756 130.376C265.503 131.124 265.249 131.872 264.995 132.619V132.611ZM127.947 131.258C127.607 130.541 127.266 129.833 126.925 129.125L127.638 128.786C127.979 129.494 128.32 130.211 128.66 130.919L127.947 131.258ZM36.0432 129.416L35.3223 129.093C35.655 128.369 35.9798 127.653 36.3126 126.944L37.0336 127.275C36.7008 127.983 36.376 128.699 36.0432 129.424V129.416ZM266.509 128.133L265.756 127.889C266.002 127.141 266.255 126.393 266.501 125.646L267.253 125.89C267.008 126.637 266.754 127.385 266.509 128.133ZM125.895 126.999C125.547 126.291 125.198 125.583 124.857 124.874L125.571 124.528C125.919 125.236 126.268 125.945 126.616 126.653L125.903 126.999H125.895ZM38.0398 125.134L37.3267 124.795C37.6674 124.079 38.016 123.371 38.3567 122.662L39.0697 123.009C38.7211 123.709 38.3804 124.418 38.0398 125.134ZM267.99 123.638L267.238 123.394L267.966 121.159L268.719 121.403L267.99 123.646V123.638ZM123.804 122.765C123.447 122.056 123.091 121.356 122.734 120.655L123.439 120.293C123.796 120.994 124.16 121.694 124.517 122.403L123.812 122.757L123.804 122.765ZM40.1235 120.899L39.4183 120.545C39.7749 119.837 40.1393 119.128 40.4958 118.436L41.201 118.798C40.8365 119.49 40.48 120.191 40.1235 120.899ZM269.44 119.152L268.687 118.916L269.408 116.665L270.161 116.901L269.44 119.152ZM121.641 118.562C121.268 117.861 120.904 117.168 120.532 116.476L121.229 116.106C121.601 116.799 121.974 117.491 122.346 118.2L121.641 118.562ZM42.3022 116.712L41.605 116.342C41.9853 115.642 42.3577 114.949 42.7459 114.264L43.4352 114.642C43.0549 115.327 42.6746 116.011 42.3022 116.712ZM447.346 116.334C446.538 116.311 445.746 116.263 444.961 116.208L445.017 115.421C445.793 115.476 446.577 115.523 447.37 115.547L447.346 116.334ZM442.576 115.98C441.784 115.885 440.992 115.767 440.208 115.642L440.342 114.862C441.111 114.988 441.895 115.106 442.672 115.193L442.576 115.972V115.98ZM437.862 115.185C437.078 115.012 436.302 114.823 435.541 114.618L435.755 113.863C436.492 114.067 437.26 114.256 438.037 114.421L437.862 115.193V115.185ZM270.866 114.658L270.114 114.421L270.827 112.163L271.579 112.399L270.866 114.658ZM119.383 114.414C118.995 113.721 118.606 113.036 118.218 112.359L118.908 111.966C119.296 112.651 119.692 113.335 120.08 114.028L119.391 114.406L119.383 114.414ZM433.251 113.926C432.499 113.682 431.746 113.406 431.001 113.115L431.294 112.383C432.023 112.666 432.768 112.934 433.505 113.178L433.259 113.926H433.251ZM44.5919 112.588L43.9026 112.194C44.2988 111.501 44.7028 110.824 45.1069 110.148L45.7882 110.549C45.3842 111.218 44.988 111.895 44.5919 112.58V112.588ZM428.807 112.186C428.086 111.863 427.365 111.509 426.66 111.147L427.024 110.447C427.721 110.809 428.426 111.155 429.131 111.47L428.807 112.186ZM117.03 110.313C116.626 109.636 116.214 108.959 115.802 108.298L116.475 107.881C116.887 108.55 117.299 109.227 117.711 109.911L117.03 110.313ZM272.292 110.132L271.54 109.896L272.245 107.629L272.997 107.865L272.292 110.132ZM424.576 109.99C423.895 109.589 423.213 109.172 422.548 108.731L422.983 108.077C423.641 108.51 424.307 108.928 424.972 109.313L424.568 109.99H424.576ZM47.0242 108.542L46.3508 108.125C46.7707 107.448 47.1985 106.779 47.6342 106.125L48.2997 106.558C47.8719 107.212 47.452 107.873 47.0321 108.542H47.0242ZM420.591 107.369C419.957 106.905 419.323 106.417 418.705 105.913L419.204 105.299C419.814 105.795 420.44 106.275 421.066 106.732L420.599 107.361L420.591 107.369ZM114.542 106.306C114.114 105.645 113.678 104.984 113.235 104.339L113.892 103.898C114.336 104.543 114.772 105.205 115.208 105.874L114.542 106.299V106.306ZM273.703 105.606L272.942 105.378L273.639 103.119L274.4 103.347L273.703 105.606ZM49.6149 104.591L48.9573 104.15C49.4089 103.489 49.8685 102.843 50.328 102.206L50.9697 102.662C50.5102 103.292 50.0586 103.929 49.607 104.583L49.6149 104.591ZM416.891 104.362C416.297 103.835 415.71 103.292 415.14 102.741L415.694 102.174C416.257 102.725 416.835 103.253 417.422 103.772L416.891 104.362ZM111.888 102.402C111.428 101.757 110.961 101.127 110.486 100.506L111.119 100.033C111.595 100.655 112.07 101.293 112.538 101.946L111.896 102.402H111.888ZM275.105 101.088L274.344 100.86L275.042 98.6008L275.802 98.829L275.105 101.088ZM413.46 101.057C412.914 100.482 412.375 99.8995 411.852 99.3013L412.446 98.7818C412.969 99.3721 413.5 99.9467 414.039 100.513L413.46 101.057ZM52.3879 100.789L51.762 100.309C52.2532 99.6712 52.7444 99.0494 53.2436 98.4434L53.8615 98.9392C53.3703 99.5374 52.8791 100.151 52.3958 100.781L52.3879 100.789ZM109.036 98.6716C108.537 98.0577 108.03 97.4595 107.522 96.8692L108.125 96.3497C108.64 96.94 109.155 97.5461 109.662 98.1679L109.044 98.6637L109.036 98.6716ZM410.307 97.4988C409.808 96.8928 409.309 96.271 408.825 95.6413L409.451 95.1611C409.935 95.783 410.418 96.3969 410.917 97.003L410.307 97.4988ZM55.3669 97.1525L54.7726 96.633C55.3035 96.027 55.8343 95.4445 56.373 94.8699L56.9514 95.4052C56.4206 95.9719 55.8898 96.5465 55.3669 97.1446V97.1525ZM276.507 96.5858L275.747 96.3575L276.444 94.0986L277.204 94.3268L276.507 96.5858ZM105.938 95.1297C105.391 94.5551 104.837 93.9884 104.29 93.461L104.845 92.8943C105.407 93.4374 105.97 94.0041 106.516 94.5944L105.938 95.1297ZM58.5994 93.7444L58.0448 93.1855C58.6231 92.6267 59.2094 92.0757 59.7878 91.5641L60.3186 92.1544C59.7482 92.6582 59.1698 93.2013 58.5994 93.7523V93.7444ZM407.407 93.7444C406.948 93.1068 406.488 92.4614 406.045 91.8002L406.702 91.3595C407.146 92.0127 407.597 92.6503 408.057 93.2879L407.415 93.7444H407.407ZM277.91 92.0757L277.149 91.8396L277.854 89.5806L278.607 89.8167L277.902 92.0757H277.91ZM102.563 91.8711C101.969 91.3516 101.359 90.8478 100.756 90.3756L101.248 89.7616C101.858 90.2418 102.476 90.7534 103.086 91.2886L102.563 91.8789V91.8711ZM62.1091 90.6432L61.61 90.0293C62.2438 89.5255 62.8856 89.0375 63.5115 88.5967L63.971 89.2343C63.353 89.6751 62.7192 90.1473 62.1012 90.6432H62.1091ZM404.721 89.8246C404.294 89.1634 403.874 88.4944 403.454 87.8175L404.127 87.4082C404.539 88.0773 404.959 88.7463 405.379 89.3996L404.714 89.8246H404.721ZM98.8708 88.9903C98.2211 88.5416 97.5635 88.1166 96.9059 87.7231L97.3179 87.0462C97.9914 87.4476 98.6648 87.8805 99.3303 88.3449L98.8787 88.9903H98.8708ZM65.92 87.9434L65.5001 87.2744C66.1814 86.8494 66.8786 86.4558 67.5679 86.0859L67.9403 86.7785C67.2669 87.1327 66.5855 87.5263 65.92 87.9434ZM279.32 87.5656L278.559 87.3295L279.272 85.0705L280.033 85.3067L279.32 87.5578V87.5656ZM94.8619 86.5896C94.1647 86.2354 93.4516 85.9049 92.7386 85.6136L93.0475 84.8895C93.7764 85.1886 94.5054 85.527 95.2184 85.8891L94.8619 86.5896ZM402.242 85.7789C401.845 85.102 401.449 84.4094 401.061 83.7167L401.75 83.331C402.139 84.0158 402.527 84.7006 402.923 85.3775L402.234 85.771L402.242 85.7789ZM70.0477 85.771L69.7309 85.0469C70.4677 84.7242 71.2124 84.433 71.9571 84.1732L72.2186 84.9131C71.4976 85.165 70.7687 85.4483 70.0557 85.7632L70.0477 85.771ZM90.5598 84.8108C89.823 84.5747 89.0703 84.3621 88.3177 84.1811L88.4999 83.4176C89.2684 83.5986 90.0448 83.819 90.8054 84.063L90.5598 84.8108ZM74.4449 84.2519L74.2468 83.4885C75.0153 83.2917 75.8076 83.1185 76.592 82.9926L76.7266 83.7718C75.966 83.8978 75.1976 84.063 74.4449 84.2598V84.2519ZM86.028 83.7325C85.2674 83.6144 84.483 83.5278 83.7145 83.4648L83.7779 82.6777C84.5702 82.7407 85.3704 82.8273 86.1548 82.9532L86.0359 83.7325H86.028ZM79.0401 83.4727L78.9767 82.6856C79.769 82.6226 80.5771 82.5833 81.3773 82.5833V83.3704C80.6009 83.3704 79.8086 83.4019 79.0401 83.4648V83.4727ZM280.746 83.0634L279.993 82.8273L280.714 80.5762L281.467 80.8123L280.746 83.0634ZM399.928 81.6388C399.556 80.9461 399.191 80.2456 398.827 79.5372L399.532 79.1751C399.896 79.8757 400.261 80.5683 400.633 81.261L399.936 81.6309L399.928 81.6388ZM282.188 78.5612L281.435 78.3172L282.164 76.0661L282.917 76.3101L282.188 78.5612ZM397.749 77.4278C397.401 76.7194 397.052 76.011 396.704 75.2947L397.417 74.9563C397.757 75.6647 398.106 76.3731 398.455 77.0736L397.741 77.4199L397.749 77.4278ZM283.654 74.0669L282.901 73.8229C283.147 73.0751 283.4 72.3274 283.646 71.5796L284.398 71.8236C284.153 72.5714 283.899 73.3191 283.654 74.0669ZM395.689 73.1538C395.357 72.4376 395.024 71.7213 394.699 71.005L395.42 70.6823C395.745 71.3986 396.078 72.1149 396.41 72.8232L395.689 73.1538ZM285.151 69.5804L284.398 69.3285L285.159 67.0853L285.912 67.3372L285.151 69.5725V69.5804ZM393.717 68.8405C393.392 68.1164 393.075 67.4001 392.758 66.676L393.487 66.3612C393.804 67.0853 394.121 67.8015 394.438 68.5257L393.717 68.8405ZM286.688 65.1097L285.935 64.8499C286.197 64.1022 286.458 63.3623 286.72 62.6146L287.464 62.8743C287.203 63.6142 286.941 64.354 286.68 65.1018L286.688 65.1097ZM391.823 64.4957C391.514 63.7716 391.205 63.0475 390.896 62.3155L391.625 62.0085C391.934 62.7326 392.243 63.4568 392.552 64.1809L391.823 64.4879V64.4957ZM288.265 60.6547L287.52 60.3871C287.789 59.6393 288.059 58.8994 288.328 58.1596L289.073 58.4272C288.803 59.1592 288.534 59.8991 288.265 60.6468V60.6547ZM389.969 60.1352L389.058 57.947L389.787 57.6479L390.698 59.8361L389.969 60.1352ZM289.897 56.2233L289.152 55.9478C289.429 55.2079 289.714 54.4681 289.992 53.7361L290.737 54.0194C290.459 54.7514 290.174 55.4834 289.897 56.2312V56.2233ZM388.147 55.7589L387.244 53.5786L387.981 53.2795L388.884 55.4598L388.147 55.7589ZM291.584 51.8077L290.847 51.5243C291.141 50.7844 291.426 50.0524 291.719 49.3204L292.456 49.6117C292.163 50.3358 291.869 51.0678 291.584 51.8077ZM386.341 51.3905L385.43 49.2102L386.158 48.9111L387.07 51.0993L386.341 51.3984V51.3905ZM293.351 47.4235L292.614 47.1244C292.915 46.3924 293.224 45.6604 293.533 44.9442L294.262 45.2511C293.953 45.9674 293.652 46.6994 293.351 47.4314V47.4235ZM384.518 47.0221C384.217 46.2901 383.908 45.566 383.599 44.8418L384.328 44.5349C384.637 45.259 384.946 45.9831 385.247 46.7151L384.518 47.0142V47.0221ZM295.197 43.0787L294.468 42.7639C294.785 42.0319 295.11 41.3156 295.435 40.5994L296.156 40.9221C295.831 41.6305 295.514 42.3546 295.197 43.0787ZM382.664 42.6773C382.355 41.9532 382.039 41.229 381.722 40.5128L382.451 40.1979C382.767 40.9142 383.084 41.6383 383.401 42.3703L382.672 42.6773H382.664ZM297.138 38.7812L296.417 38.4506C296.75 37.7264 297.091 37.0181 297.439 36.3097L298.152 36.6481C297.812 37.3486 297.471 38.0649 297.138 38.7812ZM380.755 38.3561C380.43 37.632 380.105 36.9157 379.773 36.2073L380.494 35.8768C380.826 36.593 381.151 37.3093 381.476 38.0334L380.755 38.3561ZM299.19 34.5308L298.485 34.1766C298.842 33.4682 299.206 32.7598 299.57 32.0672L300.276 32.4293C299.911 33.1219 299.555 33.8224 299.198 34.5308H299.19ZM378.766 34.0664C378.426 33.3502 378.077 32.6418 377.736 31.9412L378.45 31.5949C378.798 32.2954 379.147 33.0117 379.487 33.728L378.774 34.0664H378.766ZM301.377 30.3513L300.68 29.9735C301.06 29.273 301.448 28.5803 301.836 27.9034L302.526 28.2891C302.137 28.966 301.757 29.6508 301.377 30.3513ZM376.667 29.8397C376.302 29.1392 375.938 28.4387 375.566 27.7539L376.263 27.3839C376.635 28.0766 377 28.7771 377.372 29.4855L376.667 29.8476V29.8397ZM303.714 26.2584L303.033 25.857C303.445 25.1722 303.857 24.4953 304.277 23.8341L304.95 24.2513C304.538 24.9124 304.126 25.5815 303.714 26.2584ZM374.433 25.6917C374.044 24.999 373.648 24.3221 373.244 23.6531L373.926 23.2517C374.33 23.9286 374.726 24.6133 375.114 25.306L374.425 25.6917H374.433ZM306.233 22.2757L305.576 21.8428C306.02 21.1737 306.463 20.5204 306.915 19.8829L307.564 20.3315C307.121 20.9691 306.677 21.6145 306.233 22.2757ZM372.024 21.646C371.596 20.9769 371.169 20.3158 370.741 19.6704L371.398 19.2296C371.834 19.8829 372.27 20.544 372.698 21.2209L372.024 21.6381V21.646ZM308.951 18.4346L308.317 17.9623C308.8 17.3248 309.284 16.6951 309.775 16.0891L310.393 16.5771C309.91 17.1831 309.426 17.7971 308.951 18.4346ZM369.386 17.7498C368.926 17.1123 368.451 16.4826 367.976 15.8687L368.602 15.3885C369.085 16.0103 369.56 16.64 370.028 17.2933L369.386 17.7498ZM311.898 14.7746L311.296 14.263C311.819 13.6569 312.35 13.0666 312.889 12.492L313.467 13.0272C312.936 13.5939 312.413 14.1764 311.898 14.7746ZM366.494 14.0426C365.979 13.4365 365.448 12.8462 364.933 12.2874L365.512 11.7521C366.042 12.3188 366.573 12.917 367.096 13.531L366.494 14.0426ZM315.115 11.3507L314.56 10.7919C315.139 10.2252 315.725 9.68205 316.303 9.17044L316.826 9.76076C316.256 10.2645 315.677 10.7997 315.115 11.3586V11.3507ZM363.285 10.6108C362.715 10.0599 362.137 9.52463 361.558 9.02876L362.081 8.43843C362.667 8.95005 363.262 9.49315 363.84 10.052L363.285 10.6187V10.6108ZM318.617 8.24953L318.126 7.63559C318.751 7.13972 319.393 6.65959 320.035 6.20307L320.494 6.84849C319.869 7.28927 319.243 7.76153 318.625 8.24953H318.617ZM359.744 7.54901C359.118 7.06888 358.476 6.61236 357.842 6.18733L358.286 5.53403C358.936 5.96694 359.593 6.43133 360.227 6.9272L359.744 7.54901ZM322.443 5.56552L322.024 4.89648C322.705 4.47932 323.402 4.0779 324.099 3.70796L324.472 4.40061C323.79 4.76268 323.109 5.14835 322.443 5.55765V5.56552ZM355.854 4.95945C355.18 4.57377 354.483 4.21171 353.786 3.87325L354.127 3.16486C354.84 3.50331 355.553 3.88112 356.25 4.27467L355.854 4.95945ZM326.571 3.39312L326.246 2.67686C326.975 2.35415 327.72 2.05505 328.465 1.79531L328.734 2.53518C328.013 2.79492 327.284 3.07828 326.571 3.39312ZM351.639 2.95234C350.918 2.66899 350.181 2.41712 349.436 2.18886L349.666 1.43324C350.427 1.66937 351.187 1.92911 351.924 2.22034L351.631 2.95234H351.639ZM330.953 1.83466L330.739 1.07904C331.507 0.866528 332.291 0.685496 333.068 0.535947L333.218 1.3073C332.458 1.45685 331.689 1.63002 330.945 1.83466H330.953ZM347.17 1.58279C346.426 1.40963 345.649 1.26795 344.873 1.14201L344.992 0.362784C345.784 0.48872 346.576 0.638269 347.345 0.811431L347.17 1.57492V1.58279ZM335.532 0.945238L335.437 0.166009C336.229 0.0715566 337.029 0.00858878 337.829 -0.0228952L337.861 0.764205C337.085 0.795689 336.292 0.858657 335.524 0.953109L335.532 0.945238ZM342.551 0.866529C341.783 0.803561 340.999 0.756334 340.214 0.740592L340.23 -0.0465088C341.03 -0.0307668 341.83 0.0164606 342.615 0.0794287L342.544 0.866529H342.551Z" fill="#E2C761"/>
</g>
</g>
<defs>
<filter id="filter0_f_77_318" x="0" y="88" width="429" height="261" filterUnits="userSpaceOnUse" color-interpolation-filters="sRGB">
<feFlood flood-opacity="0" result="BackgroundImageFix"/>
<feBlend mode="normal" in="SourceGraphic" in2="BackgroundImageFix" result="shape"/>
<feGaussianBlur stdDeviation="1" result="effect1_foregroundBlur_77_318"/>
</filter>
<linearGradient id="paint0_linear_77_318" x1="183.279" y1="103.135" x2="241.408" y2="359.189" gradientUnits="userSpaceOnUse">
<stop offset="0.13" stop-color="#B7D4FB" stop-opacity="0.3"/>
<stop offset="0.17" stop-color="#BFD8FB" stop-opacity="0.27"/>
<stop offset="0.3" stop-color="#DAE9FC" stop-opacity="0.15"/>
<stop offset="0.43" stop-color="#EEF5FE" stop-opacity="0.07"/>
<stop offset="0.56" stop-color="#FAFCFE" stop-opacity="0.02"/>
<stop offset="0.68" stop-color="white" stop-opacity="0"/>
</linearGradient>
<clipPath id="clip0_77_318">
<rect width="425" height="257" fill="white" transform="translate(2 90)"/>
</clipPath>
<clipPath id="clip1_77_318">
<rect width="425" height="269" fill="white" transform="translate(2)"/>
</clipPath>
</defs>
</svg>
