<svg width="1440" height="625" viewBox="0 0 1440 625" fill="none" xmlns="http://www.w3.org/2000/svg">
<g clip-path="url(#clip0_77_527)">
<g opacity="0.04" clip-path="url(#clip1_77_527)" filter="url(#filter0_f_77_527)">
<path d="M24.5807 418.669H11.5996V443.703H24.5807V418.669Z" fill="#EBF7FF"/>
<path d="M19.0385 388.053H17.1211V418.669H19.0385V388.053Z" fill="#EBF7FF"/>
<path d="M19.0385 443.703H17.1211V474.319H19.0385V443.703Z" fill="#EBF7FF"/>
<path d="M58.8073 421.202H45.8262V485.867H58.8073V421.202Z" fill="#EBF7FF"/>
<path d="M53.2846 390.585H51.3672V421.202H53.2846V390.585Z" fill="#EBF7FF"/>
<path d="M53.2846 485.867H51.3672V516.484H53.2846V485.867Z" fill="#EBF7FF"/>
<path d="M95.1803 413.682H82.1992V432.443H95.1803V413.682Z" fill="#EBF7FF"/>
<path d="M89.6381 383.085H87.7207V413.701H89.6381V383.085Z" fill="#EBF7FF"/>
<path d="M89.6381 432.443H87.7207V463.059H89.6381V432.443Z" fill="#EBF7FF"/>
<path d="M127.297 440.212H114.316V524.598H127.297V440.212Z" fill="#EBF7FF"/>
<path d="M121.755 409.596H119.838V440.212H121.755V409.596Z" fill="#EBF7FF"/>
<path d="M121.755 524.598H119.838V555.214H121.755V524.598Z" fill="#EBF7FF"/>
<path d="M161.524 474.319H148.543V505.914H161.524V474.319Z" fill="#EBF7FF"/>
<path d="M156.001 443.703H154.084V474.319H156.001V443.703Z" fill="#EBF7FF"/>
<path d="M156.001 505.895H154.084V536.511H156.001V505.895Z" fill="#EBF7FF"/>
<path d="M197.419 436.356H184.438V496.303H197.419V436.356Z" fill="#EBF7FF"/>
<path d="M191.876 405.759H189.959V436.375H191.876V405.759Z" fill="#EBF7FF"/>
<path d="M191.876 496.322H189.959V526.938H191.876V496.322Z" fill="#EBF7FF"/>
<path d="M230.016 342.685H217.035V417.921H230.016V342.685Z" fill="#EBF7FF"/>
<path d="M224.474 312.069H222.557V342.685H224.474V312.069Z" fill="#EBF7FF"/>
<path d="M224.474 417.921H222.557V448.537H224.474V417.921Z" fill="#EBF7FF"/>
<path d="M264.26 369.043H251.279V387.746H264.26V369.043Z" fill="#EBF7FF"/>
<path d="M258.718 338.427H256.801V369.043H258.718V338.427Z" fill="#EBF7FF"/>
<path d="M258.718 387.746H256.801V418.362H258.718V387.746Z" fill="#EBF7FF"/>
<path d="M298.487 338.427H285.506V413.874H298.487V338.427Z" fill="#EBF7FF"/>
<path d="M292.964 307.83H291.047V338.446H292.964V307.83Z" fill="#EBF7FF"/>
<path d="M292.964 413.874H291.047V444.49H292.964V413.874Z" fill="#EBF7FF"/>
<path d="M332.733 329.008H319.752V398.566H332.733V329.008Z" fill="#EBF7FF"/>
<path d="M327.191 298.392H325.273V329.008H327.191V298.392Z" fill="#EBF7FF"/>
<path d="M327.191 398.566H325.273V429.182H327.191V398.566Z" fill="#EBF7FF"/>
<path d="M366.979 290.45H353.998V309.767H366.979V290.45Z" fill="#EBF7FF"/>
<path d="M361.437 259.834H359.52V290.45H361.437V259.834Z" fill="#EBF7FF"/>
<path d="M361.437 309.767H359.52V340.383H361.437V309.767Z" fill="#EBF7FF"/>
<path d="M401.206 388.955H388.225V433.594H401.206V388.955Z" fill="#EBF7FF"/>
<path d="M395.683 358.339H393.766V388.955H395.683V358.339Z" fill="#EBF7FF"/>
<path d="M395.683 433.594H393.766V464.21H395.683V433.594Z" fill="#EBF7FF"/>
<path d="M435.45 372.592H422.469V390.585H435.45V372.592Z" fill="#EBF7FF"/>
<path d="M429.908 341.976H427.99V372.592H429.908V341.976Z" fill="#EBF7FF"/>
<path d="M429.908 390.585H427.99V421.202H429.908V390.585Z" fill="#EBF7FF"/>
<path d="M469.696 505.53H456.715V572.172H469.696V505.53Z" fill="#EBF7FF"/>
<path d="M464.154 474.933H462.236V505.549H464.154V474.933Z" fill="#EBF7FF"/>
<path d="M464.154 572.172H462.236V602.788H464.154V572.172Z" fill="#EBF7FF"/>
<path d="M503.942 497.703H490.961V512.532H503.942V497.703Z" fill="#EBF7FF"/>
<path d="M498.4 467.087H496.482V497.703H498.4V467.087Z" fill="#EBF7FF"/>
<path d="M498.4 512.532H496.482V543.148H498.4V512.532Z" fill="#EBF7FF"/>
<path d="M538.169 461.39H525.188V484.39H538.169V461.39Z" fill="#EBF7FF"/>
<path d="M532.646 430.774H530.729V461.39H532.646V430.774Z" fill="#EBF7FF"/>
<path d="M532.646 484.39H530.729V515.006H532.646V484.39Z" fill="#EBF7FF"/>
<path d="M572.413 491.929H559.432V514.987H572.413V491.929Z" fill="#EBF7FF"/>
<path d="M566.871 461.332H564.953V491.949H566.871V461.332Z" fill="#EBF7FF"/>
<path d="M566.871 514.987H564.953V545.603H566.871V514.987Z" fill="#EBF7FF"/>
<path d="M606.467 496.936H593.486V563.578H606.467V496.936Z" fill="#EBF7FF"/>
<path d="M600.925 466.32H599.008V496.936H600.925V466.32Z" fill="#EBF7FF"/>
<path d="M600.925 563.578H599.008V594.194H600.925V563.578Z" fill="#EBF7FF"/>
<path d="M640.885 558.188H627.904V587.518H640.885V558.188Z" fill="#EBF7FF"/>
<path d="M635.363 527.571H633.445V558.188H635.363V527.571Z" fill="#EBF7FF"/>
<path d="M635.363 587.518H633.445V618.134H635.363V587.518Z" fill="#EBF7FF"/>
<path d="M675.132 594.443H662.15V619.592H675.132V594.443Z" fill="#EBF7FF"/>
<path d="M669.589 563.827H667.672V594.443H669.589V563.827Z" fill="#EBF7FF"/>
<path d="M669.589 619.592H667.672V650.208H669.589V619.592Z" fill="#EBF7FF"/>
<path d="M709.376 554.965H696.395V665.919H709.376V554.965Z" fill="#EBF7FF"/>
<path d="M703.833 524.368H701.916V554.984H703.833V524.368Z" fill="#EBF7FF"/>
<path d="M738.771 606.375H736.854V636.991H738.771V606.375Z" fill="#EBF7FF"/>
<path d="M777.848 575.644H764.867V641.614H777.848V575.644Z" fill="#EBF7FF"/>
<path d="M772.326 545.028H770.408V575.644H772.326V545.028Z" fill="#EBF7FF"/>
<path d="M812.094 551.684H799.113V636.205H812.094V551.684Z" fill="#EBF7FF"/>
<path d="M806.552 521.088H804.635V551.704H806.552V521.088Z" fill="#EBF7FF"/>
<path d="M846.512 539.139H833.531V562.945H846.512V539.139Z" fill="#EBF7FF"/>
<path d="M840.97 508.542H839.053V539.158H840.97V508.542Z" fill="#EBF7FF"/>
<path d="M840.97 562.945H839.053V593.561H840.97V562.945Z" fill="#EBF7FF"/>
<path d="M880.565 532.77H867.584V606.145H880.565V532.77Z" fill="#EBF7FF"/>
<path d="M875.042 502.173H873.125V532.789H875.042V502.173Z" fill="#EBF7FF"/>
<path d="M875.042 606.164H873.125V636.78H875.042V606.164Z" fill="#EBF7FF"/>
<path d="M914.811 475.892H901.83V547.33H914.811V475.892Z" fill="#EBF7FF"/>
<path d="M909.269 445.295H907.352V475.911H909.269V445.295Z" fill="#EBF7FF"/>
<path d="M909.269 547.33H907.352V577.946H909.269V547.33Z" fill="#EBF7FF"/>
<path d="M949.057 525.941H936.076V550.84H949.057V525.941Z" fill="#EBF7FF"/>
<path d="M943.515 495.344H941.598V525.96H943.515V495.344Z" fill="#EBF7FF"/>
<path d="M943.515 550.84H941.598V581.456H943.515V550.84Z" fill="#EBF7FF"/>
<path d="M983.303 549.728H970.322V570.963H983.303V549.728Z" fill="#EBF7FF"/>
<path d="M977.761 519.112H975.844V549.728H977.761V519.112Z" fill="#EBF7FF"/>
<path d="M977.761 570.963H975.844V601.579H977.761V570.963Z" fill="#EBF7FF"/>
<path d="M1017.53 469.907H1004.55V576.392H1017.53V469.907Z" fill="#EBF7FF"/>
<path d="M1012.01 439.291H1010.09V469.907H1012.01V439.291Z" fill="#EBF7FF"/>
<path d="M1012.01 576.392H1010.09V607.008H1012.01V576.392Z" fill="#EBF7FF"/>
<path d="M1052.79 523.409H1039.81V542.131H1052.79V523.409Z" fill="#EBF7FF"/>
<path d="M1047.25 492.793H1045.33V523.409H1047.25V492.793Z" fill="#EBF7FF"/>
<path d="M1047.25 542.131H1045.33V572.747H1047.25V542.131Z" fill="#EBF7FF"/>
<path d="M1086.12 496.303H1073.13V515.045H1086.12V496.303Z" fill="#EBF7FF"/>
<path d="M1080.57 465.687H1078.66V496.303H1080.57V465.687Z" fill="#EBF7FF"/>
<path d="M1080.57 515.026H1078.66V545.642H1080.57V515.026Z" fill="#EBF7FF"/>
<path d="M1120.25 424.904H1107.27V538.851H1120.25V424.904Z" fill="#EBF7FF"/>
<path d="M1114.72 394.288H1112.81V424.904H1114.72V394.288Z" fill="#EBF7FF"/>
<path d="M1114.72 538.851H1112.81V569.467H1114.72V538.851Z" fill="#EBF7FF"/>
<path d="M1154.49 477.331H1141.51V507.525H1154.49V477.331Z" fill="#EBF7FF"/>
<path d="M1148.95 446.715H1147.03V477.331H1148.95V446.715Z" fill="#EBF7FF"/>
<path d="M1148.95 507.525H1147.03V538.141H1148.95V507.525Z" fill="#EBF7FF"/>
<path d="M1188.74 515.313H1175.76V549.574H1188.74V515.313Z" fill="#EBF7FF"/>
<path d="M1183.19 484.697H1181.28V515.313H1183.19V484.697Z" fill="#EBF7FF"/>
<path d="M1183.19 549.574H1181.28V580.19H1183.19V549.574Z" fill="#EBF7FF"/>
<path d="M1223.04 503.458H1210.06V602.98H1223.04V503.458Z" fill="#EBF7FF"/>
<path d="M1217.5 472.842H1215.58V503.458H1217.5V472.842Z" fill="#EBF7FF"/>
<path d="M1217.5 602.98H1215.58V633.596H1217.5V602.98Z" fill="#EBF7FF"/>
<path d="M1257.21 436.107H1244.23V460.584H1257.21V436.107Z" fill="#EBF7FF"/>
<path d="M1251.69 405.491H1249.77V436.107H1251.69V405.491Z" fill="#EBF7FF"/>
<path d="M1251.69 460.584H1249.77V491.2H1251.69V460.584Z" fill="#EBF7FF"/>
<path d="M1291.45 411.974H1278.47V461.179H1291.45V411.974Z" fill="#EBF7FF"/>
<path d="M1285.91 381.358H1283.99V411.974H1285.91V381.358Z" fill="#EBF7FF"/>
<path d="M1285.91 461.179H1283.99V491.795H1285.91V461.179Z" fill="#EBF7FF"/>
<path d="M1325.7 384.869H1312.72V407.965H1325.7V384.869Z" fill="#EBF7FF"/>
<path d="M1320.16 354.253H1318.24V384.869H1320.16V354.253Z" fill="#EBF7FF"/>
<path d="M1320.16 407.965H1318.24V438.581H1320.16V407.965Z" fill="#EBF7FF"/>
<path d="M1359.93 393.175H1346.95V418.842H1359.93V393.175Z" fill="#EBF7FF"/>
<path d="M1354.4 362.559H1352.49V393.175H1354.4V362.559Z" fill="#EBF7FF"/>
<path d="M1354.4 418.842H1352.49V449.458H1354.4V418.842Z" fill="#EBF7FF"/>
<path d="M1394.17 301.135H1381.19V393.751H1394.17V301.135Z" fill="#EBF7FF"/>
<path d="M1388.63 270.538H1386.71V301.154H1388.63V270.538Z" fill="#EBF7FF"/>
<path d="M1388.63 393.751H1386.71V424.367H1388.63V393.751Z" fill="#EBF7FF"/>
<path d="M1428.42 349.131H1415.44V437.987H1428.42V349.131Z" fill="#EBF7FF"/>
<path d="M1422.88 318.515H1420.96V349.131H1422.88V318.515Z" fill="#EBF7FF"/>
<path d="M1422.88 437.987H1420.96V468.603H1422.88V437.987Z" fill="#EBF7FF"/>
<path d="M1439.04 563.463H1437.05V561.544H1439.04V563.463ZM1431.28 563.405C1429.36 563.386 1427.44 563.328 1425.5 563.29L1425.56 561.372C1427.48 561.429 1429.4 561.468 1431.31 561.487L1431.28 563.405ZM1419.73 563.117C1417.82 563.041 1415.9 562.964 1413.98 562.868L1414.08 560.95C1415.99 561.046 1417.91 561.122 1419.81 561.18L1419.73 563.098V563.117ZM1408.23 562.58C1406.31 562.465 1404.39 562.35 1402.48 562.216L1402.61 560.297C1404.53 560.432 1406.43 560.547 1408.34 560.662L1408.23 562.58ZM1396.72 561.813C1394.81 561.66 1392.91 561.506 1390.99 561.333L1391.16 559.415C1393.08 559.588 1394.98 559.741 1396.9 559.895L1396.74 561.813H1396.72ZM1385.24 560.815C1383.34 560.624 1381.42 560.432 1379.5 560.221L1379.72 558.322C1381.63 558.533 1383.53 558.725 1385.43 558.897L1385.24 560.815ZM1373.79 559.588C1371.89 559.358 1369.97 559.127 1368.08 558.897L1368.31 556.998C1370.2 557.228 1372.1 557.478 1374 557.689L1373.77 559.588H1373.79ZM1362.36 558.149C1360.46 557.9 1358.57 557.631 1356.65 557.362L1356.92 555.463C1358.82 555.732 1360.71 556.001 1362.61 556.25L1362.36 558.149ZM1350.95 556.518C1349.06 556.231 1347.16 555.924 1345.26 555.617L1345.57 553.718C1347.46 554.025 1349.36 554.312 1351.24 554.6L1350.95 556.499V556.518ZM1339.58 554.677C1337.69 554.351 1335.81 554.025 1333.91 553.699L1334.25 551.819C1336.13 552.164 1338.03 552.49 1339.91 552.797L1339.58 554.696V554.677ZM1328.25 552.663C1326.37 552.317 1324.47 551.953 1322.59 551.588L1322.96 549.709C1324.84 550.073 1326.72 550.437 1328.6 550.783L1328.25 552.663ZM1316.94 550.457C1315.06 550.073 1313.18 549.689 1311.3 549.286L1311.7 547.407C1313.58 547.809 1315.46 548.193 1317.32 548.577L1316.94 550.457ZM1305.66 548.078C1303.78 547.675 1301.92 547.253 1300.05 546.831L1300.47 544.97C1302.35 545.392 1304.21 545.814 1306.07 546.217L1305.66 548.097V548.078ZM1294.43 545.527C1292.57 545.085 1290.69 544.644 1288.83 544.203L1289.27 542.342C1291.13 542.803 1292.99 543.244 1294.87 543.666L1294.43 545.527ZM1283.23 542.822C1281.37 542.361 1279.51 541.882 1277.65 541.402L1278.13 539.542C1279.99 540.021 1281.85 540.481 1283.69 540.942L1283.23 542.803V542.822ZM1272.07 539.964C1270.21 539.484 1268.37 538.985 1266.51 538.467L1267.01 536.626C1268.87 537.124 1270.71 537.623 1272.55 538.103L1272.05 539.964H1272.07ZM1260.95 536.952C1259.11 536.434 1257.25 535.916 1255.41 535.398L1255.93 533.556C1257.77 534.074 1259.61 534.592 1261.45 535.11L1260.93 536.952H1260.95ZM1249.87 533.806C1248.03 533.269 1246.18 532.732 1244.34 532.175L1244.9 530.334C1246.74 530.89 1248.58 531.427 1250.4 531.964L1249.87 533.806ZM1238.82 530.506C1237 529.95 1235.16 529.394 1233.32 528.818L1233.89 526.977C1235.73 527.552 1237.56 528.108 1239.38 528.665L1238.82 530.506ZM1227.83 527.092C1226.01 526.516 1224.17 525.922 1222.35 525.327L1222.95 523.505C1224.77 524.099 1226.59 524.675 1228.41 525.269L1227.83 527.092ZM1216.89 523.543C1215.06 522.948 1213.24 522.334 1211.42 521.721L1212.04 519.898C1213.86 520.512 1215.68 521.107 1217.48 521.721L1216.89 523.543ZM1205.98 519.879C1204.15 519.265 1202.35 518.632 1200.53 517.999L1201.16 516.177C1202.98 516.81 1204.79 517.443 1206.59 518.057L1205.98 519.879ZM1195.1 516.1C1193.3 515.448 1191.5 514.815 1189.68 514.162L1190.33 512.359C1192.13 513.011 1193.93 513.644 1195.74 514.297L1195.1 516.1ZM1184.27 512.206C1182.47 511.554 1180.67 510.882 1178.86 510.211L1179.53 508.408C1181.34 509.079 1183.14 509.731 1184.92 510.403L1184.27 512.206ZM1173.48 508.197C1171.67 507.525 1169.89 506.834 1168.09 506.163L1168.78 504.379C1170.56 505.07 1172.36 505.741 1174.15 506.412L1173.48 508.216V508.197ZM1162.72 504.091C1160.94 503.401 1159.15 502.71 1157.35 502L1158.06 500.216C1159.84 500.926 1161.63 501.617 1163.41 502.307L1162.72 504.091ZM1152 499.89C1150.22 499.18 1148.43 498.471 1146.65 497.742L1147.38 495.958C1149.16 496.687 1150.95 497.396 1152.71 498.106L1152 499.89ZM1141.32 495.574C1139.56 494.845 1137.77 494.116 1135.99 493.387L1136.72 491.622C1138.48 492.351 1140.27 493.08 1142.03 493.809L1141.3 495.593L1141.32 495.574ZM1130.68 491.181C1128.91 490.433 1127.15 489.704 1125.37 488.956L1126.11 487.191C1127.88 487.939 1129.64 488.687 1131.41 489.416L1130.66 491.181H1130.68ZM1120.07 486.692C1118.31 485.944 1116.55 485.177 1114.78 484.41L1115.55 482.645C1117.31 483.412 1119.08 484.16 1120.82 484.927L1120.07 486.692ZM1109.51 482.127C1107.75 481.359 1106 480.592 1104.24 479.806L1105 478.06C1106.77 478.846 1108.51 479.614 1110.26 480.381L1109.49 482.146L1109.51 482.127ZM1098.98 477.465L1093.73 475.106L1094.52 473.36L1099.77 475.72L1098.98 477.465ZM1088.49 472.727C1086.75 471.941 1085 471.135 1083.26 470.329L1084.06 468.584C1085.81 469.389 1087.55 470.176 1089.3 470.981L1088.51 472.727H1088.49ZM1078.04 467.912L1072.83 465.476L1073.63 463.73L1078.85 466.166L1078.04 467.912ZM1067.63 463.02C1065.91 462.196 1064.16 461.371 1062.44 460.546L1063.26 458.819C1064.99 459.644 1066.73 460.469 1068.46 461.294L1067.63 463.02ZM1057.24 458.052C1055.51 457.227 1053.79 456.383 1052.06 455.539L1052.91 453.813C1054.63 454.657 1056.36 455.482 1058.08 456.326L1057.26 458.052H1057.24ZM1046.89 453.026C1045.16 452.182 1043.45 451.338 1041.73 450.494L1042.57 448.767C1044.3 449.612 1046 450.456 1047.73 451.3L1046.89 453.026ZM1036.57 447.923L1031.41 445.353L1032.27 443.646L1037.41 446.216L1036.55 447.923H1036.57ZM1026.27 442.763L1021.13 440.154L1022 438.447L1027.12 441.056L1026.25 442.763H1026.27ZM1016.01 437.545L1010.9 434.917L1011.78 433.21L1016.9 435.838L1016.01 437.545ZM1005.79 432.27C1004.09 431.388 1002.4 430.505 1000.69 429.604L1001.58 427.896C1003.28 428.779 1004.97 429.68 1006.68 430.563L1005.79 432.27ZM995.594 426.937C993.907 426.055 992.2 425.153 990.513 424.252L991.414 422.563C993.101 423.465 994.808 424.367 996.495 425.249L995.613 426.937H995.594ZM985.432 421.547L980.35 418.823L981.252 417.135L986.314 419.84L985.412 421.528L985.432 421.547ZM975.288 416.099L970.226 413.356L971.147 411.668L976.209 414.411L975.288 416.099ZM965.183 410.593L960.141 407.812L961.061 406.124L966.104 408.886L965.183 410.574V410.593ZM955.098 405.03L950.074 402.229L951.014 400.561L956.037 403.361L955.117 405.049L955.098 405.03ZM945.05 399.429L940.027 396.609L940.966 394.94L945.971 397.76L945.031 399.429H945.05ZM935.022 393.77L930.018 390.931L930.957 389.262L935.962 392.101L935.022 393.77ZM925.013 388.072L920.028 385.214L920.986 383.545L925.972 386.403L925.013 388.072ZM915.042 382.337L910.057 379.459L911.016 377.81L915.982 380.687L915.023 382.356L915.042 382.337ZM905.091 376.543L900.125 373.628L901.102 371.978L906.069 374.874L905.11 376.524L905.091 376.543ZM895.158 370.712L890.211 367.777L891.189 366.127L896.136 369.043L895.158 370.693V370.712ZM885.264 364.842L880.317 361.888L881.295 360.238L886.242 363.192L885.264 364.842ZM875.39 358.933L870.462 355.96L871.459 354.31L876.387 357.264L875.409 358.914L875.39 358.933ZM865.534 352.987L860.606 349.994L861.603 348.364L866.512 351.337L865.515 352.987H865.534ZM855.697 347.002L850.789 344.009L851.786 342.378L856.694 345.371L855.697 347.002ZM845.88 340.997L840.991 337.986L842.007 336.355L846.896 339.367L845.899 340.997H845.88ZM836.082 334.955L831.192 331.924L832.209 330.293L837.098 333.324L836.082 334.955ZM826.303 328.874L821.433 325.824L822.449 324.193L827.319 327.243L826.303 328.874ZM816.562 322.754L811.692 319.685L812.708 318.054L817.579 321.124L816.562 322.754ZM806.822 316.616L801.951 313.527L802.987 311.916L807.838 315.004L806.803 316.616H806.822ZM797.1 310.439L792.249 307.331L793.285 305.72L798.136 308.808L797.1 310.42V310.439ZM787.417 304.243L782.566 301.135L783.602 299.524L788.433 302.631L787.398 304.243H787.417ZM777.734 298.008L772.902 294.881L773.938 293.27L778.77 296.397L777.734 298.008ZM768.07 291.754L763.257 288.608L764.293 286.997L769.106 290.143L768.07 291.754ZM758.425 285.462L753.613 282.316L754.667 280.705L759.48 283.851L758.425 285.462ZM748.8 279.151L743.987 275.986L745.042 274.394L749.835 277.559L748.781 279.17L748.8 279.151ZM739.194 272.821L734.4 269.675L735.455 268.063L740.248 271.229L739.194 272.821ZM729.587 266.51L724.774 263.364L725.829 261.752L730.642 264.898L729.587 266.51ZM719.962 260.218L715.149 257.091L716.184 255.479L721.016 258.625L719.962 260.237V260.218ZM710.317 253.964L705.485 250.837L706.52 249.226L711.352 252.353L710.317 253.964ZM700.653 247.729L695.821 244.622L696.856 243.01L701.708 246.118L700.672 247.729H700.653ZM690.97 241.533L686.119 238.445L687.154 236.833L692.005 239.922L690.97 241.533ZM681.268 235.376L676.397 232.306L677.414 230.676L682.284 233.745L681.268 235.376ZM671.527 229.256L666.657 226.206L667.673 224.576L672.562 227.626L671.546 229.256H671.527ZM661.767 223.175L656.878 220.144L657.875 218.514L662.764 221.545L661.748 223.175H661.767ZM651.988 217.133L647.08 214.14L648.077 212.509L652.985 215.521L651.988 217.152V217.133ZM642.171 211.147L637.243 208.174L638.24 206.524L643.168 209.498L642.171 211.147ZM632.315 205.22L627.387 202.266L628.365 200.616L633.312 203.57L632.334 205.22H632.315ZM622.44 199.35L617.493 196.434L618.471 194.784L623.438 197.7L622.46 199.35H622.44ZM612.527 193.537C610.859 192.578 609.21 191.619 607.561 190.66L608.52 188.991C610.169 189.95 611.837 190.909 613.505 191.868L612.546 193.518L612.527 193.537ZM602.576 187.783C600.908 186.823 599.239 185.883 597.59 184.943L598.53 183.275C600.198 184.214 601.866 185.174 603.534 186.133L602.576 187.802V187.783ZM592.586 182.104C590.918 181.164 589.249 180.224 587.562 179.284L588.502 177.616C590.17 178.555 591.838 179.495 593.525 180.435L592.586 182.104ZM582.538 176.503C580.851 175.582 579.183 174.642 577.495 173.721L578.416 172.033C580.103 172.954 581.771 173.875 583.459 174.815L582.538 176.503ZM572.453 170.978C570.765 170.057 569.078 169.156 567.391 168.254L568.292 166.566C569.979 167.468 571.666 168.388 573.354 169.309L572.433 170.997L572.453 170.978ZM562.328 165.53C560.641 164.629 558.935 163.727 557.247 162.845L558.129 161.156C559.817 162.039 561.523 162.941 563.211 163.842L562.309 165.53H562.328ZM552.147 160.178C550.44 159.296 548.734 158.413 547.047 157.531L547.929 155.824C549.635 156.706 551.342 157.588 553.048 158.471L552.166 160.178H552.147ZM541.927 154.922C540.22 154.059 538.495 153.196 536.788 152.332L537.651 150.625C539.358 151.488 541.083 152.351 542.79 153.215L541.927 154.922ZM531.649 149.762C529.924 148.918 528.217 148.054 526.492 147.23L527.335 145.503C529.061 146.347 530.787 147.191 532.493 148.054L531.649 149.781V149.762ZM521.334 144.717C519.608 143.892 517.882 143.048 516.156 142.242L516.981 140.516C518.707 141.34 520.432 142.165 522.177 143.009L521.353 144.736L521.334 144.717ZM510.96 139.787C509.215 138.981 507.49 138.156 505.745 137.37L506.55 135.624C508.295 136.43 510.021 137.235 511.766 138.06L510.96 139.806V139.787ZM500.529 134.972C498.784 134.185 497.04 133.399 495.295 132.612L496.081 130.867C497.826 131.653 499.571 132.439 501.335 133.226L500.548 134.972H500.529ZM490.041 130.272C488.277 129.505 486.532 128.737 484.768 127.97L485.535 126.205C487.299 126.972 489.044 127.74 490.808 128.507L490.041 130.272ZM479.495 125.706C477.731 124.958 475.967 124.21 474.203 123.481L474.931 121.716C476.696 122.445 478.46 123.193 480.243 123.961L479.495 125.725V125.706ZM468.892 121.275C467.108 120.546 465.344 119.836 463.561 119.107L464.27 117.323C466.054 118.033 467.818 118.762 469.601 119.491L468.872 121.275H468.892ZM458.231 116.997C456.447 116.287 454.664 115.597 452.881 114.906L453.571 113.122C455.354 113.813 457.157 114.503 458.94 115.213L458.231 116.997ZM447.512 112.854C445.729 112.182 443.926 111.511 442.124 110.839L442.795 109.036C444.598 109.708 446.4 110.379 448.183 111.05L447.512 112.854ZM436.736 108.883C434.934 108.231 433.131 107.597 431.329 106.945L431.962 105.142C433.764 105.775 435.586 106.427 437.388 107.08L436.736 108.883ZM425.902 105.065C424.081 104.432 422.278 103.818 420.457 103.224L421.07 101.401C422.892 102.015 424.714 102.629 426.516 103.262L425.883 105.085L425.902 105.065ZM415.011 101.401C413.19 100.807 411.387 100.231 409.566 99.6365L410.141 97.8142C411.963 98.3897 413.784 98.9843 415.606 99.579L415.011 101.401ZM404.101 97.9293C402.28 97.3729 400.458 96.8166 398.617 96.2603L399.173 94.4188C401.014 94.9751 402.836 95.5314 404.657 96.0877L404.082 97.9293H404.101ZM393.133 94.6298C391.293 94.0927 389.471 93.5747 387.63 93.0376L388.148 91.196C389.989 91.714 391.829 92.2511 393.67 92.7882L393.133 94.6298ZM1.16953 93.5555L0.728516 91.6948C2.60761 91.2536 4.46753 90.8315 6.34662 90.4095L6.76846 92.2895C4.90854 92.7115 3.02945 93.1335 1.16953 93.5747V93.5555ZM382.031 91.4838C380.191 90.985 378.35 90.4862 376.49 89.9875L376.988 88.1267C378.848 88.6255 380.689 89.1243 382.549 89.623L382.051 91.4646L382.031 91.4838ZM12.3866 91.0234L11.9647 89.1434C13.8438 88.7214 15.7229 88.3186 17.5828 87.9157L17.9855 89.7957C16.1256 90.1985 14.2465 90.6013 12.3674 91.0234H12.3866ZM23.6228 88.5871L23.2201 86.7072C25.0992 86.3043 26.9783 85.9207 28.8574 85.537L29.2409 87.417C27.3618 87.8006 25.5019 88.1843 23.6228 88.5871ZM370.949 88.5488C369.089 88.0692 367.248 87.6088 365.388 87.1484L365.848 85.2876C367.708 85.748 369.568 86.2084 371.428 86.688L370.949 88.5488ZM34.8782 86.266L34.4947 84.3861C36.3738 84.0024 38.2721 83.6379 40.1512 83.2734L40.5155 85.1534C38.6364 85.5178 36.7573 85.8823 34.8782 86.266ZM359.808 85.7864C357.948 85.3452 356.088 84.904 354.209 84.482L354.631 82.6212C356.51 83.0432 358.37 83.4844 360.249 83.9257L359.808 85.7864ZM46.1528 84.0599L45.7884 82.18C47.6867 81.8155 49.5658 81.4702 51.4449 81.1249L51.79 83.0049C49.9109 83.3502 48.0318 83.6955 46.1336 84.0599H46.1528ZM348.591 83.2351C346.712 82.8322 344.852 82.4294 342.973 82.0265L343.376 80.1466C345.255 80.5494 347.134 80.9523 349.013 81.3551L348.61 83.2351H348.591ZM57.4465 81.9882L57.1014 80.1082C58.9996 79.7629 60.8787 79.4368 62.777 79.1107L63.103 81.0098C61.2239 81.3359 59.3256 81.6621 57.4465 82.0074V81.9882ZM337.336 80.8756C335.457 80.4919 333.578 80.1274 331.698 79.7629L332.063 77.883C333.961 78.2475 335.84 78.612 337.719 78.9956L337.336 80.8756ZM68.7594 80.0315L68.4526 78.1324C70.3509 77.8063 72.2492 77.4993 74.1283 77.1924L74.435 79.0915C72.5559 79.3985 70.6577 79.7054 68.7594 80.0123V80.0315ZM326.023 78.7079C324.144 78.3626 322.245 78.0173 320.347 77.6912L320.673 75.7921C322.571 76.1182 324.47 76.4635 326.349 76.8088L326.004 78.6887L326.023 78.7079ZM80.1107 78.2091L79.8231 76.31C81.7213 76.0222 83.6196 75.7345 85.5179 75.4468L85.8055 77.3459C83.9264 77.6336 82.0281 77.9214 80.1299 78.2091H80.1107ZM314.691 76.732C312.792 76.4251 310.894 76.1182 308.996 75.8304L309.284 73.9313C311.182 74.219 313.099 74.526 314.997 74.8521L314.691 76.7512V76.732ZM91.4811 76.5018L91.2127 74.6027C93.1109 74.3341 95.0092 74.0656 96.9075 73.797L97.1759 75.6961C95.2777 75.9455 93.3794 76.2141 91.4811 76.4826V76.5018ZM303.301 74.948C301.403 74.6794 299.524 74.4109 297.625 74.1423L297.894 72.2432C299.792 72.5118 301.69 72.7803 303.589 73.0489L303.32 74.948H303.301ZM102.871 74.948L102.621 73.0489C104.539 72.7995 106.437 72.5501 108.335 72.3199L108.566 74.219C106.667 74.4492 104.769 74.6986 102.871 74.948ZM114.28 73.5285L114.049 71.6293C115.967 71.3991 117.865 71.1881 119.763 70.9771L119.974 72.8762C118.076 73.0873 116.178 73.2983 114.26 73.5285H114.28ZM291.931 73.3942C290.032 73.1448 288.134 72.9146 286.236 72.6844L286.466 70.7853C288.383 71.0155 290.282 71.2457 292.18 71.4951L291.931 73.3942ZM125.707 72.2816L125.516 70.3824C127.433 70.1906 129.351 69.9988 131.249 69.807L131.441 71.7253C129.542 71.9171 127.625 72.1089 125.727 72.3007L125.707 72.2816ZM280.522 72.0322C278.624 71.8212 276.725 71.6102 274.808 71.4183L275 69.5C276.917 69.6919 278.815 69.9029 280.733 70.1139L280.522 72.013V72.0322ZM137.135 71.1689L136.963 69.2506C138.88 69.078 140.798 68.9054 142.696 68.7519L142.849 70.6702C140.951 70.8237 139.034 70.9963 137.135 71.1689ZM269.094 70.8812C267.196 70.7086 265.278 70.5359 263.38 70.3824L263.533 68.4641C265.451 68.6176 267.368 68.7903 269.266 68.9629L269.094 70.8812ZM148.583 70.229L148.429 68.3107C150.347 68.1572 152.264 68.0229 154.182 67.8887L154.316 69.807C152.417 69.9412 150.5 70.0755 148.583 70.229ZM257.647 69.9221C255.748 69.7686 253.831 69.6343 251.914 69.5192L252.048 67.6009C253.965 67.7352 255.883 67.8695 257.8 68.0038L257.647 69.9221ZM160.049 69.4425L159.934 67.5242C161.851 67.4091 163.769 67.294 165.686 67.1981L165.782 69.1164C163.884 69.2123 161.966 69.3274 160.049 69.4425ZM246.18 69.1547C244.282 69.0396 242.365 68.9437 240.447 68.8478L240.543 66.9295C242.461 67.0254 244.378 67.1213 246.295 67.2364L246.18 69.1547ZM171.515 68.8094L171.419 66.8911C173.337 66.7952 175.254 66.7185 177.172 66.6418L177.248 68.5601C175.331 68.6368 173.433 68.7135 171.515 68.8094ZM234.714 68.5792C232.797 68.5025 230.898 68.4258 228.981 68.3682L229.039 66.4499C230.956 66.5075 232.873 66.5842 234.791 66.6609L234.714 68.5792ZM183.001 68.3682L182.943 66.4499C184.861 66.3924 186.778 66.3348 188.696 66.2965L188.734 68.2148C186.816 68.2531 184.918 68.3107 183.001 68.3682ZM223.229 68.2148C221.311 68.1764 219.413 68.138 217.496 68.0997L217.534 66.1814C219.451 66.2197 221.369 66.2581 223.286 66.2965L223.248 68.2148H223.229ZM194.505 68.0997L194.467 66.1814C196.404 66.143 198.321 66.1238 200.239 66.1046V68.0229C198.34 68.0229 196.423 68.0613 194.486 68.0997H194.505ZM211.743 68.0229C209.845 68.0229 207.927 68.0038 206.01 68.0038V66.0854H206.163C207.927 66.0854 209.845 66.0854 211.743 66.0854V68.0038V68.0229Z" fill="#E2C761"/>
<path d="M0.958984 242.301L71.6168 174.776L191.879 362.137L291.049 281.05L503.924 563.904L635.364 466.205L815.297 184.349L975.73 62.7284L1143.85 137.6L1303.65 10.7233L1439.04 146.673V873H0.958984V242.301Z" fill="url(#paint0_linear_77_527)"/>
<path d="M71.6162 180.186C74.6025 180.186 77.0234 177.764 77.0234 174.776C77.0234 171.789 74.6025 169.367 71.6162 169.367C68.6299 169.367 66.209 171.789 66.209 174.776C66.209 177.764 68.6299 180.186 71.6162 180.186Z" fill="#B7D4FB"/>
<path d="M71.6161 185.442C65.7295 185.442 60.9551 180.646 60.9551 174.776C60.9551 168.906 65.7487 164.111 71.6161 164.111C77.4834 164.111 82.277 168.906 82.277 174.776C82.277 180.646 77.4834 185.442 71.6161 185.442ZM71.6161 165.703C66.6307 165.703 62.5657 169.77 62.5657 174.757C62.5657 179.745 66.6307 183.812 71.6161 183.812C76.6014 183.812 80.6664 179.745 80.6664 174.757C80.6664 169.77 76.6014 165.703 71.6161 165.703Z" fill="#B7D4FB"/>
<path d="M197.285 362.137C197.285 365.13 194.869 367.547 191.878 367.547C188.887 367.547 186.471 365.13 186.471 362.137C186.471 359.144 188.887 356.727 191.878 356.727C194.869 356.727 197.285 359.144 197.285 362.137Z" fill="#B7D4FB"/>
<path d="M191.878 372.803C185.991 372.803 181.217 368.007 181.217 362.137C181.217 356.267 186.01 351.471 191.878 351.471C197.745 351.471 202.539 356.267 202.539 362.137C202.539 368.007 197.745 372.803 191.878 372.803ZM191.878 353.063C186.892 353.063 182.827 357.13 182.827 362.118C182.827 367.105 186.892 371.172 191.878 371.172C196.863 371.172 200.928 367.105 200.928 362.118C200.928 357.13 196.863 353.063 191.878 353.063Z" fill="#B7D4FB"/>
<path d="M291.048 286.46C294.034 286.46 296.455 284.038 296.455 281.05C296.455 278.063 294.034 275.641 291.048 275.641C288.061 275.641 285.641 278.063 285.641 281.05C285.641 284.038 288.061 286.46 291.048 286.46Z" fill="#B7D4FB"/>
<path d="M291.048 291.716C285.161 291.716 280.387 286.92 280.387 281.05C280.387 275.18 285.18 270.385 291.048 270.385C296.915 270.385 301.709 275.18 301.709 281.05C301.709 286.92 296.915 291.716 291.048 291.716ZM291.048 271.977C286.062 271.977 281.997 276.044 281.997 281.031C281.997 286.019 286.062 290.086 291.048 290.086C296.033 290.086 300.098 286.019 300.098 281.031C300.098 276.044 296.033 271.977 291.048 271.977Z" fill="#B7D4FB"/>
<path d="M503.923 569.294C506.909 569.294 509.33 566.872 509.33 563.885C509.33 560.897 506.909 558.475 503.923 558.475C500.937 558.475 498.516 560.897 498.516 563.885C498.516 566.872 500.937 569.294 503.923 569.294Z" fill="#B7D4FB"/>
<path d="M503.923 574.551C498.036 574.551 493.262 569.755 493.262 563.885C493.262 558.015 498.055 553.219 503.923 553.219C509.79 553.219 514.584 558.015 514.584 563.885C514.584 569.755 509.79 574.551 503.923 574.551ZM503.923 554.811C498.937 554.811 494.872 558.878 494.872 563.866C494.872 568.853 498.937 572.92 503.923 572.92C508.908 572.92 512.973 568.853 512.973 563.866C512.973 558.878 508.908 554.811 503.923 554.811Z" fill="#B7D4FB"/>
<path d="M635.364 471.519C638.35 471.519 640.771 469.097 640.771 466.109C640.771 463.121 638.35 460.699 635.364 460.699C632.378 460.699 629.957 463.121 629.957 466.109C629.957 469.097 632.378 471.519 635.364 471.519Z" fill="#B7D4FB"/>
<path d="M635.364 476.775C629.478 476.775 624.703 471.979 624.703 466.109C624.703 460.239 629.497 455.443 635.364 455.443C641.231 455.443 646.025 460.239 646.025 466.109C646.025 471.979 641.231 476.775 635.364 476.775ZM635.364 457.035C630.379 457.035 626.314 461.102 626.314 466.09C626.314 471.077 630.379 475.144 635.364 475.144C640.349 475.144 644.414 471.077 644.414 466.09C644.414 461.102 640.349 457.035 635.364 457.035Z" fill="#B7D4FB"/>
<path d="M815.315 189.739C818.302 189.739 820.723 187.317 820.723 184.33C820.723 181.342 818.302 178.92 815.315 178.92C812.329 178.92 809.908 181.342 809.908 184.33C809.908 187.317 812.329 189.739 815.315 189.739Z" fill="#B7D4FB"/>
<path d="M815.315 195.015C809.429 195.015 804.654 190.219 804.654 184.349C804.654 178.479 809.448 173.683 815.315 173.683C821.183 173.683 825.976 178.479 825.976 184.349C825.976 190.219 821.183 195.015 815.315 195.015ZM815.315 175.275C810.33 175.275 806.265 179.342 806.265 184.33C806.265 189.317 810.33 193.384 815.315 193.384C820.301 193.384 824.366 189.317 824.366 184.33C824.366 179.342 820.301 175.275 815.315 175.275Z" fill="#B7D4FB"/>
<path d="M975.69 68.1381C978.677 68.1381 981.098 65.7161 981.098 62.7285C981.098 59.7408 978.677 57.3188 975.69 57.3188C972.704 57.3188 970.283 59.7408 970.283 62.7285C970.283 65.7161 972.704 68.1381 975.69 68.1381Z" fill="#B7D4FB"/>
<path d="M975.69 73.3943C969.804 73.3943 965.029 68.5985 965.029 62.7285C965.029 56.8585 969.823 52.0627 975.69 52.0627C981.558 52.0627 986.351 56.8585 986.351 62.7285C986.351 68.5985 981.558 73.3943 975.69 73.3943ZM975.69 53.6549C970.705 53.6549 966.64 57.7217 966.64 62.7093C966.64 67.6969 970.705 71.7637 975.69 71.7637C980.676 71.7637 984.741 67.6969 984.741 62.7093C984.741 57.7217 980.676 53.6549 975.69 53.6549Z" fill="#B7D4FB"/>
<path d="M1149.22 137.619C1149.22 140.611 1146.8 143.028 1143.81 143.028C1140.82 143.028 1138.4 140.611 1138.4 137.619C1138.4 134.626 1140.82 132.209 1143.81 132.209C1146.8 132.209 1149.22 134.626 1149.22 137.619Z" fill="#B7D4FB"/>
<path d="M1143.81 148.285C1137.92 148.285 1133.15 143.489 1133.15 137.619C1133.15 131.749 1137.94 126.953 1143.81 126.953C1149.68 126.953 1154.47 131.749 1154.47 137.619C1154.47 143.489 1149.68 148.285 1143.81 148.285ZM1143.81 128.545C1138.83 128.545 1134.76 132.612 1134.76 137.6C1134.76 142.587 1138.83 146.654 1143.81 146.654C1148.8 146.654 1152.86 142.587 1152.86 137.6C1152.86 132.612 1148.8 128.545 1143.81 128.545Z" fill="#B7D4FB"/>
<path d="M1303.69 16.0753C1306.67 16.0753 1309.1 13.6534 1309.1 10.6657C1309.1 7.67807 1306.67 5.2561 1303.69 5.2561C1300.7 5.2561 1298.28 7.67807 1298.28 10.6657C1298.28 13.6534 1300.7 16.0753 1303.69 16.0753Z" fill="#B7D4FB"/>
<path d="M1303.69 21.3507C1297.8 21.3507 1293.03 16.5549 1293.03 10.6849C1293.03 4.81492 1297.82 0.019165 1303.69 0.019165C1309.56 0.019165 1314.35 4.81492 1314.35 10.6849C1314.35 16.5549 1309.56 21.3507 1303.69 21.3507ZM1303.69 1.61136C1298.7 1.61136 1294.64 5.67815 1294.64 10.6657C1294.64 15.6533 1298.7 19.7201 1303.69 19.7201C1308.67 19.7201 1312.74 15.6533 1312.74 10.6657C1312.74 5.67815 1308.67 1.61136 1303.69 1.61136Z" fill="#B7D4FB"/>
<path d="M0.958984 242.301L71.6168 174.776L191.879 362.137L291.049 281.05L503.924 563.904L635.364 466.205L815.297 184.349L975.73 62.7284L1143.85 137.6L1303.65 10.7233L1439.04 146.673" stroke="#B7D4FB" stroke-linecap="round" stroke-linejoin="round"/>
</g>
<path opacity="0.16" d="M237.399 735.659C236.095 735.659 234.791 735.621 233.487 735.563L233.583 733.645C235.462 733.741 237.361 733.76 239.259 733.702L239.316 735.621C238.684 735.621 238.051 735.64 237.399 735.64V735.659ZM245.088 735.256L244.877 733.357C246.737 733.165 248.616 732.877 250.438 732.532L250.802 734.412C248.923 734.776 247.005 735.064 245.088 735.275V735.256ZM227.697 735.083C225.779 734.853 223.843 734.546 221.964 734.182L222.328 732.302C224.169 732.666 226.048 732.954 227.927 733.184L227.697 735.083ZM256.439 733.069L255.921 731.228C257.724 730.729 259.526 730.134 261.29 729.501L261.942 731.304C260.14 731.976 258.28 732.57 256.42 733.088L256.439 733.069ZM216.307 732.877C214.447 732.379 212.587 731.803 210.766 731.17L211.398 729.348C213.182 729.961 215.003 730.518 216.825 731.017L216.326 732.858L216.307 732.877ZM205.358 729.117C203.594 728.369 201.811 727.564 200.085 726.7L200.929 724.974C202.636 725.818 204.361 726.624 206.106 727.353L205.358 729.117ZM267.33 729.098L266.544 727.353C268.251 726.585 269.938 725.722 271.606 724.82L272.527 726.509C270.82 727.429 269.075 728.312 267.33 729.098ZM194.966 723.976C193.317 723.036 191.649 722.02 190.019 720.965L191.054 719.353C192.665 720.389 194.295 721.387 195.925 722.307L194.966 723.976ZM277.512 723.574L276.476 721.943C278.049 720.945 279.64 719.871 281.174 718.759L282.305 720.312C280.733 721.444 279.103 722.557 277.512 723.574ZM185.244 717.704C183.691 716.591 182.138 715.421 180.623 714.212L181.812 712.697C183.308 713.886 184.842 715.018 186.376 716.131L185.264 717.684L185.244 717.704ZM286.907 716.783L285.699 715.286C287.137 714.136 288.595 712.889 290.033 711.584L291.317 713.023C289.841 714.347 288.365 715.593 286.907 716.783ZM176.137 710.548C174.679 709.301 173.241 708.016 171.822 706.712L173.126 705.311C174.545 706.616 175.964 707.882 177.402 709.11L176.156 710.568L176.137 710.548ZM295.536 709.071L294.194 707.709C295.536 706.386 296.859 705.024 298.182 703.623L299.582 704.947C298.239 706.366 296.897 707.748 295.536 709.09V709.071ZM167.623 702.702C166.262 701.36 164.9 699.979 163.577 698.578L164.958 697.255C166.281 698.636 167.623 699.998 168.965 701.341L167.623 702.702ZM303.455 700.631L302.017 699.365C303.263 697.945 304.49 696.487 305.698 694.991L307.175 696.199C305.948 697.715 304.701 699.192 303.455 700.631ZM159.647 694.339C158.362 692.919 157.096 691.48 155.831 690.003L157.288 688.756C158.534 690.214 159.8 691.653 161.085 693.053L159.666 694.339H159.647ZM310.78 691.672L309.265 690.502C310.415 689.006 311.547 687.471 312.678 685.917L314.231 687.049C313.08 688.622 311.93 690.176 310.78 691.691V691.672ZM152.111 685.572C150.903 684.095 149.695 682.599 148.487 681.083L150.002 679.894C151.191 681.409 152.399 682.886 153.607 684.364L152.13 685.572H152.111ZM317.567 682.311L315.995 681.217C317.069 679.664 318.123 678.071 319.197 676.46L320.808 677.515C319.734 679.146 318.679 680.738 317.586 682.311H317.567ZM144.959 676.518C143.809 675.002 142.639 673.448 141.508 671.895L143.061 670.763C144.192 672.317 145.342 673.851 146.493 675.367L144.959 676.537V676.518ZM323.895 672.643L322.265 671.626C323.262 670.015 324.278 668.384 325.256 666.734L326.905 667.713C325.908 669.382 324.892 671.012 323.895 672.643ZM138.114 667.214C137.002 665.66 135.889 664.087 134.797 662.495L136.369 661.401C137.462 662.974 138.574 664.547 139.686 666.101L138.133 667.214H138.114ZM329.839 662.744L328.171 661.785C329.11 660.135 330.069 658.466 331.009 656.778L332.677 657.718C331.737 659.406 330.778 661.095 329.839 662.744ZM131.518 657.737C130.444 656.145 129.37 654.553 128.296 652.942L129.888 651.887C130.942 653.479 132.016 655.071 133.09 656.663L131.499 657.737H131.518ZM335.457 652.654L333.77 651.752C334.671 650.083 335.572 648.395 336.454 646.669L338.161 647.551C337.259 649.278 336.358 650.966 335.457 652.654ZM125.133 648.127C124.078 646.515 123.043 644.904 122.007 643.293L123.618 642.257C124.653 643.868 125.708 645.48 126.743 647.091L125.133 648.146V648.127ZM340.787 642.41L339.081 641.547C339.944 639.84 340.787 638.132 341.65 636.406L343.376 637.25C342.532 638.996 341.67 640.703 340.807 642.41H340.787ZM118.901 638.439C117.866 636.828 116.849 635.197 115.814 633.567L117.444 632.55C118.46 634.181 119.495 635.792 120.512 637.423L118.901 638.459V638.439ZM345.869 632.051L344.143 631.227C344.968 629.5 345.773 627.774 346.597 626.028L348.342 626.834C347.518 628.579 346.712 630.325 345.888 632.051H345.869ZM112.746 628.656L109.697 623.764L111.327 622.748L114.376 627.639L112.746 628.656ZM350.739 621.597L348.994 620.81C349.78 619.065 350.566 617.319 351.353 615.573L353.097 616.36C352.311 618.125 351.525 619.87 350.72 621.616L350.739 621.597ZM106.668 618.873L103.638 613.981L105.268 612.964L108.297 617.856L106.668 618.873ZM355.437 611.065L353.673 610.298C354.44 608.552 355.207 606.787 355.954 605.023L357.719 605.771C356.952 607.555 356.204 609.32 355.437 611.065ZM100.628 609.089L97.5981 604.198L99.228 603.181L102.277 608.073L100.647 609.089H100.628ZM359.981 600.476L358.217 599.728C358.965 597.963 359.693 596.198 360.441 594.414L362.205 595.143C361.477 596.927 360.729 598.692 359.981 600.457V600.476ZM94.5302 599.325C93.514 597.695 92.4786 596.064 91.4623 594.453L93.073 593.417C94.0892 595.028 95.1246 596.659 96.1409 598.289L94.5111 599.306L94.5302 599.325ZM836.006 592.918C834.778 592.918 833.551 592.918 832.324 592.86L832.382 590.942C834.261 591 836.197 591.019 838.076 590.981L838.115 592.899C837.405 592.899 836.696 592.918 835.986 592.918H836.006ZM843.906 592.63L843.771 590.712C845.67 590.578 847.568 590.386 849.409 590.137L849.658 592.036C847.779 592.285 845.842 592.477 843.906 592.63ZM826.553 592.554C824.616 592.4 822.679 592.208 820.8 591.959L821.05 590.06C822.91 590.29 824.808 590.501 826.725 590.654L826.572 592.573L826.553 592.554ZM855.353 591.115L854.988 589.235C856.848 588.87 858.708 588.468 860.53 588.007L861.009 589.868C859.168 590.348 857.251 590.75 855.372 591.115H855.353ZM815.067 591.076C813.188 590.731 811.29 590.348 809.411 589.887L809.852 588.026C811.692 588.468 813.572 588.851 815.412 589.177L815.067 591.057V591.076ZM364.391 589.83L362.608 589.101C363.337 587.336 364.046 585.552 364.775 583.768L366.558 584.478C365.848 586.262 365.12 588.046 364.391 589.83ZM88.3752 589.619C87.3398 587.988 86.2852 586.396 85.2498 584.784L86.8605 583.729C87.915 585.322 88.9505 586.933 90.0051 588.564L88.3944 589.599L88.3752 589.619ZM803.812 588.429C801.971 587.892 800.111 587.297 798.309 586.664L798.941 584.861C800.706 585.475 802.527 586.07 804.349 586.607L803.812 588.448V588.429ZM866.55 588.295L865.975 586.473C867.778 585.897 869.561 585.264 871.325 584.593L872.015 586.377C870.232 587.067 868.391 587.7 866.55 588.295ZM792.901 584.593C791.118 583.864 789.354 583.077 787.609 582.252L788.434 580.526C790.14 581.332 791.885 582.118 793.63 582.828L792.901 584.593ZM877.346 584.151L876.56 582.406C878.285 581.619 879.992 580.794 881.66 579.931L882.542 581.638C880.835 582.521 879.091 583.384 877.346 584.171V584.151ZM82.0668 579.989C80.9931 578.377 79.9193 576.804 78.8455 575.231L80.437 574.157C81.5108 575.73 82.5846 577.322 83.6583 578.934L82.0668 579.989ZM782.451 579.624C780.783 578.723 779.096 577.763 777.428 576.747L778.425 575.097C780.055 576.075 781.723 577.035 783.372 577.917L782.471 579.605L782.451 579.624ZM368.686 579.145L366.903 578.435C367.613 576.651 368.303 574.867 369.012 573.083L370.796 573.793C370.086 575.577 369.396 577.38 368.686 579.145ZM887.623 578.819L886.645 577.169C888.256 576.21 889.886 575.193 891.458 574.138L892.513 575.73C890.902 576.804 889.253 577.84 887.604 578.819H887.623ZM772.577 573.658C770.985 572.584 769.394 571.471 767.841 570.32L768.972 568.786C770.506 569.918 772.059 571.011 773.65 572.066L772.577 573.658ZM897.268 572.411L896.137 570.877C897.651 569.764 899.166 568.594 900.643 567.385L901.851 568.882C900.336 570.109 898.802 571.299 897.268 572.411ZM75.6051 570.512C74.4929 568.939 73.3808 567.366 72.2687 565.832L73.8218 564.7C74.934 566.254 76.0652 567.807 77.1774 569.4L75.6051 570.512ZM372.905 568.421L371.121 567.731C371.812 565.947 372.502 564.163 373.192 562.359L374.976 563.05C374.285 564.853 373.595 566.637 372.905 568.421ZM763.258 566.81C761.762 565.601 760.286 564.374 758.829 563.088L760.094 561.65C761.532 562.897 762.989 564.124 764.466 565.314L763.258 566.81ZM906.261 565.141L904.995 563.702C906.414 562.455 907.814 561.151 909.194 559.827L910.517 561.208C909.118 562.551 907.699 563.856 906.261 565.122V565.141ZM68.8557 561.208C67.686 559.674 66.5356 558.139 65.3659 556.662L66.8807 555.473C68.0503 556.969 69.2391 558.504 70.3896 560.057L68.8557 561.208ZM754.534 559.194C753.134 557.89 751.753 556.528 750.392 555.166L751.753 553.804C753.095 555.166 754.476 556.489 755.857 557.794L754.534 559.194ZM377.027 557.66L375.244 556.969L377.276 551.579L379.079 552.25L377.046 557.64L377.027 557.66ZM914.602 557.122L913.221 555.78C914.544 554.418 915.829 553.037 917.113 551.598L918.532 552.883C917.229 554.322 915.925 555.741 914.583 557.103L914.602 557.122ZM61.7611 552.173C60.534 550.677 59.3068 549.219 58.0605 547.8L59.4985 546.534C60.7449 547.972 61.9912 549.449 63.2375 550.946L61.7611 552.173ZM746.384 550.984C745.081 549.584 743.796 548.145 742.511 546.687L743.949 545.421C745.215 546.86 746.499 548.279 747.784 549.66L746.384 550.965V550.984ZM922.348 548.529L920.891 547.282C922.118 545.843 923.326 544.366 924.515 542.85L926.01 544.04C924.802 545.555 923.575 547.051 922.348 548.509V548.529ZM381.092 546.86L379.29 546.188L381.284 540.817L383.086 541.488L381.073 546.86H381.092ZM54.2447 543.541C52.9409 542.121 51.6178 540.74 50.2756 539.417L51.637 538.055C52.9792 539.397 54.3214 540.798 55.6445 542.237L54.2447 543.541ZM738.772 542.294C737.545 540.817 736.337 539.321 735.148 537.805L736.663 536.616C737.852 538.131 739.041 539.608 740.248 541.066L738.772 542.294ZM929.558 539.474L928.024 538.323C929.155 536.808 930.286 535.273 931.398 533.7L932.971 534.813C931.839 536.405 930.708 537.959 929.558 539.474ZM385.1 536.098L383.297 535.427L385.291 530.036L387.094 530.708L385.1 536.098ZM46.1531 535.446C44.715 534.122 43.277 532.856 41.8581 531.686L43.0852 530.209C44.5233 531.398 45.9806 532.683 47.4378 534.026L46.134 535.446H46.1531ZM731.62 533.201C730.47 531.667 729.338 530.113 728.207 528.54L729.76 527.427C730.872 528.981 732.004 530.535 733.135 532.05L731.601 533.201H731.62ZM936.23 530.055L934.639 528.981C935.694 527.408 936.748 525.816 937.784 524.185L939.394 525.221C938.34 526.852 937.285 528.463 936.211 530.055H936.23ZM37.3904 528.156C35.8373 527.005 34.265 525.912 32.731 524.914L33.7664 523.303C35.3579 524.32 36.9494 525.432 38.5409 526.602L37.3904 528.137V528.156ZM389.069 525.279L387.266 524.626L389.26 519.217L391.063 519.869L389.069 525.279ZM724.909 523.802C723.835 522.209 722.761 520.617 721.707 519.006L723.318 517.951C724.372 519.562 725.427 521.154 726.5 522.727L724.909 523.802ZM27.8415 522.037C26.1542 521.116 24.4477 520.291 22.7603 519.543L23.5273 517.778C25.253 518.526 27.017 519.39 28.7427 520.329L27.8224 522.018L27.8415 522.037ZM942.481 520.349L940.851 519.351C941.849 517.74 942.826 516.09 943.804 514.44L945.453 515.419C944.475 517.088 943.478 518.737 942.481 520.368V520.349ZM17.5065 517.548C15.7041 516.953 13.8826 516.455 12.0802 516.071L12.4828 514.191C14.3427 514.594 16.241 515.112 18.1009 515.726L17.5065 517.548ZM6.55792 515.169C4.698 514.958 2.8189 514.862 0.958984 514.862V512.944C2.8956 512.944 4.85139 513.059 6.76884 513.251L6.55792 515.15V515.169ZM393.038 514.46L391.235 513.807L393.23 508.378L395.032 509.031L393.038 514.46ZM718.581 514.153C717.565 512.541 716.549 510.891 715.533 509.242L717.162 508.244C718.16 509.894 719.176 511.505 720.192 513.117L718.562 514.153H718.581ZM948.349 510.393L946.68 509.453C947.62 507.803 948.54 506.115 949.461 504.427L951.148 505.348C950.228 507.055 949.288 508.743 948.349 510.393ZM712.58 504.292C711.602 502.643 710.643 500.974 709.684 499.305L711.353 498.346C712.311 500.015 713.27 501.664 714.229 503.314L712.58 504.292ZM397.007 503.602L395.205 502.95L397.18 497.54L398.982 498.192L397.007 503.602ZM953.852 500.245L952.145 499.362C953.027 497.674 953.909 495.967 954.772 494.26L956.479 495.123C955.597 496.849 954.734 498.557 953.852 500.264V500.245ZM706.847 494.279C705.907 492.61 704.987 490.922 704.066 489.215L705.754 488.294C706.674 489.982 707.594 491.67 708.515 493.339L706.847 494.279ZM400.976 492.802L399.174 492.15L401.168 486.74L402.97 487.411L400.976 492.821V492.802ZM959.067 489.944L957.341 489.1C958.185 487.392 959.01 485.666 959.834 483.92L961.56 484.745C960.735 486.491 959.911 488.236 959.067 489.944ZM701.363 484.131C700.462 482.443 699.58 480.736 698.698 479.028L700.404 478.146C701.286 479.853 702.168 481.541 703.069 483.249L701.382 484.15L701.363 484.131ZM404.964 481.983L403.162 481.311L405.156 475.902L406.958 476.573L404.964 481.963V481.983ZM964.014 479.508L962.269 478.702C963.055 476.976 963.861 475.23 964.628 473.465L966.373 474.252C965.586 476.017 964.8 477.762 963.995 479.508H964.014ZM696.071 473.887C695.208 472.18 694.345 470.454 693.482 468.727L695.208 467.864C696.071 469.59 696.914 471.298 697.796 473.005L696.09 473.868L696.071 473.887ZM408.972 471.183L407.169 470.511L409.183 465.121L410.985 465.792L408.972 471.183ZM968.693 468.957L966.929 468.19C967.676 466.444 968.443 464.68 969.191 462.896L970.955 463.644C970.208 465.428 969.46 467.193 968.693 468.957ZM690.932 463.567C690.088 461.84 689.245 460.114 688.42 458.388L690.146 457.543C690.989 459.27 691.814 460.996 692.658 462.723L690.932 463.567ZM413.018 460.402L411.215 459.73L413.267 454.34L415.05 455.031L412.998 460.402H413.018ZM973.18 458.33L971.396 457.601C972.125 455.836 972.834 454.052 973.563 452.268L975.346 452.978C974.637 454.762 973.908 456.546 973.18 458.33ZM685.908 453.189C685.084 451.462 684.259 449.717 683.435 447.99L685.16 447.165C685.985 448.911 686.809 450.638 687.634 452.364L685.908 453.189ZM417.121 449.659L415.338 448.969L417.428 443.597L419.211 444.288L417.121 449.659ZM977.475 447.645L975.691 446.935C976.382 445.151 977.091 443.367 977.762 441.583L979.545 442.274C978.855 444.077 978.165 445.861 977.455 447.645H977.475ZM680.98 442.753L678.545 437.516L680.29 436.711L682.725 441.928L680.98 442.734V442.753ZM421.32 438.936L419.537 438.226C420.246 436.442 420.956 434.639 421.665 432.874L423.448 433.584C422.739 435.368 422.03 437.133 421.32 438.936ZM981.616 436.864L979.814 436.193C980.485 434.409 981.156 432.606 981.827 430.802L983.63 431.474C982.958 433.277 982.287 435.08 981.616 436.883V436.864ZM676.129 432.299L673.713 427.081L675.458 426.275L677.874 431.493L676.129 432.299ZM425.596 428.251L423.813 427.522C424.541 425.738 425.27 423.954 425.999 422.189L427.763 422.918C427.034 424.683 426.305 426.467 425.596 428.251ZM985.605 426.064L983.802 425.412C984.454 423.609 985.106 421.806 985.739 420.002L987.541 420.655C986.889 422.477 986.257 424.28 985.585 426.083L985.605 426.064ZM671.297 421.882L668.881 416.664L670.626 415.859L673.042 421.077L671.297 421.882ZM429.987 417.624L428.223 416.875C428.971 415.091 429.719 413.327 430.466 411.562L432.23 412.31C431.483 414.075 430.735 415.84 429.987 417.604V417.624ZM989.478 415.207L987.675 414.574C988.308 412.77 988.941 410.948 989.555 409.145L991.376 409.778C990.743 411.6 990.111 413.403 989.478 415.226V415.207ZM666.446 411.428L664.011 406.21L665.756 405.404L668.191 410.622L666.446 411.428ZM434.474 407.035L432.71 406.267C433.477 404.502 434.244 402.738 435.03 400.992L436.794 401.759C436.027 403.505 435.26 405.27 434.493 407.035H434.474ZM993.217 404.311L991.395 403.697C992.009 401.874 992.622 400.071 993.236 398.249L995.058 398.863C994.444 400.685 993.83 402.507 993.217 404.33V404.311ZM661.537 401.011C660.713 399.265 659.888 397.539 659.064 395.813L660.79 394.988C661.614 396.714 662.439 398.46 663.263 400.186L661.537 401.011ZM439.114 396.522L437.369 395.736C438.174 393.971 438.961 392.225 439.766 390.499L441.511 391.305C440.705 393.031 439.919 394.777 439.114 396.541V396.522ZM996.879 393.395L995.058 392.801C995.652 390.978 996.266 389.156 996.86 387.334L998.682 387.928C998.087 389.751 997.474 391.573 996.879 393.395ZM656.571 390.633C655.728 388.907 654.884 387.18 654.059 385.454L655.785 384.61C656.629 386.336 657.472 388.063 658.316 389.789L656.59 390.633H656.571ZM443.946 386.087L442.22 385.262C443.045 383.516 443.888 381.79 444.713 380.063L446.439 380.907C445.595 382.615 444.77 384.341 443.946 386.087ZM1000.46 382.442L998.643 381.847L1000.41 376.399L1002.23 376.994L1000.46 382.461V382.442ZM651.509 380.313C650.646 378.586 649.784 376.879 648.921 375.172L650.627 374.289C651.49 375.996 652.372 377.704 653.235 379.43L651.528 380.293L651.509 380.313ZM448.989 375.766L447.282 374.903C448.145 373.177 449.027 371.45 449.89 369.762L451.597 370.644C450.715 372.332 449.852 374.04 448.989 375.766ZM1003.97 371.508L1002.15 370.932L1003.9 365.446L1005.72 366.021L1003.97 371.508ZM646.275 370.069C645.373 368.362 644.491 366.674 643.59 364.985L645.278 364.084C646.179 365.772 647.08 367.46 647.981 369.186L646.275 370.069ZM454.262 365.561L452.574 364.659C453.495 362.952 454.396 361.264 455.336 359.595L457.004 360.516C456.083 362.185 455.163 363.854 454.262 365.561ZM1434.54 364.64C1432.58 364.583 1430.66 364.467 1428.76 364.333L1428.9 362.415C1430.78 362.549 1432.68 362.664 1434.59 362.722L1434.54 364.64ZM1422.99 363.777C1421.08 363.547 1419.16 363.259 1417.26 362.952L1417.59 361.053C1419.45 361.36 1421.34 361.648 1423.22 361.859L1422.99 363.758V363.777ZM1411.58 361.839C1409.69 361.417 1407.81 360.957 1405.97 360.458L1406.48 358.617C1408.27 359.115 1410.13 359.576 1412.01 359.979L1411.58 361.859V361.839ZM1007.43 360.554L1005.6 359.979L1007.33 354.473L1009.15 355.049L1007.43 360.554ZM640.81 359.959C639.87 358.271 638.931 356.602 637.991 354.953L639.659 353.994C640.599 355.662 641.558 357.331 642.497 359.02L640.829 359.94L640.81 359.959ZM1400.42 358.77C1398.6 358.175 1396.78 357.504 1394.98 356.794L1395.69 355.01C1397.45 355.701 1399.25 356.353 1401.04 356.948L1400.44 358.77H1400.42ZM459.803 355.509L458.135 354.55C459.094 352.862 460.072 351.212 461.05 349.562L462.699 350.541C461.721 352.171 460.762 353.821 459.803 355.49V355.509ZM1389.67 354.531C1387.92 353.744 1386.18 352.881 1384.47 351.999L1385.35 350.291C1387.04 351.174 1388.75 352.018 1390.45 352.785L1389.67 354.531ZM635.115 349.965C634.137 348.315 633.14 346.666 632.143 345.054L633.773 344.038C634.77 345.668 635.767 347.318 636.764 348.987L635.115 349.965ZM1010.88 349.524L1009.05 348.948L1010.76 343.424L1012.58 343.999L1010.88 349.524ZM1379.43 349.179C1377.78 348.2 1376.13 347.184 1374.52 346.109L1375.57 344.517C1377.17 345.572 1378.78 346.589 1380.39 347.529L1379.41 349.179H1379.43ZM465.69 345.649L464.06 344.632C465.076 342.982 466.112 341.352 467.166 339.76L468.777 340.815C467.741 342.407 466.725 344.018 465.709 345.649H465.69ZM1369.78 342.791C1368.25 341.659 1366.72 340.47 1365.22 339.242L1366.43 337.746C1367.9 338.954 1369.42 340.124 1370.93 341.237L1369.8 342.771L1369.78 342.791ZM629.094 340.201C628.059 338.59 627.004 336.978 625.931 335.405L627.522 334.331C628.596 335.904 629.65 337.515 630.705 339.146L629.094 340.182V340.201ZM1014.29 338.494L1012.45 337.937L1014.14 332.432L1015.98 332.988L1014.29 338.494ZM471.96 336.019L470.368 334.945C471.461 333.333 472.573 331.76 473.685 330.207L475.239 331.319C474.127 332.854 473.034 334.408 471.941 336L471.96 336.019ZM1360.83 335.463C1359.39 334.177 1357.97 332.854 1356.59 331.511L1357.93 330.13C1359.3 331.473 1360.69 332.758 1362.11 334.024L1360.83 335.463ZM622.671 330.686C621.559 329.113 620.427 327.579 619.277 326.063L620.811 324.912C621.961 326.428 623.112 327.981 624.243 329.574L622.69 330.686H622.671ZM1017.68 327.483L1015.84 326.926L1017.53 321.421L1019.37 321.977L1017.68 327.483ZM1352.53 327.406C1351.2 326.006 1349.9 324.586 1348.63 323.128L1350.07 321.862C1351.34 323.301 1352.62 324.701 1353.93 326.082L1352.53 327.406ZM478.671 326.754L477.156 325.584C478.345 324.03 479.534 322.514 480.742 321.037L482.237 322.246C481.048 323.704 479.86 325.2 478.69 326.734L478.671 326.754ZM615.768 321.593C614.56 320.097 613.333 318.639 612.106 317.201L613.563 315.934C614.809 317.373 616.056 318.85 617.283 320.366L615.787 321.574L615.768 321.593ZM1344.9 318.735C1343.69 317.258 1342.48 315.743 1341.31 314.208L1342.82 313.038C1343.99 314.553 1345.16 316.05 1346.37 317.527L1344.9 318.735ZM485.88 317.891L484.442 316.625C485.727 315.148 487.012 313.728 488.316 312.328L489.715 313.632C488.431 315.014 487.146 316.414 485.88 317.872V317.891ZM1021.08 316.51L1019.24 315.954L1020.92 310.448L1022.76 311.004L1021.08 316.51ZM608.271 312.961C606.948 311.561 605.606 310.18 604.283 308.894L605.625 307.513C606.986 308.837 608.348 310.218 609.671 311.657L608.271 312.961ZM493.704 309.585L492.361 308.223C493.761 306.861 495.18 305.518 496.58 304.271L497.864 305.71C496.484 306.938 495.084 308.261 493.704 309.604V309.585ZM1337.88 309.585C1336.77 308.031 1335.65 306.458 1334.58 304.847L1336.17 303.772C1337.24 305.365 1338.34 306.918 1339.45 308.472L1337.9 309.585H1337.88ZM1024.47 305.518L1022.63 304.943L1024.34 299.437L1026.16 300.013L1024.45 305.518H1024.47ZM600.103 305.019C598.664 303.753 597.188 302.525 595.731 301.375L596.92 299.878C598.396 301.048 599.892 302.295 601.368 303.6L600.103 305.038V305.019ZM502.198 302.027L500.99 300.53C502.524 299.303 504.077 298.113 505.592 297.039L506.704 298.593C505.208 299.667 503.674 300.818 502.179 302.027H502.198ZM1331.38 300.032C1330.34 298.42 1329.33 296.79 1328.31 295.14L1329.94 294.143C1330.94 295.773 1331.95 297.404 1332.97 298.996L1331.36 300.032H1331.38ZM591.167 297.998C589.595 296.905 588.003 295.869 586.412 294.91L587.409 293.26C589.039 294.238 590.669 295.294 592.279 296.425L591.186 297.998H591.167ZM511.421 295.447L510.405 293.816C512.054 292.781 513.741 291.821 515.409 290.92L516.31 292.608C514.68 293.471 513.031 294.43 511.421 295.447ZM1027.88 294.526L1026.04 293.951L1027.77 288.445L1029.61 289.021L1027.88 294.507V294.526ZM581.465 292.147C579.778 291.284 578.052 290.479 576.326 289.769L577.074 288.004C578.838 288.733 580.602 289.558 582.328 290.44L581.465 292.147ZM1325.38 290.172C1324.42 288.522 1323.46 286.834 1322.52 285.146L1324.19 284.206C1325.13 285.875 1326.07 287.544 1327.02 289.193L1325.36 290.152L1325.38 290.172ZM521.411 290.152L520.644 288.388C522.427 287.601 524.229 286.891 526.032 286.258L526.664 288.062C524.92 288.675 523.156 289.366 521.43 290.133L521.411 290.152ZM571.053 287.812C569.27 287.237 567.448 286.719 565.627 286.277L566.068 284.417C567.928 284.858 569.807 285.395 571.648 285.99L571.053 287.812ZM532.052 286.45L531.573 284.589C533.433 284.11 535.351 283.688 537.249 283.381L537.575 285.28C535.734 285.587 533.874 285.99 532.052 286.469V286.45ZM560.086 285.184C558.245 284.896 556.346 284.685 554.487 284.532L554.64 282.614C556.557 282.767 558.494 282.978 560.392 283.285L560.105 285.184H560.086ZM543.174 284.551L543.02 282.633C544.938 282.479 546.893 282.383 548.83 282.383V284.302C546.951 284.302 545.034 284.378 543.174 284.532V284.551ZM1031.34 283.554L1029.51 282.978L1031.26 277.492L1033.08 278.067L1031.34 283.554ZM1319.78 280.081C1318.88 278.393 1317.99 276.686 1317.11 274.96L1318.82 274.077C1319.7 275.784 1320.58 277.472 1321.48 279.161L1319.8 280.062L1319.78 280.081ZM1034.83 272.581L1033 271.986L1034.77 266.5L1036.59 267.094L1034.83 272.581ZM1314.5 269.818C1313.66 268.092 1312.82 266.366 1311.97 264.62L1313.7 263.795C1314.52 265.521 1315.37 267.248 1316.21 268.955L1314.48 269.799L1314.5 269.818ZM1038.37 261.627L1036.55 261.033C1037.15 259.21 1037.76 257.388 1038.35 255.565L1040.17 256.16C1039.58 257.983 1038.97 259.805 1038.37 261.627ZM1309.52 259.402C1308.71 257.656 1307.91 255.911 1307.12 254.165L1308.87 253.379C1309.65 255.124 1310.46 256.87 1311.26 258.596L1309.52 259.402ZM1042 250.693L1040.17 250.079L1042.02 244.612L1043.84 245.226L1042 250.674V250.693ZM1304.74 248.89C1303.96 247.125 1303.19 245.379 1302.42 243.614L1304.19 242.847C1304.95 244.612 1305.72 246.358 1306.49 248.122L1304.74 248.89ZM1045.72 239.797L1043.89 239.164C1044.53 237.342 1045.16 235.538 1045.79 233.716L1047.6 234.349C1046.96 236.152 1046.33 237.955 1045.7 239.778L1045.72 239.797ZM1300.16 238.301C1299.41 236.536 1298.67 234.771 1297.92 232.987L1299.68 232.239C1300.43 234.004 1301.18 235.769 1301.93 237.533L1300.16 238.282V238.301ZM1049.53 228.939L1047.73 228.287C1048.38 226.465 1049.03 224.662 1049.69 222.858L1051.49 223.511C1050.84 225.295 1050.18 227.098 1049.53 228.92V228.939ZM1295.67 227.673L1293.47 222.34L1295.23 221.612L1297.44 226.944L1295.67 227.673ZM1053.48 218.139L1051.68 217.468C1052.35 215.665 1053.04 213.862 1053.71 212.078L1055.51 212.768C1054.84 214.552 1054.15 216.336 1053.48 218.159V218.139ZM1291.26 217.008L1289.08 211.694L1290.86 210.965L1293.05 216.279L1291.26 217.008ZM1057.57 207.378L1055.78 206.687C1056.49 204.884 1057.18 203.1 1057.89 201.316L1059.68 202.026C1058.97 203.791 1058.26 205.575 1057.57 207.378ZM1286.89 206.361L1284.69 201.047L1286.45 200.318L1288.66 205.651L1286.89 206.38V206.361ZM1061.84 196.693L1060.06 195.964C1060.79 194.18 1061.54 192.396 1062.28 190.65L1064.05 191.398C1063.3 193.144 1062.57 194.928 1061.84 196.712V196.693ZM1282.48 195.714C1281.75 193.93 1281.01 192.166 1280.26 190.401L1282.02 189.653C1282.77 191.417 1283.52 193.182 1284.25 194.966L1282.48 195.695V195.714ZM1066.31 186.104L1064.55 185.336C1065.31 183.552 1066.1 181.807 1066.89 180.061L1068.63 180.848C1067.84 182.574 1067.08 184.339 1066.31 186.104ZM1278 185.125C1277.25 183.361 1276.48 181.596 1275.71 179.85L1277.48 179.083C1278.24 180.828 1279.01 182.593 1279.78 184.377L1278.01 185.125H1278ZM1071.01 175.63L1069.26 174.824C1070.07 173.059 1070.89 171.333 1071.74 169.606L1073.46 170.431C1072.64 172.139 1071.81 173.884 1071.01 175.63ZM1273.37 174.594C1272.59 172.829 1271.8 171.083 1271 169.357L1272.74 168.551C1273.55 170.297 1274.33 172.043 1275.12 173.807L1273.37 174.594ZM1075.97 165.271L1074.27 164.408C1075.13 162.681 1076.01 160.955 1076.89 159.267L1078.6 160.149C1077.72 161.837 1076.86 163.545 1075.99 165.271H1075.97ZM1268.56 164.139C1267.74 162.394 1266.89 160.667 1266.07 158.96L1267.79 158.116C1268.64 159.823 1269.48 161.569 1270.31 163.314L1268.58 164.139H1268.56ZM1081.27 155.085L1079.58 154.164C1080.5 152.457 1081.44 150.769 1082.38 149.119L1084.05 150.059C1083.11 151.709 1082.19 153.378 1081.27 155.085ZM1263.48 153.838C1262.6 152.131 1261.72 150.423 1260.82 148.754L1262.5 147.853C1263.4 149.541 1264.29 151.248 1265.19 152.975L1263.48 153.857V153.838ZM1086.92 145.11L1085.27 144.131C1086.27 142.462 1087.27 140.813 1088.28 139.201L1089.91 140.218C1088.92 141.829 1087.92 143.46 1086.92 145.11ZM1258.07 143.728C1257.13 142.04 1256.18 140.391 1255.2 138.76L1256.85 137.782C1257.82 139.431 1258.78 141.1 1259.72 142.789L1258.05 143.728H1258.07ZM1093.02 135.403L1091.43 134.348C1092.5 132.717 1093.58 131.125 1094.67 129.571L1096.24 130.665C1095.17 132.219 1094.09 133.792 1093.02 135.403ZM1252.24 133.868C1251.21 132.238 1250.17 130.626 1249.14 129.053L1250.73 127.979C1251.78 129.571 1252.84 131.183 1253.87 132.833L1252.24 133.849V133.868ZM1099.6 126.042L1098.06 124.891C1099.23 123.337 1100.4 121.802 1101.59 120.325L1103.09 121.515C1101.92 122.992 1100.75 124.488 1099.6 126.042ZM1245.86 124.373C1244.75 122.819 1243.6 121.284 1242.45 119.788L1243.96 118.618C1245.13 120.133 1246.28 121.668 1247.41 123.26L1245.86 124.373ZM1106.73 117.122L1105.27 115.875C1106.54 114.398 1107.82 112.959 1109.13 111.559L1110.53 112.863C1109.24 114.244 1107.98 115.664 1106.73 117.122ZM1238.86 115.338C1237.61 113.861 1236.33 112.422 1235.08 111.06L1236.48 109.755C1237.77 111.137 1239.05 112.594 1240.32 114.091L1238.86 115.338ZM1114.51 108.777L1113.17 107.415C1114.57 106.034 1115.99 104.71 1117.39 103.463L1118.66 104.902C1117.28 106.13 1115.88 107.434 1114.51 108.796V108.777ZM1231.09 106.974C1229.71 105.631 1228.31 104.327 1226.91 103.118L1228.18 101.679C1229.6 102.926 1231.04 104.25 1232.44 105.612L1231.09 106.993V106.974ZM1122.99 101.219L1121.8 99.7226C1123.32 98.5141 1124.87 97.3439 1126.42 96.2313L1127.53 97.8043C1126.02 98.8786 1124.5 100.03 1123.01 101.219H1122.99ZM1222.52 99.5116C1221.01 98.3415 1219.46 97.2288 1217.92 96.193L1219 94.6008C1220.57 95.6558 1222.16 96.7876 1223.69 97.9962L1222.52 99.5116ZM1132.25 94.6775L1131.23 93.0469C1132.88 92.0302 1134.57 91.0519 1136.26 90.1503L1137.16 91.8384C1135.51 92.7208 1133.86 93.6608 1132.25 94.6583V94.6775ZM1213.11 93.2004C1211.48 92.2604 1209.79 91.378 1208.1 90.5531L1208.93 88.8267C1210.65 89.6515 1212.38 90.5723 1214.07 91.5315L1213.11 93.2004ZM1142.24 89.383L1141.45 87.6373C1143.22 86.8508 1145.02 86.1219 1146.82 85.4888L1147.48 87.292C1145.73 87.9251 1143.97 88.6157 1142.24 89.383ZM1202.91 88.3087C1201.16 87.6181 1199.38 87.0043 1197.58 86.448L1198.13 84.6064C1199.97 85.1819 1201.82 85.8149 1203.6 86.5247L1202.89 88.3087H1202.91ZM1152.84 85.5847L1152.33 83.7432C1154.19 83.2252 1156.08 82.784 1157.96 82.4195L1158.33 84.2995C1156.49 84.664 1154.63 85.086 1152.82 85.5847H1152.84ZM1192.09 84.9709C1190.29 84.5489 1188.41 84.2036 1186.53 83.8966L1186.82 81.9975C1188.74 82.3044 1190.66 82.6689 1192.52 83.0909L1192.09 84.9517V84.9709ZM1163.93 83.4171L1163.7 81.5179C1165.61 81.2877 1167.55 81.1343 1169.49 81.0576L1169.56 82.9759C1167.69 83.0526 1165.77 83.206 1163.91 83.4362L1163.93 83.4171ZM1180.92 83.2252C1179.06 83.0718 1177.16 82.9567 1175.26 82.9183L1175.3 81C1177.23 81.0384 1179.17 81.1535 1181.07 81.3069L1180.9 83.2252H1180.92Z" fill="#E2C761"/>
</g>
<defs>
<filter id="filter0_f_77_527" x="-3" y="-3" width="1446" height="879" filterUnits="userSpaceOnUse" color-interpolation-filters="sRGB">
<feFlood flood-opacity="0" result="BackgroundImageFix"/>
<feBlend mode="normal" in="SourceGraphic" in2="BackgroundImageFix" result="shape"/>
<feGaussianBlur stdDeviation="1.5" result="effect1_foregroundBlur_77_527"/>
</filter>
<linearGradient id="paint0_linear_77_527" x1="614.215" y1="44.6197" x2="812.129" y2="914.186" gradientUnits="userSpaceOnUse">
<stop offset="0.13" stop-color="#B7D4FB" stop-opacity="0.3"/>
<stop offset="0.17" stop-color="#BFD8FB" stop-opacity="0.27"/>
<stop offset="0.3" stop-color="#DAE9FC" stop-opacity="0.15"/>
<stop offset="0.43" stop-color="#EEF5FE" stop-opacity="0.07"/>
<stop offset="0.56" stop-color="#FAFCFE" stop-opacity="0.02"/>
<stop offset="0.68" stop-color="white" stop-opacity="0"/>
</linearGradient>
<clipPath id="clip0_77_527">
<rect width="1440" height="625" fill="white"/>
</clipPath>
<clipPath id="clip1_77_527">
<rect width="1440" height="873" fill="white"/>
</clipPath>
</defs>
</svg>
